<svg xmlns="http://www.w3.org/2000/svg" viewBox="0 0 288 691"><path fill="#d99952" stroke="#d99952" d="M38.353 11c-36.086.747-35.074-1.764-25.782 64 12.434 88.004 35.361 156.793 70.105 210.344l6.387 9.845-3.014 4.55c-8.773 13.245-11.113 32.061-5.919 47.6 3.846 11.508 16.672 27.404 26.005 32.231l3.093 1.599-2.994 3.166c-3.719 3.931-5.234 6.819-5.234 9.977 0 3.082-.995 3.818-9 6.65C44.113 417.902 8.155 465.123 2.878 518c-7.952 79.687 37.048 143.054 113.389 159.667 10.248 2.23 43.764 2.546 53.233.502 86.232-18.614 136.776-102.27 111.44-184.446-13.124-42.563-49.916-81.043-89.675-93.788l-7.235-2.319-1.523-5.239c-.891-3.064-2.815-6.531-4.637-8.353-1.712-1.712-2.946-3.234-2.742-3.381 12.522-8.994 15.846-12.285 21.788-21.571 10.36-16.19 11.747-37.565 3.564-54.907l-3.462-7.334 7.403-11.166c36.26-54.689 58.988-126.121 71.558-224.901 4.604-36.173 4.121-42.467-3.661-47.764l-3.672-2.5H165.573c-56.69 0-113.939.225-127.22.5m-19.359 8.507c-1.436 1.73-.783 13.746 1.602 29.493.791 5.225 2.564 17.6 3.941 27.5 1.376 9.9 3.131 20.7 3.9 24 .768 3.3 3.059 13.2 5.091 22 2.031 8.8 4.987 20.5 6.569 26 1.581 5.5 3.368 12.358 3.97 15.241.602 2.883 1.508 5.497 2.014 5.809 1.284.794 1.09-2.11-.571-8.55-2.499-9.691-6.127-25.198-8.421-36-1.226-5.775-2.648-11.882-3.159-13.571-.512-1.689-.93-4.421-.93-6.071 0-1.649-.908-7.242-2.017-12.429C28.538 81.496 26.378 65.144 25.445 51c-.381-5.775-1.079-10.987-1.552-11.582-.472-.595-.834-3.52-.804-6.5C23.158 26.075 22.039 18 21.022 18c-.428 0-1.34.678-2.028 1.507m65.32 5.243c.669 9.429 1.489 15.124 2.714 18.834.577 1.75.949 3.572.826 4.049-.699 2.698 3.772 33.399 6.185 42.483.529 1.989.961 4.968.961 6.619 0 3.278 4.507 26.234 5.942 30.265.489 1.375 1.646 6.1 2.571 10.5 2.788 13.272 7.394 32.455 10.084 42 1.396 4.95 3.215 11.475 4.044 14.5.828 3.025 2.096 6.85 2.818 8.5.721 1.65 2.578 6.889 4.126 11.642 2.005 6.156 3.205 8.492 4.172 8.121.783-.3 1.092-1.208.729-2.142-.345-.892-1.01-3.421-1.478-5.621-1.938-9.125-6.114-26.064-10.477-42.5-2.556-9.625-5.769-23.575-7.141-31-1.372-7.425-3.139-16.425-3.925-20-3.534-16.057-4.606-21.935-7.5-41.095-6.869-45.48-8.468-59.968-6.742-61.064.755-.479-.699-.817-3.555-.826L83.836 18l.478 6.75m111.272-3.5c-.278 1.788-.788 6.4-1.134 10.25-.346 3.85-1.696 13.3-3.001 21-1.304 7.7-2.862 18.95-3.462 25-.599 6.05-2.154 15.725-3.454 21.5-1.3 5.775-2.67 12.975-3.043 16-.373 3.025-1.709 10-2.969 15.5-1.26 5.5-2.602 12.25-2.982 15-.38 2.75-2.271 11.3-4.203 19-1.932 7.7-4.333 17.6-5.336 22a582.55 582.55 0 0 1-3.938 16c-1.162 4.4-2.312 8.9-2.556 10-.997 4.495-2.441 9.307-4.419 14.725-2.248 6.16-2.665 10.301-1.132 11.249.994.614 4.043-4.406 4.043-6.655 0-.704.842-3.539 1.871-6.3 3.762-10.092 6.129-18.082 6.129-20.686 0-1.466.44-2.816.977-3 1.421-.484 1.996-10.655.634-11.22-.756-.313-.684-.76.224-1.399.735-.516 1.41-1.337 1.5-1.826.091-.488.443-.795.783-.682 1.09.363 4.159-7.541 3.663-9.436-.263-1.006.095-2.364.795-3.019.701-.654 2.019-4.691 2.929-8.97.91-4.28 3.173-14.081 5.028-21.781 1.855-7.7 4.093-18.275 4.975-23.5.881-5.225 2.281-12.425 3.109-16 .829-3.575 1.67-7.727 1.869-9.226.199-1.5.822-5.1 1.385-8 .562-2.901 1.76-10.449 2.662-16.774 2.435-17.079 1.91-15.772 6.722-16.724 4.016-.794 4.245-1.026 4.245-4.308 0-3.37-.128-3.482-4.5-3.968l-4.5-.5 2.374-1.681c2.088-1.478 2.279-2.142 1.582-5.5-.436-2.101-.656-4.269-.49-4.819.167-.55.412-4.038.546-7.75l.243-6.75h-3.332c-2.989 0-3.384.335-3.837 3.25m68.351-1.083c-.035 1.283-.482 6.158-.995 10.833s-1.201 14.575-1.528 22c-.327 7.425-1.036 15.525-1.577 18-.54 2.475-1.355 7.2-1.812 10.5-.456 3.3-1.548 9.292-2.427 13.315-.879 4.024-1.598 8.63-1.598 10.236 0 2.806-1.01 7.928-3.242 16.449-.576 2.2-1.641 7.6-2.365 12-.724 4.4-1.984 10.652-2.798 13.893-.815 3.241-1.133 5.491-.707 5 .684-.789 2.197-5.874 5.176-17.393.498-1.925 1.139-5.3 1.424-7.5.56-4.316 1.792-10.35 3.572-17.5 4.407-17.695 6.61-28.747 7.476-37.5.381-3.85.866-8.575 1.078-10.5.212-1.925.618-6.2.902-9.5.285-3.3.984-9.944 1.553-14.764 1.251-10.601.902-18.924-.819-19.491-.751-.247-1.275.52-1.313 1.922M30.149 57.608c-2.136 1.497-2.829 5.455-1.542 8.81 1.026 2.674 6.865 2.037 8.831-.964 3.218-4.912-2.575-11.148-7.289-7.846m58.009 255.258c-.637 2.126-1.158 5.361-1.158 7.187v3.321l3.037-2.909c3.913-3.75 4.732-6.957 2.427-9.505-2.471-2.73-2.985-2.502-4.306 1.906m16.852 16.884c.016 11.069 5.597 20.581 15.991 27.251l4.945 3.173 6.031-2.087c7.57-2.619 12.569-2.639 18.554-.074l4.697 2.014 4.591-2.264c11.19-5.517 19.181-18.044 19.181-30.07v-4.097l-3.403 3.45-3.403 3.449-28.842.047-28.842.047-4.117-3.794c-5.367-4.948-5.395-4.933-5.383 2.955m77.421 16.467c-.387 1.22-3.221 4.857-6.298 8.083-20.124 21.098-58.109 18.708-72.811-4.581-2.52-3.993-5.523-4.021-3.804-.036.431.999.902 2.383 1.046 3.074.573 2.756 8.545 10.929 13.67 14.014 9.317 5.61 28.299 7.724 41.793 4.655 9.857-2.242 24.266-11.938 26.301-17.699.536-1.516.334-1.616-1.396-.69-1.85.989-1.917.911-.778-.913.686-1.097 1.606-1.772 2.046-1.5.44.272.833-.095.874-.815.041-.72.263-2.321.494-3.559.54-2.894-.222-2.916-1.137-.033M137 398.613c-23.856 2.841-29.488 3.822-37.5 6.537-21.994 7.454-46.768 24.309-58.571 39.85-2.823 3.716-1.813 3.036 5.797-3.905C58.577 430.287 64.656 426 68.131 426c2.02 0 4.32-1.504 8.413-5.5 3.098-3.025 6.125-5.5 6.727-5.5.601 0 5.442-1.783 10.758-3.963 46.481-19.06 103.068-9.194 139.471 24.316 2.75 2.532 5.413 4.613 5.919 4.625 1.921.046-12.304-12.286-20.866-18.089-24.153-16.371-58.12-26.066-81.553-23.276m104 42.765c0 .207.787.995 1.75 1.75 1.586 1.243 1.621 1.208.378-.378-1.307-1.666-2.128-2.195-2.128-1.372m-111.5 6.031c-13.766 3.411-25.521 14.827-28.382 27.563-.977 4.348-.964 4.376 4.167 8.78 6.548 5.619 11.385 4.272 17.538-4.887 11.567-17.214 35.025-15.436 38.516 2.92 2.486 13.072-9.02 24.215-25.005 24.215h-3.567l.422 6.621c.472 7.412 1.658 8.938 7.735 9.948 12.393 2.06 22.076 8.025 22.076 13.599 0 6.163-2.394 15.147-4.798 18.004-8.078 9.6-27.164 8.607-34.732-1.805-6.067-8.347-10.486-10.058-17.936-6.946-3.214 1.343-6.586 5.895-5.984 8.079.151.55.558 2.278.904 3.841.432 1.947 1.089 2.665 2.088 2.281.802-.307 1.458-.163 1.458.321 0 3.864 14.922 14.814 23.943 17.568 3.599 1.099 25.249.697 26.437-.491 1.313-1.313 2.929-1.328 2.12-.02-.998 1.615.254 1.204 7.831-2.576 11.456-5.714 18.334-13.735 21.287-24.824 3.944-14.811.142-23.549-14.797-34.013-2.058-1.441-1.993-1.583 3.62-7.778 15.254-16.837 16.343-33.179 3.224-48.379-9.4-10.892-30.983-16.278-48.165-12.021M30.278 460.25c-1.954 2.527-2.621 4.08-1.438 3.349 1.184-.732 3.553-4.599 2.818-4.599-.227 0-.848.563-1.38 1.25m83.346.289c-.965 2.514-.681 3.163.498 1.136.584-1.004.851-2.036.593-2.293-.257-.258-.749.263-1.091 1.157m-45.633 3.35c-2.035 2.139-3.948 4.84-4.252 6.002l-.553 2.113 2.907-2.07c1.599-1.139 2.907-2.453 2.907-2.921 0-.467 1.575-1.823 3.5-3.013 3.982-2.461 4.499-4 1.345-4-1.203 0-3.789 1.718-5.854 3.889M216 460.378c0 .207.787.995 1.75 1.75 1.586 1.243 1.621 1.208.378-.378-1.307-1.666-2.128-2.195-2.128-1.372M53.969 475.336c-1.091 2.466-2.255 5.987-2.587 7.824-.599 3.315-.591 3.323 1.064 1.09.917-1.238 2.264-2.25 2.994-2.25 1.458 0 2.525-3.014 2.546-7.191.023-4.48-1.914-4.226-4.017.527m175.036 1.76a135.144 135.144 0 0 1 1.502 6.272c.325 1.577.756 2.702.959 2.499.638-.638-1.438-10.239-2.428-11.229-.593-.593-.606.322-.033 2.458m15.166 15.413c-1.194 1.518-2.208 3.713-2.253 4.876-.045 1.163-.297 3.439-.56 5.058-1.153 7.097.794 8.333 2.649 1.682.978-3.506 2.197-6.656 2.709-7 1.723-1.158 2.156-3.918.887-5.654-1.16-1.586-1.432-1.503-3.432 1.038m-204.55-.705c-1.314 2.126 3.93 17.591 5.613 16.551 1.261-.779.306-11.076-1.368-14.75-1.156-2.537-3.243-3.422-4.245-1.801M221 494.987c-1.267.808-1.127 1.233.906 2.735 5.832 4.31 13.51 9.195 13.876 8.829 1.13-1.13-2.862-6.282-7.141-9.218-5.358-3.675-5.492-3.716-7.641-2.346M58.288 498.02c-3.399 2.499-7.488 8.98-5.666 8.98.785 0 9.576-6.028 12.097-8.295 4.935-4.438-.536-5.021-6.431-.685m191.99 22.323c-4.084 5.425-6.289 10.682-6.239 14.875l.039 3.282 1.31-3c.72-1.65 3.644-6.084 6.498-9.852 4.124-5.447 4.951-7.14 4.029-8.25-1.668-2.01-2.062-1.805-5.637 2.945m-217.863.139c-.36 1.436-.376 2.89-.035 3.231.341.341.62-.13.62-1.046 0-3.025 1.45-1.744 5.461 4.824 5.342 8.746 7.192 7.076 2.464-2.224-3.892-7.653-7.308-9.574-8.51-4.785m22.128 3.923c-4.918 4.917-6.854 10.623-2.138 6.3 3.999-3.667 5.207-4.484 7.193-4.866 1.24-.239 1.902-1.203 1.902-2.769 0-3.906-2.124-3.498-6.957 1.335m171.176-3.791c-.894.895 7.384 9.44 8.486 8.76.51-.316 1.559.258 2.33 1.276.99 1.307 1.411 1.441 1.433.457.036-1.556-9.13-11.107-10.658-11.107-.537 0-1.253.277-1.591.614M33 525.642c0 .537.7 1.849 1.555 2.917 1.467 1.83 1.487 1.798.365-.559-1.458-3.061-1.92-3.628-1.92-2.358m4 5.799c0 .793.408 1.693.907 2.001.498.309.671-.34.383-1.441-.611-2.335-1.29-2.63-1.29-.56m21.674 8.809c-1.59 1.164-1.569 1.337.309 2.508 1.821 1.137 2.017 1.015 2.017-1.25 0-2.896-.051-2.923-2.326-1.258m166.965.444c-1.429 1.43-.438 5.306 3.288 12.852 2.16 4.375 3.96 7.137 4 6.138.04-.998-.362-2.628-.893-3.62-.531-.993-1.402-3.776-1.936-6.184l-.97-4.38 2.436 2.806c3.388 3.902 3.053 1.846-.498-3.056-3.247-4.483-4.472-5.511-5.427-4.556m-194.032 2.888c-.334.87-.607 1.723-.607 1.897 0 1.01 14.186 12.669 14.74 12.114 1.242-1.242-3.089-7.699-7.824-11.664-5.322-4.455-5.478-4.513-6.309-2.347m216.159 10.168c-5.49 4.693-7.766 7.884-7.766 10.886 0 .927 2.688-.931 6.75-4.667 3.713-3.415 7.762-6.677 9-7.249 2.947-1.363 2.891-3.72-.089-3.72-1.343 0-4.703 2.022-7.895 4.75m-184.053 2.565c-1.742 2.659-3.721 9.246-3.661 12.185.026 1.271.983.179 2.628-3 3.143-6.076 4.598-7.199 5.47-4.22.545 1.858.667 1.704.75-.948.2-6.36-2.355-8.338-5.187-4.017m155.894 1.267c-2.323 6.052.699 11.112 4.416 7.395 2.572-2.572 2.495-4.142-.337-6.803-2.761-2.593-3.282-2.669-4.079-.592m-59.027 2.907c-5.594 5.277-18.101 7.669-27.078 5.18-1.649-.457-2.682-.516-2.296-.13 1.674 1.674 11.663 3.163 16.366 2.44 2.782-.427 5.799-.346 6.928.187 1.872.884 1.886.852.218-.494-1.67-1.349-1.616-1.481.854-2.101 3.621-.909 7.428-3.529 7.428-5.113 0-.721.787-1.467 1.75-1.658 1.134-.225 1.353-.597.622-1.057-.631-.398-2.74.811-4.792 2.746M124 562c0 .55.477 1 1.059 1s.781-.45.441-1-.816-1-1.059-1-.441.45-.441 1m-50.37 15.25c-.331 1.237-.557 3.6-.5 5.25.062 1.837.286 2.289.576 1.164.523-2.026 5.002-1.576 6.618.665.484.671.59-.297.248-2.263-1.054-6.075-5.734-9.322-6.942-4.816m70.994-1.373c-1.182.465.11.761 3.5.801 3.638.043 4.729-.196 3.376-.737-2.488-.996-4.457-1.014-6.876-.064m62.768 3.726c-.828 1.982-1.359 4.794-1.181 6.25.307 2.513.439 2.428 2.619-1.686 1.623-3.065 2.749-4.159 3.844-3.739 1.115.428 1.377.148.937-.998-.336-.877-.611-2.007-.611-2.512 0-2.657-4.219-.637-5.608 2.685M43 581.884C43 583.011 62.012 593 64.156 593c1.598 0-2.502-4.275-7.267-7.577-2.547-1.765-4.686-2.504-6.337-2.188-1.37.262-2.254.091-1.963-.379.291-.471-.136-.856-.948-.856-.813 0-2.189-.273-3.059-.607-.87-.334-1.582-.113-1.582.491m196.955.04c-4.558.893-14.085 6.362-15.713 9.021-.693 1.13-1.096 2.055-.897 2.055 1.15 0 19.606-9.112 20.111-9.928.334-.542 1.342-.703 2.24-.358 1.091.418 1.392.238.909-.544-.785-1.27-1.321-1.289-6.65-.246m21.065 3.036c-2.148 4.211-2.604 6.052-1.113 4.49 1.091-1.142 4.172-8.45 3.562-8.45-.235 0-1.337 1.782-2.449 3.96m-66.798 10.304c-2.003 2.132-5.701 9.642-5.031 10.217 1.218 1.043 11.445-9.38 10.631-10.834-1.266-2.263-3.082-2.063-5.6.617M89 596.5c0 1.375.338 2.447.75 2.382 2.504-.396 4.469.441 6.71 2.858 1.397 1.507 2.54 2.183 2.54 1.503 0-1.77-6.967-9.243-8.616-9.243-.81 0-1.384 1.038-1.384 2.5m164.2 3.7c-.66.66-1.2 1.759-1.2 2.443 0 .684-.787 1.832-1.75 2.55-.963.719-3.407 3.332-5.431 5.807-2.025 2.475-4.828 5.796-6.229 7.38-1.401 1.585-2.336 3.221-2.079 3.637.465.752-2.486 3.729-3.184 3.212-.406-.301-1.037.165-6.827 5.036-7.023 5.909-16.181 12.632-18.882 13.863-1.44.656-2.618 1.597-2.618 2.092 0 .494-.45.62-1 .28-.55-.34-1-.115-1 .5s-.52.797-1.155.405c-.693-.429-.883-.276-.476.382 3.042 4.923 36.149-21.68 47.35-38.047 5.746-8.397 7.878-12.937 4.481-9.54m-141.812 8.341c-1.618 1.254-1.639 1.377-.146.858.965-.336 3.329.331 5.307 1.497 4.403 2.598 6.569 2.763 3.336.253-4.704-3.651-6.457-4.189-8.497-2.608m59.112-.124c-1.65.737-4.35 2.799-6 4.582l-3 3.243 3.2-1.621c1.761-.891 3.958-1.621 4.883-1.621 1.975 0 5.619-3.864 4.837-5.129-.641-1.038-.247-1.093-3.92.546m-104.856 1.35c-.38.614 3.819 2.098 10.61 3.75 6.181 1.504 11.915 2.987 12.742 3.296 3.274 1.222-1.18-2.724-5.327-4.719-4.794-2.307-17.059-3.89-18.025-2.327m144.356.614c-6.083 1.341-8.988 2.694-11.007 5.127-1.186 1.429-1.06 1.552 1.082 1.052 8.528-1.99 17.536-3.56 20.431-3.56 4.289 0 5.415-1.699 1.989-3.002-3.243-1.233-5.48-1.164-12.495.383m-168 1.997c0 .207.788.995 1.75 1.75 1.586 1.243 1.621 1.208.378-.378-1.307-1.666-2.128-2.195-2.128-1.372m113.255 10.585c-1.01 1.618-.978 1.868.182 1.423 1.512-.581 2.981-3.386 1.772-3.386-.4 0-1.28.883-1.954 1.963m-50.856 8.62c-6.349 3.348-7.42 4.417-4.427 4.417 2.506 0 14.864-4.576 16.478-6.102 2.229-2.107-7.417-.758-12.051 1.685m29.764 3.661c-3.664 3.434-6.85 6.359-7.08 6.5-.229.141-.203.47.058.731.262.261 3.588-2.006 7.393-5.038 3.804-3.032 7.938-5.768 9.185-6.081 1.247-.313 2.019-.971 1.715-1.463-1.362-2.203-5.106-.425-11.271 5.351M168 629.827c0 1.207 14.98 6.201 18.5 6.168l3-.029-3.021-1.936c-4.927-3.158-18.479-6.241-18.479-4.203m-102.639 6.631c6.599 5.889 29.843 18.658 33.611 18.463 1.339-.069 1.343-.147.028-.63-3.884-1.428-14.076-6.605-14.567-7.399-.303-.491-1.25-.892-2.105-.892-.854 0-2.965-1.145-4.691-2.544-9.952-8.07-19.711-13.633-12.276-6.998m57.154 8.741c-1.642 1.54-2.508 2.801-1.924 2.801 1.167 0 6.004-4.808 5.33-5.297-.232-.168-1.764.955-3.406 2.496M199 648.833c0 .642-.825 1.167-1.833 1.167-1.009 0-2.16.327-2.559.726-.399.399-3.287 1.717-6.417 2.929-6.818 2.64-4.77 3.104 2.46.558 6.092-2.145 10.128-4.705 9.099-5.77-.412-.427-.75-.251-.75.39m-81.5 11.156c4.764 1.571 24.602 3.309 25.663 2.248.574-.574-2.846-1.178-8.919-1.576-5.417-.355-12.076-.874-14.797-1.154-4.22-.433-4.506-.362-1.947.482m40.5.404c0 .216.698.661 1.552.989.89.341 1.291.173.941-.393-.587-.951-2.493-1.406-2.493-.596M146 662c0 .55.45 1 1 1s1-.45 1-1-.45-1-1-1-1 .45-1 1m5.762-.293c1.244.239 3.044.23 4-.02s-.062-.446-2.262-.435c-2.2.011-2.982.216-1.738.455" fill-rule="evenodd"/><path fill="#f7f9f4" stroke="#f7f9f4" d="m107 11-91.5.5-3.191 2.276c-5.176 3.692-5.77 7.871-3.799 26.738A808.912 808.912 0 0 0 19.437 113c14.773 74.883 31.398 120.813 60.697 167.683 10.257 16.407 9.625 14.344 6.013 19.637-10.526 15.424-11.015 41.425-1.076 57.18 6.267 9.934 17.329 20.8 23.15 22.74.78.26-.132 2.006-2.479 4.748-2.134 2.493-3.965 5.863-4.305 7.925-.921 5.572-.968 5.631-5.583 6.992-22.491 6.63-48.256 25.128-63.757 45.773-17.78 23.68-27.327 48.814-29.161 76.766-3.088 47.086 8.933 83.469 37.426 113.273 37.529 39.256 95.624 54.033 146.666 37.307C290.398 639.148 320.997 509.27 243.46 433.5c-15.359-15.008-32.868-26.262-51.293-32.967l-8.334-3.033-1.843-5.5c-1.16-3.46-3.007-6.474-4.979-8.125l-3.135-2.624 7.084-5.153c22.829-16.605 30.98-47.832 18.909-72.451-3.63-7.404-3.796-6.378 2.498-15.429C238.581 236.137 262.309 162.785 275.545 62c4.722-35.959 4.007-44.437-4.15-49.186-3.71-2.16-35.96-2.516-164.395-1.814m-60.982 6.75-27.483.283-2.359 2.733c-2.811 3.258-2.648 7.737 1.385 38.1C18.902 68.967 20 77.656 20 78.175c0 .518.475.649 1.056.291.704-.435.985 1.314.843 5.247-.253 6.997 2.749 23.414 8.464 46.287.756 3.025 1.915 8.38 2.576 11.9 1.414 7.532 5.206 18.16 5.821 16.317.236-.706.093-2.056-.317-3-1.047-2.413-1.447-4.133-2.024-8.717l-.503-4 1.518 4c.835 2.2 2.905 9.4 4.6 16 4.192 16.323 10.196 33.419 17.811 50.72 1.037 2.354 3.139 7.655 4.673 11.78 1.534 4.125 3.557 8.625 4.496 10 .94 1.375 2.254 4.181 2.92 6.236 1.174 3.618 3.066 5.978 3.066 3.823 0-.582.675-1.059 1.5-1.059s1.5-.388 1.5-.861c0-.474 1.025-.666 2.278-.426 1.432.274 2.951-.309 4.092-1.569 1.77-1.956 1.757-1.992-.528-1.488-1.865.412-2.037.299-.842-.554 1.439-1.028-1.346-1.754-4.437-1.158-.516.1-2.132.42-3.591.712-2.235.447-2.85.053-3.908-2.503-1.816-4.382-1.018-4.9 8.69-5.644 9.942-.762 39.267-4.163 43.93-5.096 2.893-.578 3.174-.369 4.341 3.234 2.427 7.492 6.042 13.686 7.27 12.458 1.517-1.517 1.111-9.198-.719-13.577-5.085-12.17-19.865-70.692-19.27-76.3.541-5.102-1.507-16.536-3.714-20.728-.869-1.65-1.588-4.575-1.598-6.5-.011-1.925-1.161-10.025-2.556-18s-2.718-16.075-2.94-18c-.221-1.925-.866-6.2-1.432-9.5-.567-3.3-2.175-14.55-3.575-25-1.399-10.45-3.001-20.434-3.56-22.188-.935-2.935-1.732-8.281-1.873-12.562-.052-1.565-1.142-1.725-10.308-1.517-5.638.129-22.617.361-37.732.517m146.557.128c-.815 1.32-2.068 9.18-3.526 22.122-3.196 28.373-7.657 56.621-13.002 82.327-7.361 35.397-9.633 45.529-12.993 57.924-2.343 8.642-3.496 19.14-2.002 18.217 1.221-.755 1.194-.222-.162 3.217-1.028 2.606-1.169 2.667-1.898.815-1.46-3.708-4.097 4.856-4.5 14.615-.201 4.86-.871 9.635-1.489 10.611-.882 1.392-1.014.591-.612-3.726l.512-5.5-2.044 4.375-2.044 4.375 2.404 6.562c2.784 7.602 3.881 8.411 5.518 4.073 1.042-2.759 1.516-3.056 3.973-2.485 5.242 1.217 14.788 1.706 16.074.822 3.526-2.423-5.418-6.222-14.649-6.222-2.475 0-2.673-.882-.781-3.47 1.317-1.8 1.956-1.79 22.75.351 11.768 1.211 23.753 2.939 26.634 3.839 4.363 1.364 9.425.957 5.506-.442-.691-.247-1.014-.841-.718-1.319 1.664-2.694-14.319-6.706-35.526-8.918-16.652-1.738-18.403-2.495-14.59-6.308 1.514-1.514 24.829 1.139 41.59 4.733l10.335 2.213c1.561.333 3.172 1.517 3.585 2.634.934 2.524 1.067 2.3 5.521-9.313 2.004-5.225 4.749-12.031 6.101-15.125 1.352-3.094 2.458-6.009 2.458-6.479 0-.469 1.082-3.788 2.404-7.375 1.322-3.586 4.966-15.007 8.096-25.379 6.541-21.671 7.878-25.189 9.859-25.95 1.401-.537 2.399-5.293 3.083-14.692.18-2.475.45-4.95.601-5.5.151-.55-.103-1.873-.564-2.94-.536-1.239-.433-2.075.285-2.315.618-.206.898-.962.622-1.681-.275-.718.2-2.007 1.056-2.864 2.093-2.092 2.01-4.087-.136-3.264-1.485.57-1.465.398.155-1.393 1.017-1.124 1.468-2.043 1.003-2.043-.466 0-.094-.563.825-1.25 1.175-.879 2.142-4.517 3.257-12.25 6.967-48.314 7.857-61.535 4.299-63.866-3.178-2.082-76.045-3.738-77.27-1.756m67.238 5.805c.721.289 1.584.253 1.916-.079.332-.332-.258-.568-1.312-.525-1.165.048-1.402.285-.604.604M202 33.5c0 .867.595 1.209 1.5.862.825-.317 1.5-.705 1.5-.862 0-.157-.675-.545-1.5-.862-.905-.347-1.5-.005-1.5.862M257.5 48c-1.772.762-1.687.867.75.93 1.512.038 2.75-.38 2.75-.93 0-1.174-.769-1.174-3.5 0m-3 36c-.34.55-.168 1 .382 1s1.278-.45 1.618-1c.34-.55.168-1-.382-1s-1.278.45-1.618 1m-222.231.693c.973.254 2.323.237 3-.037.677-.274-.119-.481-1.769-.461-1.65.02-2.204.244-1.231.498m219.216 10.332c-.408.659-.121 1.584.637 2.055 1.663 1.033 2.559-.799 1.103-2.255-.666-.666-1.246-.599-1.74.2m-218.735.637c.688.278 1.813.278 2.5 0 .688-.277.125-.504-1.25-.504s-1.937.227-1.25.504m59.25 8.33-2.5.621 2.456.654c2.62.697 3.47.398 2.898-1.019-.195-.483-1.479-.598-2.854-.256M191 105c0 1.187 1.737 1.187 4.5 0 1.676-.72 1.474-.871-1.25-.93-1.787-.038-3.25.38-3.25.93m-156.386 4.437a1.534 1.534 0 0 0 1.969.893c2.086-.801 1.724-2.33-.552-2.33-1.3 0-1.781.488-1.417 1.437M250 109.059c0 .582.45.781 1 .441s1-.816 1-1.059-.45-.441-1-.441-1 .477-1 1.059m-61 7.847c0 1.592 1.006 1.83 8.25 1.959 4.537.081 11.85.401 16.25.713 5.763.408 7.581.27 6.5-.491-.825-.581-4.2-1.066-7.5-1.077-3.3-.012-7.575-.425-9.5-.918-8.017-2.054-14-2.133-14-.186M77 118l-5.5.674 7.191.163c3.955.09 7.469-.287 7.809-.837.663-1.072-.75-1.072-9.5 0m-39.985 2.914c.054 2.071 1.813 2.959 4.46 2.251 4.613-1.234 4.357-3.183-.393-2.997-2.245.088-4.075.424-4.067.746m209.151-.038c-1.063.674-.994.976.34 1.488 1.846.708 3.494.037 3.494-1.423 0-1.163-2.047-1.198-3.834-.065M31 124c0 1.1.408 2 .906 2 .499 0 .671-.9.384-2-.288-1.1-.696-2-.907-2-.21 0-.383.9-.383 2m156 4.297c0 1.678 12.388 3.175 21 2.537 3.772-.28 2.963-.54-5-1.607-5.225-.7-10.963-1.538-12.75-1.863-2.503-.455-3.25-.241-3.25.933m-108.191 2.254c-9.73.706-18.505 1.759-19.5 2.34-1.967 1.148 8.257.796 27.615-.95 5.733-.518 11.245-.941 12.25-.941 1.004 0 1.826-.45 1.826-1s-1.013-.94-2.25-.867c-1.237.074-10.211.712-19.941 1.418m-38.804 4.699c-.006 2.026 1.442 2.187 5.845.653 4.142-1.444 3.09-2.909-1.888-2.627-3.009.171-3.953.641-3.957 1.974M241 133.883c0 .486.787 1.162 1.75 1.501.963.34 2.313.879 3 1.2.786.367 1.25-.19 1.25-1.501 0-1.648-.627-2.083-3-2.083-1.65 0-3 .398-3 .883M112.605 141.5c.322 2.75.973 5.675 1.447 6.5.995 1.732.076-5.132-1.205-9-.538-1.625-.623-.75-.242 2.5m-77.526-.917c.048 1.165.285 1.402.604.605.289-.722.253-1.585-.079-1.917-.332-.332-.568.258-.525 1.312M100 141l-2.5.801 2.75.099c1.513.055 2.75-.35 2.75-.9s-.112-.955-.25-.9c-.138.055-1.375.46-2.75.9m84-.199c0 .58 2.588 1.328 5.75 1.662 3.162.333 10.7 1.24 16.75 2.014 6.05.775 15.95 1.913 22 2.53 6.05.618 11.787 1.276 12.75 1.464.999.195 1.75-.262 1.75-1.065 0-.92-1.122-1.405-3.25-1.403-3.011.003-17.207-1.542-37.75-4.109-16.8-2.099-18-2.171-18-1.093M89.5 143c-2.695.686-2.746.765-.5.782 1.375.01 3.625-.342 5-.782 3.361-1.076-.27-1.076-4.5 0m-44.75 3.689c-2.75.719-2.045 2.316 1 2.264 1.513-.025 5.675-.647 9.25-1.38l6.5-1.335-7.5-.003c-4.125-.002-8.288.203-9.25.454M98 152.988c-4.386 1.852-4.421 1.902-1.375 1.956 4.873.087 9.491-1.096 9.081-2.327-.592-1.78-2.873-1.67-7.706.371m84-.533c0 1.201 1.168 1.538 5.25 1.515 5.713-.034 4.964-1.226-1.5-2.387-3.006-.54-3.75-.367-3.75.872M218.5 157c.34.55.816 1 1.059 1s.441-.45.441-1-.477-1-1.059-1-.781.45-.441 1m9 1c.34.55.816 1 1.059 1s.441-.45.441-1-.477-1-1.059-1-.781.45-.441 1m2.5-.045c0 .525 1.688 1.239 3.75 1.587 2.063.348 4.537.849 5.5 1.113 1.083.297 1.75-.073 1.75-.971 0-.798-1.012-1.722-2.25-2.054-3.482-.933-8.75-.738-8.75.325m-183.56 1.141c-.483.783 1.577.891 7.191.379 10.208-.932 10.611-1.475 1.095-1.475-4.439 0-7.89.457-8.286 1.096m57.06 4.646c-12.347.837-13.944 3.481-1.91 3.162 5.298-.14 7.41-.565 7.41-1.491 0-1.744-.808-1.989-5.5-1.671m76.158 1.316c.581.581 3.709 1.282 6.95 1.557 5.609.475 5.772.426 3.392-1.022-2.896-1.763-12.043-2.236-10.342-.535M86 166.383c0 .849 5.085 1.288 5.583.483.294-.476-.842-.866-2.524-.866s-3.059.173-3.059.383m126.408 1.765c-.289.469 1.413.852 3.783.852s7.836.675 12.147 1.5c9.463 1.811 8.662 1.805 8.662.061 0-1.595-3.691-2.247-16.283-2.876-4.28-.214-8.019-.005-8.309.463M54 168.9c-3.919.523-6.476 2.872-3.5 3.215 3.033.351 14.61-2.431 13.376-3.213-1.477-.935-2.87-.936-9.876-.002m122.345 5.643c-.89 2.318-.755 2.355 14.744 3.965 12.982 1.35 21.756 2.43 33.328 4.102 2.154.312 4.996.977 6.315 1.478 3.12 1.187 3.268 1.165 3.268-.481 0-2.242-12.997-5.29-22-5.158-1.925.028-3.725-.239-4-.592-.275-.354-3.483-.928-7.129-1.275-3.646-.348-10.099-1.296-14.338-2.107-9.507-1.819-9.464-1.819-10.188.068M95 177.205c-6.875.418-18.575 1.236-26 1.817-7.425.581-14.288 1.067-15.25 1.079-1.728.023-2.454 2.365-1 3.224.413.243 3.45.075 6.75-.375 3.3-.451 15.225-1.334 26.5-1.963 26.021-1.452 25.5-1.389 25.5-3.07 0-1.677-.379-1.694-16.5-.712m78.648 9.269c-.827 2.155 1.919 2.673 16.852 3.18 13.094.444 33.328 2.513 38.112 3.896 3.261.943 4.04-2.352.843-3.567-4.14-1.574-6.863-1.844-21.07-2.086-7.478-.128-15.911-.563-18.74-.967-12.288-1.755-15.464-1.845-15.997-.456M66.5 189.735c-11.732 1.096-12.557 1.464-10.25 4.562 1.166 1.565 1.833 1.54 9.892-.37 14.566-3.453 14.744-5.536.358-4.192m43.5 3.466a653.62 653.62 0 0 0-12 1.69c-3.575.542-13.7 1.938-22.5 3.103-16.809 2.225-17.977 2.6-16.893 5.424.534 1.391 1.378 1.62 4.101 1.109 1.886-.354 8.461-1.275 14.611-2.048 6.149-.772 14.556-2.107 18.681-2.966 4.125-.86 10.448-1.889 14.051-2.288 5.914-.655 6.497-.919 6-2.728-.498-1.81-1.08-1.934-6.051-1.296m62-.331c0 .621-.113 1.425-.25 1.785-.137.36.425.767 1.25.904s6.9 1.154 13.5 2.26c6.6 1.106 14.25 2.313 17 2.683 2.75.37 8.6 1.565 13 2.655 10.706 2.655 10.954 2.661 11.296.267.445-3.104-14.765-6.976-37.296-9.495-5.5-.615-11.912-1.359-14.25-1.654-2.809-.353-4.25-.152-4.25.595m-65.5 10.705c-5.5.719-14.5 2.188-20 3.266-5.5 1.078-13.263 2.526-17.25 3.219-7.077 1.23-8.12 2.018-6.356 4.802.664 1.048 2.316 1.194 7.164.631l6.302-.731-2.852 2.643c-1.569 1.454-3.934 2.915-5.256 3.247-2.837.712-2.434 4.594.787 7.598 1.951 1.818 5.961 2.405 5.961.872 0-1.8 41.016-10.799 47.25-10.368 2.053.143 2.174-.73.583-4.221-.735-1.613-1.754-2.391-2.75-2.1-12.631 3.684-30.329 5.778-36.128 4.275-2.205-.571-3.483-.472-3.965.309-.507.82-.868.744-1.256-.267-.559-1.458 3.496-3.413 9.024-4.35 8.599-1.459 26.144-4.547 28.549-5.025 2.144-.427 2.735-1.051 2.5-2.639-.397-2.687-.524-2.699-12.307-1.161m61.845.968c-.931 2.427-.264 2.612 14.453 4.006 7.644.725 19.029 2.526 25.3 4.002 14.558 3.429 16.319 3.525 16.693.915.521-3.64-7.02-5.619-32.204-8.451-21.596-2.429-23.477-2.466-24.242-.472m49.914 25.983c-1.333 2.034-1.818 3.628-1.217 4 .896.554 4.532-6.285 3.755-7.063-.176-.176-1.318 1.202-2.538 3.063M112.5 232.647c-11.654 1.785-14.817 3.199-12.93 5.78 1.057 1.445 1.68 1.611 2.741.73.755-.627 1.668-.845 2.028-.484 1.604 1.604 17.589-.688 20.411-2.926.688-.546 1.257-.599 1.265-.119.009.479.417.238.908-.537 2.651-4.188-.048-4.645-14.423-2.444m86.714 4.718c2.043.635 4.294 1.948 5.002 2.916 1.132 1.548 4.154 2.62 8.676 3.078.766.078 1.591-.421 1.834-1.109.242-.687-.24-1.25-1.071-1.25-.832 0-2.107-.594-2.834-1.319-1.514-1.513-9.59-3.732-13.014-3.576-1.733.079-1.383.392 1.407 1.26m-61.978 11.334c-3.297 5.941-7.235 13.276-8.75 16.301-1.515 3.025-4.01 7.33-5.543 9.567-4.057 5.919-9.428 16.716-9.096 18.283.158.743-.193 1.054-.78.691-1.048-.647-1.485.643-1.119 3.309.102.743-.211 1.105-.696.806-1.615-.998-6.907 10.089-5.491 11.505.985.985 1.239.788 1.239-.965 0-1.212.925-3.889 2.055-5.95l2.054-3.746-.666 3.75c-.441 2.483-.29 3.75.446 3.75.611 0 1.111-.446 1.111-.991 0-.546 1.36-2.291 3.021-3.879l3.021-2.887 11.918.259c9.08.197 12.037-.052 12.419-1.048.986-2.568-1.942-3.464-9.481-2.902-14.53 1.082-14.96.951-12.234-3.717l1.904-3.259 20.245.061c18.683.056 20.356.207 21.684 1.962 1.639 2.165 2.016 5.836.503 4.901-.55-.34-1-.141-1 .441s.42 1.059.933 1.059c.513 0 1.218.9 1.567 2s1.138 2 1.753 2 2.183 1.001 3.485 2.224c5.038 4.733 4.444-2.812-.924-11.724-2.008-3.334-2.335-4.94-.814-4 1.206.745 1.283-.505.143-2.303-.454-.716-1.304-1.166-1.889-1-1.444.412-6.467-6.682-8.636-12.197-.973-2.475-3.062-6.528-4.642-9.006-1.579-2.479-4.755-8.779-7.056-14-2.302-5.222-4.298-9.629-4.437-9.795-.138-.165-2.949 4.56-6.247 10.5m60.577-9.016c.721.289 1.584.253 1.916-.079.332-.332-.258-.568-1.312-.525-1.165.048-1.402.285-.604.604M79.548 256.75c2.046 3.712 4.109 7.178 4.586 7.7 1.632 1.79.895-.89-1.181-4.295-1.589-2.607-1.782-3.656-.874-4.75.919-1.108.824-1.405-.448-1.405-.888 0-2.176-.9-2.863-2-3.159-5.058-2.536-1.268.78 4.75M141 251.378c0 .207.685.946 1.523 1.641 1.273 1.057 1.42.995.893-.378-.538-1.401-2.416-2.384-2.416-1.263m-4.428 12.193c-.865.865-1.572 1.933-1.572 2.375 0 1.996 15.368 2.885 16.559.958 2.038-3.297-11.919-6.401-14.987-3.333m58.93-.651c-1.676.654-1.434.866 1.5 1.311 3.831.581 5.345.139 4.455-1.3-.678-1.097-3.159-1.102-5.955-.011m-66.88 14.209c-2.077 2.965-3 2.734 13.431 3.374 15.388.599 18.355.014 16.34-3.225-1.927-3.097-27.616-3.226-29.771-.149m-38.546 29.977c-10.304 16.896-6.38 43 8.554 56.894 2.66 2.475 3.831 3.346 2.603 1.936-2.313-2.656-2.98-4.516-1.233-3.436 1 .618 1.414-.749 1.035-3.421-.11-.781 2.424.836 5.632 3.594 7.686 6.608 9.659 7.784 17.124 10.205 24.166 7.837 51.782-2.716 65.75-25.126 1.627-2.612 3.333-4.749 3.791-4.75.457-.001-.198 1.686-1.457 3.748-1.496 2.453-1.731 3.303-.679 2.458.885-.71 1.805-.935 2.043-.5.238.436.288.209.111-.503-.177-.713.76-3.413 2.082-6 3.373-6.602 4.094-15 2.057-23.955-.907-3.988-1.952-7.25-2.321-7.25-.926 0-4.852 7.891-5.596 11.25-.336 1.512-1.215 2.75-1.954 2.75-.932 0-1.502 1.96-1.857 6.389-2.755 34.317-50.908 49.562-76.31 24.16-8.739-8.739-10.867-13.721-10.914-25.549-.02-5.225.349-11.019.82-12.875.609-2.399.537-3.177-.25-2.691-.668.413-1.107-.108-1.107-1.316 0-1.1-.486-2.301-1.081-2.668-.595-.368-1.912-2.034-2.927-3.703l-1.846-3.036-2.07 3.395m26.622 14.55c.284.739 1.619 1.344 2.968 1.344 3.016 0 2.259-1.59-1.06-2.224-1.738-.333-2.278-.084-1.908.88m-12.205 4.594c-1.355 9.149 2.947 19.368 11.318 26.884 7.797 7.002 9.261 7.524 15.543 5.544 6.757-2.13 14.447-2.141 19.728-.028 10.804 4.322 26.498-12.042 27.703-28.887l.512-7.16-3.898 3.999-3.899 3.998-28.156-.214c-30.008-.229-30.755-.346-34.343-5.384-2.872-4.034-3.762-3.787-4.508 1.248M186 355.5c-.707.852-1.06 1.773-.785 2.048.275.275 1.078-.196 1.785-1.048.707-.852 1.06-1.773.785-2.048-.275-.275-1.078.196-1.785 1.048m-3 2.441c0 .518.445 1.216.989 1.552.566.35.734-.051.393-.941-.665-1.732-1.382-2.049-1.382-.611m-44.25 3.782c1.787.222 4.713.222 6.5 0 1.787-.221.325-.403-3.25-.403s-5.037.182-3.25.403M108 372.5c.685.825 1.951 1.5 2.814 1.5 1.255 0 1.181-.293-.373-1.468-2.539-1.921-4.025-1.94-2.441-.032m32 5.555c-4.335.535-4.39.583-1.5 1.311 5.329 1.34 6.309 1.421 9.457.772l3.097-.638-3.277-1c-1.802-.55-5.302-.75-7.777-.445m-24.81 8.089c-3.682 1.415-5.598 2.799-6.25 4.513-1.845 4.853-1.341 5.302 3.772 3.361 5.343-2.028 6.404-3.529 3.211-4.542-2.789-.886-1.038-2.112 4.307-3.015 2.073-.35 3.77-1.047 3.77-1.549 0-1.417-3.01-.996-8.81 1.232m56.214 1.75c.986 1.089 1.537 2.392 1.226 2.896-.311.503.08 1.769.87 2.813 1.28 1.69 1.44 1.712 1.468.194.049-2.591-2.049-6.614-3.797-7.285-1.245-.478-1.198-.199.233 1.382M120 399.921C73.614 406.939 32.083 440.934 18.504 483c-.976 3.025-2.422 6.779-3.212 8.341-6.043 11.945-8.441 66.265-3.284 74.407 1.14 1.8.877-2.702-.614-10.498-.4-2.093-.225-3.25.493-3.25.612 0 1.113.685 1.113 1.521 0 .837 1.097 3.2 2.437 5.25 1.341 2.051 3.605 7.918 5.032 13.039 8.938 32.068 30.069 58.72 60.046 75.737 38.745 21.994 90.649 21.516 129.203-1.19 29.485-17.365 53.941-50.286 59.324-79.857 2.947-16.189 2.678-15.386 4.954-14.791 1.102.288 2.004 1.147 2.004 1.908 0 2.739 2.764 1.313 3.375-1.742 1.165-5.826.648-31.58-.784-39.037-6.532-34.014-21.821-60.474-47.56-82.312-31.208-26.477-69.162-36.939-111.031-30.605m-.5 11.525c-15.148 2.91-28.78 8.108-38.114 14.534-33.35 22.959-44.749 36.894-55.232 67.52-7.474 21.838-9.216 54.926-3.878 73.695 8.37 29.432 23.385 51.461 47.206 69.255 36.082 26.955 86.383 31.486 128.261 11.555 68.761-32.727 93.08-115.496 52.425-178.424-17.767-27.5-50.815-52.108-76.668-57.088-11.991-2.309-44.178-2.934-54-1.047m8.966 10.607c-15.242 1.481-30.81 7.043-43.216 15.44a2328.552 2328.552 0 0 1-15.147 10.139c-5.339 3.541-7.959 5.839-7.196 6.311.794.49-.369 1.894-3.436 4.149-9.129 6.711-11.357 9.044-13.088 13.705-2.248 6.05-4.383 9.424-4.383 6.926 0-2.535-1.509-2.097-2.839.824C37.396 483.419 37.702 484 41.5 484c2.995 0 3.5-.335 3.5-2.322C45 474.329 51.216 464 55.639 464c1.246 0 3.748-1.507 5.563-3.351 8.749-8.891 15.665-10.613 20.775-5.173 4.211 4.482-.758 18.898-9.554 27.712l-4.205 4.214 3.019 2.819c2.68 2.504 2.963 3.308 2.528 7.17-.525 4.66-5.433 12.826-8.788 14.621-1.855.993-1.805 1.172 1.05 3.765 3.561 3.234 3.694 4.478 1.985 18.522-1.445 11.873-1.206 12.69 3.827 13.074 1.707.13 3.417.549 3.799.932 1.128 1.127 2.362.797 2.362-.632 0-2.126 6.155-.795 6.745 1.459.268 1.028.833 1.868 1.255 1.868.422 0 1.014.945 1.316 2.101.303 1.156 1.029 1.804 1.617 1.441.666-.412 1.115.582 1.194 2.649.074 1.939.465.703.944-2.982 1.682-12.953 7.477-17.709 21.579-17.709 5.033 0 8.755-.246 8.271-.546-.483-.3.012-1.308 1.1-2.24 1.353-1.158 1.999-1.302 2.042-.454.035.682.461.253.947-.953.522-1.296.496-3.542-.063-5.493-1.456-5.077-1.169-19.484.451-22.616 2.654-5.133 4.958-6.341 13.488-7.074 6.509-.559 8.503-1.141 10.568-3.081 4.306-4.045 2.695-8.811-2.331-6.9-1.443.549-2.736.966-2.873.927-5.28-1.484-10.758 1.325-15.25 7.821-.825 1.193-4.2 3.27-7.5 4.615l-6 2.447 4 .055c3.736.052 3.872.153 2.059 1.524-2.8 2.118-14.132 1.879-18.383-.388-3.23-1.722-6.441-6.033-9.752-13.094-1.172-2.499-1.522-5.543-1.271-11.052 1.081-23.702 23.652-41.907 52.048-41.981 31.179-.08 57.077 26.943 51.828 54.083-.681 3.52-1.581 8.894-2 11.941-.703 5.114-3.349 11.959-4.622 11.959-.298 0-.24-1.013.129-2.25.66-2.213.645-2.217-.901-.25-2.175 2.768-2.125 2.97 2.257 9.089 3.51 4.901 5.392 10.036 7.594 20.713.575 2.787.617 2.8 7.973 2.606 7.196-.191 11.718 1.485 9.743 3.61-.386.416-.027.542.798.281 1.471-.466 1.703-1.562 1.901-8.978.055-2.023.752-4.331 1.549-5.128 1.267-1.267 1.204-2.099-.5-6.582-2.575-6.777-2.556-11.715.05-13.343 2.64-1.649 2.544-2.294-1.014-6.786-7.247-9.15-8.289-19.982-1.923-19.982 3.589 0 3.042-2.196-1.832-7.35-8.67-9.166-12.555-21.548-8.212-26.17 5.085-5.413 12.02-3.827 21.99 5.028 5.133 4.559 6.439 5.194 7.419 3.608.301-.486-.792-1.438-2.428-2.116-1.636-.678-2.729-1.63-2.428-2.116.3-.486.089-.884-.469-.884-.558 0-3.502-2.467-6.542-5.483-22.899-22.717-60.249-34.946-96.095-31.464m2.797 24.461C113.723 450.325 100 465.207 100 480.418c0 16.263 17.123 18.806 25.121 3.731 4.415-8.322 7.679-10.641 15.468-10.991 8.127-.365 13.684 2.105 17.763 7.896 6.151 8.734-1.796 21.867-14.185 23.441-12.723 1.616-12.723 1.617-11.547 13.098.928 9.06 2.174 10.261 11.38 10.97l7.5.577-2.361-2.07c-1.898-1.665-2.032-2.07-.684-2.07 4.474 0 12.565 7.082 12.506 10.946-.039 2.537-.048 2.534-1.448-.446-1.597-3.4-3.921-6.5-4.873-6.5-1.409 0-.516 2.802 1.462 4.593 3.206 2.901 4.898 6.87 4.898 11.489 0 15.968-25.343 21.36-36.256 7.713-7.224-9.035-10.306-10.583-17.25-8.666-6.361 1.757-8.82 5.343-8.14 11.871 2.363 22.68 29.463 37.077 56.55 30.043 4.072-1.057 7.722-2.438 8.112-3.068.389-.63 1.107-1.156 1.596-1.168 3.405-.083 14.297-7.94 18.04-13.012 2.429-3.294 3.085-5.369 1.359-4.302-.566.35-.735-.05-.395-.935.327-.851.97-1.314 1.43-1.029 2.614 1.615 4.205-10.077 2.681-19.707-2.097-13.256-3.815-16.604-11.864-23.122l-4.636-3.755 5.136-5.28c8.214-8.444 10.137-13.219 10.136-25.165-.002-8.9-.318-10.684-2.875-16.222-8.326-18.034-30.868-27.651-53.361-22.764m-60.868 14.387c-3.781 2.306-7.308 7.785-8.082 12.559-.571 3.519-.554 3.538 2.556 2.916 2.203-.44 3.131-.247 3.131.654 0 2.456 3.949-2.241 6.975-8.295 4.275-8.557 2.26-12.005-4.58-7.834m141.662-.469c-2.278 2.745 3.25 14.991 9.107 20.173l2.141 1.895-.609-3.16c-.677-3.507 1.839-5.714 3.017-2.646.564 1.469.715 1.439 1.32-.267.552-1.556.821-1.253 1.395 1.573 2.034 10.017 3.552 13.67 6.18 14.867 1.458.664 2.774 1.079 2.925.92.617-.646-3.809-16.446-5.327-19.015-1.59-2.692-4.206-3.794-4.206-1.772 0 2.201-1.786.822-2.306-1.781-.706-3.529-8.285-12.219-10.657-12.219-.985 0-2.327.644-2.98 1.432M138 469.014c-1.081.708-.643.819 1.566.396 4.809-.92 11.031 1.286 15.432 5.473 4.794 4.561 5.42 3.335.705-1.38-4.602-4.602-13.924-6.966-17.703-4.489m-4 .986c-1.282.828-1.246.972.25.985.963.008 1.75-.435 1.75-.985 0-1.22-.113-1.22-2 0m-79.858 2.75c-4.085 7.696-5.431 22.25-2.058 22.25 2.863 0 7.603-16.659 6.231-21.903-.667-2.55-2.905-2.736-4.173-.347M242 481.378c0 3.475.037 3.505 3 2.472 2.844-.991 4.148-2.85 2-2.85-.55 0-.887-.552-.75-1.226.137-.675-.762-1.381-2-1.57-1.972-.301-2.25.092-2.25 3.174m-139.012 3.599c1.535 2.869 4.297 4.04 9.196 3.898l4.316-.125-4.24-.691c-2.331-.38-5.285-1.674-6.564-2.875-2.894-2.718-4.102-2.811-2.708-.207m141.108 7.058c-1.176 1.906-2.411 4.514-2.745 5.795-.882 3.381.158 15.499 1.524 17.748.987 1.628 1.077 1.386.583-1.578-.321-1.925-.133-4.625.416-6 .904-2.261 1.005-2.088 1.063 1.809.039 2.651.454 4.067 1.079 3.681.559-.346.775-1.019.479-1.498-.295-.478.255-1.312 1.223-1.854 2.812-1.574 3.18-15.808.494-19.125l-1.979-2.444-2.137 3.466m-205.668 1.104c-2.849 5.509-.739 15.537 4.577 21.753 5.613 6.564 5.97-13.958.394-22.642-1.947-3.032-3.045-2.835-4.971.889m22.072 2.72c-5.075 3.131-8.423 7.196-9.063 11.003-.336 2.001-.837 4.538-1.113 5.638-.276 1.1.735.23 2.247-1.933 2.747-3.929 2.751-3.93 3.669-1.5.915 2.42.943 2.408 5.263-2.329 7.772-8.521 7.094-15.875-1.003-10.879m159.014-.882c-2.132 3.451 16.992 25.184 19.741 22.434.747-.746-1.093-8.256-3.175-12.963-2.848-6.44-14.369-13.026-16.566-9.471m-189.746 9.222c-.255 1.815-.792 4.056-1.195 4.978-.583 1.337-.311 1.567 1.341 1.135 1.815-.475 1.994-1.055 1.44-4.677-.808-5.282-1.02-5.474-1.586-1.436m195.083-.449c2.231 3.088 11.149 11.973 11.149 11.107 0-2.731-2.941-7.001-6.961-10.107-5.771-4.459-6.878-4.723-4.188-1m31.416 2.25c-1.091 3.922-.812 5 1.292 5 1.571 0 1.815-3.227.491-6.5-.708-1.751-.93-1.564-1.783 1.5m-80.862 2.25-1.905 2.25 2.25-1.905c1.238-1.048 2.25-2.06 2.25-2.25 0-.8-.805-.209-2.595 1.905m74.816 11.5c-4.458 5.672-5.896 9.161-6.492 15.75-.299 3.3-.858 6.788-1.243 7.75-.477 1.192-.23 1.75.776 1.75.891 0 1.686-1.291 2.005-3.257.791-4.876 4.024-11.743 5.528-11.743.728 0 1.101-.36.829-.8-.272-.44.376-1.344 1.441-2.008 2.308-1.442 2.362-.928.533 5.147-.77 2.562-1.008 4.414-.527 4.117 1.116-.69 4.929-12.96 4.929-15.861 0-5.443-3.838-5.86-7.779-.845m-217.614-1.168c-1.189 3.097-.57 6.557 2.093 11.701 1.485 2.869 2.63 5.495 2.544 5.834-.225.893 4.007 4.676 5.659 5.058 1.795.416 1.553-10.152-.335-14.656-2.9-6.921-8.606-11.467-9.961-7.937m21.931 5.168c-5.435 5.369-9.099 16.25-5.473 16.25 1.527 0 10.689-9.624 12.505-13.136 3.575-6.912-1.095-8.98-7.032-3.114m150.021-2.218c-1.554 1.175-1.628 1.468-.373 1.468.863 0 2.129-.675 2.814-1.5 1.584-1.908.098-1.889-2.441.032m19.984-.601c-.317.512-.121 1.212.435 1.556.556.343 1.537 1.612 2.18 2.819 1.058 1.984 1.01 2.063-.494.822-5.42-4.471.677 6.426 7.597 13.579 4.74 4.898 5.747 4.719 5.717-1.016-.05-9.605-11.987-23.339-15.435-17.76m-198.34 12.288.003 5.719 2.299-1.719c1.808-1.351 2.053-2.018 1.147-3.115-.633-.767-1.67-2.567-2.302-4-1.036-2.346-1.15-2.037-1.147 3.115M10.114 539.5c-.094 7.558.596 11.5 2.011 11.5.917 0 .249-8.767-1.143-15-.647-2.902-.796-2.303-.868 3.5m117.364 2.5c3.597 5.846 6.582 9.081 7.727 8.373.503-.311.188-1.097-.701-1.746-1.423-1.041-1.34-1.209.69-1.412 6.59-.657 12.264-1.981 8.99-2.097-1.823-.065-4.223-.604-5.332-1.197-1.61-.862-2.302-.711-3.436.75-1.368 1.761-1.396 1.759-.759-.057.478-1.363.27-1.748-.748-1.386-2.02.719-5.096-1.1-4.277-2.528.379-.66.316-.862-.141-.448-.456.414-1.718-.036-2.805-1-1.481-1.313-1.282-.624.792 2.748m-70.387-1.609c-.635.765-1.807 3.352-2.603 5.75l-1.449 4.359.503-4c.469-3.728.4-3.868-1.019-2.059-1.724 2.198-2.081 12.148-.523 14.559.769 1.19.976.983 1-1 .024-1.963.234-2.179.976-1.005.81 1.282 1.156 1.211 2.425-.5C58.515 553.647 62 544.257 62 541.411c0-2.741-2.969-3.358-4.909-1.02M225 543.922c0 3.824 7.306 20.078 9.025 20.078 2.317 0 2.545-9.993.327-14.3-4.95-9.61-9.352-12.33-9.352-5.778m-193.901-.107c-2.089 3.904 1.928 12.394 8.797 18.596 3.624 3.271 3.416 1.012-.409-4.429-4.514-6.423-3.243-6.137 3.985.896 3.041 2.958 5.524 4.758 5.518 4-.025-3.54-5.116-11.806-9.946-16.148-5.857-5.267-6.55-5.521-7.945-2.915m116.389 3.205c-.38.614-1.305.88-2.057.592-.752-.289-1.633-.094-1.958.432-.325.526-.002.993.718 1.037.72.045.019.651-1.558 1.348-2.126.939-2.474 1.418-1.347 1.851 2.522.967 5.714-.372 5.714-2.397 0-1.157.675-1.853 1.75-1.804 1.045.047 1.247.282.5.583-.687.278-1.25.921-1.25 1.43 0 .509.9.363 2-.324s2-1.666 2-2.175c0-.51-.296-.63-.658-.268-.362.362-1.222.19-1.911-.382-.874-.725-1.462-.702-1.943.077m105.012 2.117c-4.12 2.302-11.519 10.392-12.634 13.815-.636 1.951-1.991 4.621-3.011 5.933-2.304 2.962-2.366 4.36-.176 3.938.923-.178 1.569-.695 1.434-1.149-.134-.454.685-1.632 1.821-2.617 1.136-.985 2.066-2.301 2.066-2.924 0-.623.477-1.133 1.059-1.133s.733.527.335 1.171c-.398.644.464.306 1.915-.75 1.45-1.057 2.45-2.453 2.222-3.102-.251-.713.346-1.035 1.506-.812 1.056.204 2.187-.06 2.511-.585.325-.525.925-.748 1.334-.495 1.188.734 6.217-7.723 5.903-9.927-.331-2.325-3.38-2.986-6.285-1.363m-173.421 1.446c.048 1.165.285 1.402.604.605.289-.722.253-1.585-.079-1.917-.332-.332-.568.258-.525 1.312m-14.68 4.6c-6.042 6.745-6.934 21.373-1.627 26.68l2.488 2.488 1.262-2.425c3.252-6.253 4.36-23.615 1.715-26.882l-1.763-2.177-2.075 2.316m155.561 1.365c-2.505 3.019-1.16 28.452 1.505 28.452 2.035 0 4.019-3.021 4.207-6.402.095-1.704.618-4.448 1.164-6.098l.992-3 .086 2.685c.047 1.477-.378 3.906-.946 5.399-.906 2.383-.845 2.559.5 1.442 3.423-2.841.835-17.514-3.869-21.933-2.094-1.967-2.418-2.016-3.639-.545M185 560.059c0 .582.45.781 1 .441s1-.816 1-1.059-.45-.441-1-.441-1 .477-1 1.059m-82 2.588c0 .84 2.475 3.982 5.5 6.983 3.025 3.001 5.5 5.887 5.5 6.413 0 .526.338.904.75.839 2.808-.444 4.673.198 3.25 1.118-1.216.786-1.078.972.726.985 1.224.008 3.553.822 5.174 1.808 2.465 1.499 8.863 2.087 13.1 1.204.275-.057-2.9-1.111-7.055-2.341-9.781-2.897-15.252-6.173-21.709-13-2.945-3.114-5.236-4.868-5.236-4.009m141 1.412c0 .582.45.781 1 .441s1-.816 1-1.059-.45-.441-1-.441-1 .477-1 1.059M76 566c0 .55.477 1 1.059 1s.781-.45.441-1-.816-1-1.059-1-.441.45-.441 1m94.895 5.987c-2.919 2.193-8.251 4.948-11.851 6.124-7.52 2.455-9.805 3.966-5.097 3.37 5.123-.648 16.549-6.366 20.154-10.085 4.347-4.486 3.291-4.291-3.206.591M62 575.441c0 .793.408 1.693.907 2.001.498.309.671-.34.383-1.441-.611-2.335-1.29-2.63-1.29-.56m11.439.752C70.369 585.866 76.274 605 82.33 605c1.211 0 .02-19.149-1.492-24-2.022-6.488-6.038-9.097-7.399-4.807m135.319.522c-3.745 4.138-4.571 16.173-1.648 24.026 1.372 3.687 5.437 1.114 6.802-4.304 3.05-12.115-.33-25.052-5.154-19.722m-166.091 3.952c-1.443 1.442-.535 3.433 2.083 4.568 1.513.656 6.157 3.274 10.321 5.818 4.164 2.545 9.016 5.13 10.782 5.746l3.212 1.12-1.783-3.071c-3.184-5.485-10.118-10.717-17.034-12.853-7.463-2.305-6.733-2.177-7.581-1.328m195.8.73c-6.724 2.107-14.741 7.88-17.281 12.445-2.664 4.788-2.293 5.094 2.131 1.757 1.751-1.321 8.06-4.715 14.02-7.542 9.125-4.329 10.646-5.372 9.628-6.599-1.44-1.736-3.113-1.748-8.498-.061M47.43 591.886c.853 1.381 7.134 5.423 10.07 6.481 2.974 1.071-2.109-3.435-6-5.32a622.818 622.818 0 0 1-3.905-1.904c-.497-.249-.572.086-.165.743m52.57-.508c0 .207.787.995 1.75 1.75 1.586 1.243 1.621 1.208.378-.378-1.307-1.666-2.128-2.195-2.128-1.372m95.096 2.267c-5.133 3.596-10.534 21.355-6.494 21.355 2.077 0 7.187-5.237 5.62-5.759-3.073-1.025 1.371-8.939 5.859-10.435 1.603-.534.447-5.389-1.458-6.12-.766-.294-2.353.137-3.527.959m-105.846.073c-4.182 1.5-.25 13.54 6.456 19.771 6.344 5.895 7.753 5.879 6.937-.08-1.41-10.287-8.902-21.301-13.393-19.691m21 13.944c-4.197 1.694 3.096 14.207 8.75 15.014.825.118 4.147.476 7.382.795l5.881.58-1.764-2.776c-5.723-9.005-15.455-15.547-20.249-13.613m58.25 1.187c-3.446 2.115-16.5 15.699-16.5 17.17 0 2.906 12.516-3.582 19.038-9.869 7.579-7.305 5.801-12.419-2.538-7.301m-104.357.975c-1.572 1.073-1.077 1.411 4.357 2.969 16.72 4.793 21.433 6.058 24.5 6.574l3.5.59-2.961-2.435c-8.283-6.809-24.481-11.051-29.396-7.698m143.851.11c-5.314 1.617-16.689 8.704-15.645 9.748.222.222 5.972-.964 12.777-2.636 6.806-1.672 14.035-3.041 16.065-3.043 4.33-.004 5.886-1.742 3.271-3.655-1.989-1.454-12.204-1.711-16.468-.414m-96.626 18.559c-6.781 1.474-14.368 5.709-14.368 8.02 0 2.105 1.51 1.889 11.059-1.58 10.41-3.782 13.783-5.786 11.823-7.027-.76-.482-1.607-.846-1.882-.811-.275.035-3.26.664-6.632 1.398m23.257 5.257a1356.57 1356.57 0 0 1-11.011 9.563c-6.154 5.275-6.621 6.19-3.566 6.989 1.552.406 3.793-1.161 9.25-6.471 14.751-14.351 14.29-14.338 27.383-.757 8.402 8.717 11.414 10.388 12.119 6.726.38-1.973-1.079-3.44-10.746-10.8-3.974-3.025-8.331-6.513-9.685-7.75-3.935-3.599-7.566-2.938-13.744 2.5m30.874-3.748c-.786 1.271 2.448 2.555 15.251 6.057 10.439 2.855 12.712 2.479 8.43-1.396-4.464-4.04-21.939-7.479-23.681-4.661" fill-rule="evenodd"/><path fill="#351213" stroke="#351213" d="M17.667 12.032c-6.096 1.082-8.948 4.71-9.48 12.056-.79 10.919 3.593 45.668 10.416 82.589 15 81.159 34.684 133.821 69.659 186.36 1.644 2.469 1.597 2.667-1.725 7.34-10.281 14.461-11.26 37.97-2.291 55.01 3.352 6.367 19.4 23.613 21.973 23.613 3.789 0 3.7 2.364-.249 6.648-2.183 2.369-3.976 5.33-3.984 6.58-.033 5.521-1.036 6.706-7.351 8.686C51.923 414.302 15.939 455.856 5.367 504c-3.203 14.586-2.731 54.111.812 68 10.696 41.931 36.221 74.011 73.236 92.044 67.012 32.647 143.626 11.864 184.479-50.044 26.259-39.794 29.725-97.631 8.42-140.493-16.532-33.258-48.718-62.124-81.448-73.046-6.926-2.312-7.69-2.829-8.241-5.584-1.01-5.051-3.805-10.002-6.283-11.131-3.508-1.598-2.874-3.196 2.683-6.762 23.887-15.328 33.361-51.879 19.555-75.438-2.829-4.827-2.801-5.034 1.463-10.546 4.764-6.159 18.985-30.125 24.923-42 24.852-49.698 44.266-126.455 52.55-207.761 1.811-17.772 1.3-21.087-4.053-26.274l-3.575-3.465-124.194-.075c-68.307-.041-125.919.232-128.027.607M51.954 17c-44.077.657-40.563-1.831-37.026 26.212 1.061 8.408 2.221 18.438 2.579 22.288 1.665 17.921 7.501 47.243 17.614 88.5 12.313 50.234 28.697 90.654 50.97 125.75 4.625 7.287 9.759 15.387 11.409 18l3 4.75.3-5.199c.222-3.836.746-5.341 2-5.744 1.37-.44 16.595-25.442 16.74-27.49.022-.312 1.485-2.077 3.25-3.923 4.306-4.501 4.164-6.128-.54-6.209l-3.75-.065 5.355-2.109c3.505-1.38 6.062-3.188 7.403-5.233 2.447-3.733 6.742-6.191 6.742-3.858 0 1.681-10.966 22.752-15.004 28.83-6.693 10.074-19.152 34.74-18.605 36.835.31 1.191 3.664 5.482 7.452 9.537l6.888 7.372 3.812-1.258c2.79-.921 9.537-1.126 25.161-.765l21.35.492 6.1-6.606c8.368-9.063 8.689-9.959 5.679-15.822-4.711-9.176-21.79-37.845-28.336-47.566-1.923-2.856-3.497-5.533-3.497-5.949 0-.634-3.62-9.033-10.462-24.27-.741-1.65-1.777-4.575-2.302-6.5-.524-1.925-2.096-6.425-3.492-10-1.395-3.575-3.321-9.875-4.278-14-.957-4.125-2.135-8.27-2.618-9.212-2.351-4.586-15.925-67.125-18.946-87.288-1.071-7.15-2.83-17.725-3.908-23.5-1.078-5.775-2.438-15.45-3.022-21.5-.583-6.05-1.497-12.643-2.029-14.652-.532-2.008-1.41-7.144-1.951-11.413-.541-4.268-1.238-8.014-1.547-8.324-.712-.711-1.996-.715-42.491-.111m143.055-.298c-4.25.561-4.644 1.136-4.856 7.098-.092 2.585-.826 9.2-1.631 14.7s-2.14 15.625-2.968 22.5c-1.815 15.09-5.092 35.941-7.15 45.5-.828 3.85-2.801 13.525-4.383 21.5-4.688 23.633-13.801 61.429-17.481 72.5-1.279 3.85-3.763 11.5-5.518 17l-3.192 10 2.108 5.345c2.277 5.773 6.072 12.891 12.346 23.155 2.185 3.575 5.232 8.75 6.771 11.5 2.978 5.321 3.49 5.744 8.945 7.385l3.5 1.053-3.75-.268c-2.062-.148-3.75.091-3.75.531 0 .439 1.125.799 2.5.799 2.722 0 3.164.936 1.317 2.783-.651.651-.852 1.516-.446 1.921.406.406 1.156.076 1.668-.733.787-1.245.933-1.211.946.22.008.93-.418 1.959-.947 2.286-1.446.893 1.048 5.704 2.64 5.093.872-.334 1.322.318 1.322 1.914 0 3.255 2.025 7.516 3.572 7.516 1.187 0 8.318-8.969 15.253-19.184 15.377-22.649 39.077-77.891 46.041-107.316.52-2.2 2.579-10.3 4.574-18 1.995-7.7 4.508-18.275 5.585-23.5 1.077-5.225 2.846-13.64 3.932-18.7 1.085-5.06 2.251-11.36 2.59-14 .339-2.64 1.665-11.55 2.947-19.8 4.144-26.674 6.194-51.56 4.594-55.769-.607-1.596-2.191-2.912-4.276-3.552-3.375-1.036-66.446-2.316-72.803-1.477m-83.259 1.084c-4.812.161-8.746.612-8.741 1.003.004.391.696 6.336 1.537 13.211.84 6.875 1.737 14.75 1.993 17.5.644 6.926 3.433 26.623 4.071 28.75.289.963 1.255 1.75 2.149 1.75 1.464 0 1.471.122.062 1.25-1.328 1.063-1.418 2.372-.602 8.75 1.421 11.104 1.624 11.812 3.532 12.311 1.523.398 1.535.472.093.573-1.023.072-1.518.786-1.293 1.866.2.963 1.238 5.575 2.308 10.25 1.069 4.675 2.24 10.63 2.601 13.233.375 2.702 1.331 5.11 2.227 5.612 1.032.577 1.198 1.108.485 1.549-.597.368-.917 1.218-.712 1.888.205.67.644 2.456.976 3.968l.602 2.75 12.231.117c22.041.211 27.481 1.559 6.981 1.731-10.54.088-18.25.547-18.25 1.087 0 .514.674 4.226 1.497 8.25 2.651 12.957 1.9 11.813 7.772 11.83 3.188.01 4.717.342 3.914.851-.724.459-2.862.758-4.75.663-3.815-.19-4.23.887-2.382 6.187l1.05 3.014 12.2.519c6.709.285 12.321.411 12.471.279.401-.352 3.23-13.394 3.911-18.028.323-2.2.924-4.45 1.337-5 .412-.55 1.059-2.575 1.437-4.5.379-1.925 1.811-8.185 3.183-13.912 1.373-5.726 2.241-11.427 1.929-12.667-.311-1.241-.097-2.412.475-2.602.573-.191 1.462-3.041 1.976-6.333.515-3.292 1.851-10.936 2.969-16.986 1.118-6.05 2.475-14.375 3.015-18.5s1.651-12.225 2.469-18l2.504-17.676c.56-3.946.743-7.889.408-8.762-.335-.873-.13-2.164.454-2.868.585-.705 1.372-4.299 1.75-7.987.676-6.602.65-6.706-1.701-6.669-1.313.021-15.663-.092-31.888-.252s-33.437-.16-38.25 0M114 91.167c0 .458.675.833 1.5.833s1.5-.375 1.5-.833c0-.459-.675-.834-1.5-.834s-1.5.375-1.5.834m28.25 76.522c.963.252 2.537.252 3.5 0 .963-.251.175-.457-1.75-.457s-2.713.206-1.75.457m8.563-.006c.721.289 1.584.253 1.916-.079.332-.332-.258-.568-1.312-.525-1.165.048-1.402.285-.604.604M132 181.986c0 3.241 3.051 8.023 5.199 8.15 1.266.074 4.204.214 6.53.312 2.326.097 4.493.441 4.817.765.808.808-6.415 1.853-9.796 1.417-3.399-.439-3.592 1.43-.845 8.185 1.048 2.577 2.736 7.494 3.75 10.926 2.244 7.59 2.833 7.722 4.806 1.077 1.785-6.009 1.945-8.187.539-7.318-.55.34-1 .194-1-.324 0-.519.821-1.158 1.825-1.42 1.383-.362 2.261-2.512 3.621-8.867.987-4.614 2.21-9.183 2.717-10.154 1.197-2.287.655-2.433-11.913-3.201-7.048-.43-10.25-.289-10.25.452m-5.5 56.717c-3.847.945-3.35 1.797 1.065 1.824 2.612.015 4.312-.398 4.111-1-.4-1.202-2.365-1.515-5.176-.824m63.5 28.989c0 .802 5.547 3.308 7.321 3.308 1.749 0 .409-1.851-1.728-2.387-1.324-.333-3.124-.88-4-1.216-.876-.336-1.593-.203-1.593.295M90.183 305.25c-5.976 9.809-7.928 27.648-4.322 39.517 3.93 12.938 15.818 26.7 27.084 31.352 2.505 1.034 5.36 2.345 6.343 2.913 2.372 1.37 14.491 2.9 23.212 2.931 40.364.145 68.192-38.206 52.867-72.859l-2.409-5.447-4.493 6.842c-4.298 6.543-4.457 7.045-3.644 11.514 5.306 29.196-24.841 52.015-57.625 43.616-21.753-5.573-34.204-29.322-26.24-50.046 1.055-2.745.282-4.504-2.007-4.568-.302-.008-1.83-2.04-3.395-4.515-3.389-5.362-2.931-5.256-5.371-1.25m14.154 18.314c-2.647 6.897 2.453 21.359 10.228 29.006 7.289 7.168 11.296 8.933 15.908 7.006 5.345-2.234 12.687-3.163 10.027-1.269-1.1.783-3.012 1.74-4.25 2.126-8.188 2.555 5.863 3.554 15.325 1.089 15.004-3.907 24.391-13.841 27.514-29.114 1.744-8.53.664-10.997-2.942-6.72-4.002 4.745-5.35 4.913-34.852 4.34l-27.204-.528-3.838-3.75c-4.269-4.172-5.044-4.458-5.916-2.186m41.996 34.79c0 .685.825 1.308 1.834 1.384 1.008.076 1.833-.043 1.833-.265 0-.221-.825-.844-1.833-1.384-1.322-.707-1.834-.633-1.834.265M115.5 385.326c-5.885 2.303-7.408 3.667-8.077 7.233-.843 4.494-.656 4.63 4.116 2.997 2.179-.745 7.448-1.678 11.711-2.073l7.75-.718V384l-6.25.076c-3.437.042-7.6.604-9.25 1.25m42.5.24c-2.475.787-8.437 1.463-13.25 1.502-8.036.064-8.75.231-8.75 2.053 0 1.814.66 1.976 7.75 1.898 7.543-.083 21.37 1.94 28.067 4.107 4.281 1.385 4.766.765 3.28-4.197-1.922-6.415-7.9-8.29-17.097-5.363m-24 12.095c-27.437 2.676-49.811 10.223-68.705 23.176-45.181 30.973-67.242 94.171-52.783 151.209 2.886 11.386 7.976 26.19 10.272 29.874 23.28 37.355 49.664 57.949 86.716 67.689 15.031 3.951 50.198 4.305 64.683.651 48.969-12.353 87.14-48.29 101.189-95.268 15.525-51.91-1.363-108.751-42.748-143.886-28.19-23.934-65.705-36.655-98.624-33.445m-15.746 14.774c-20.876 3.955-43.647 16.764-64.096 36.055-32.462 30.623-43.66 89.936-25.584 135.51 18.655 47.033 70.79 79.396 121.797 75.608 16.505-1.226 18.513-1.589 30.416-5.498 21.576-7.085 34.982-15.1 50.912-30.439 34.549-33.269 46.784-82.39 31.139-125.022-16.438-44.793-46.11-72.523-89.763-83.888-13.994-3.643-41.669-4.817-54.821-2.326m5.746 5.307c-14.371 1.254-34.664 10.035-51.5 22.284-16.138 11.742-20.993 16.818-28.697 30.008-3.683 6.306-7.198 12.039-7.811 12.739-5.447 6.223-13.288 45.761-11.134 56.143l.642 3.093 2.782-3.491c2.597-3.26 2.681-3.645 1.256-5.819-2.002-3.057-2.96-10.4-2.102-16.121.607-4.047.979-4.578 3.211-4.578h2.524l-.656-7.25c-.526-5.817-.254-8.535 1.376-13.75l2.031-6.5h9.406l1.139-5.5c1.939-9.358 5.341-14 10.261-14 1.022 0 4.635-2.7 8.029-6 7.409-7.205 11.08-7.905 16.424-3.129 3.177 2.838 3.199 2.92 1.929 7.25-2.001 6.821-7.633 16.215-12.191 20.333l-4.146 3.746 3.07 2.804c4.746 4.334 4.951 7.079 1.019 13.631-1.849 3.082-4.375 6.277-5.612 7.099-2.916 1.939-2.845 2.517.75 6.112 3.234 3.234 3.551 5.206 2.071 12.855-2.496 12.898-2.27 16.723 1.074 18.203 3.912 1.731 5.855 6.327 5.855 13.845 0 5.501.156 5.871 2.912 6.912 3.401 1.283 7.79 7.745 8.896 13.096.573 2.776 1.335 3.824 2.947 4.058 3.242.47 11.892 8.714 13.888 13.236 1.46 3.31 2.084 3.84 3.802 3.227 8.497-3.032 19.805 3.654 27.92 16.508 4.689 7.428 8.88 6.385 20.546-5.115 9.442-9.307 13.197-11.671 18.542-11.671 2.873 0 4.241-.762 7.154-3.987 1.981-2.192 6.444-6.014 9.918-8.493 4.634-3.307 6.631-5.464 7.501-8.099 1.713-5.191 6.52-10.245 10.443-10.981l3.316-.622.388-6.876c.331-5.852.799-7.303 3.145-9.752 2.358-2.461 2.799-3.844 3.045-9.546.213-4.915.741-6.999 2.008-7.926 1.616-1.182 1.593-1.546-.382-6.01-2.636-5.958-2.399-12.503.511-14.106 1.1-.606 2.172-1.199 2.383-1.318.211-.119-1.028-1.824-2.752-3.787-9.603-10.938-10.295-21.497-1.408-21.497 3.304 0 2.872-.998-2.834-6.538-9.295-9.024-13.999-24.171-8.666-27.905 8.914-6.244 29.565 11.272 33.23 28.186.602 2.777.97 3.101 2.559 2.25 1.021-.546 3.049-.993 4.506-.993 1.457 0 2.496-.337 2.31-.75-7.68-16.991-24.705-36.267-40.828-46.227-27.453-16.958-51.313-22.308-86-19.281m6.143 22.277c-38.094 7.986-53.454 61.48-17.643 61.443 9.227-.01 21.559-8.322 18.85-12.705-.389-.629-.186-.773.495-.352.635.392 1.155.218 1.155-.388 0-2.648 4.048-5.315 8.753-5.767 8.917-.857 14.165 6.31 8.832 12.064-2.724 2.939-4.403 3.432-13.508 3.963-5.808.34-6.683.686-9.129 3.616-4.601 5.511-5.045 19.92-.869 28.214 2.125 4.222 4.935 5.502 13.861 6.315 12.382 1.128 16.825 10.092 7.746 15.628-6.824 4.161-14.029 1.653-20.29-7.062-4.682-6.517-8.207-8.326-16.396-8.416-12.672-.14-20 7.289-20 20.276 0 19.017 19.994 36.187 44 37.786 35.386 2.356 61.422-17.18 61.481-46.134.028-13.216-2.749-20.555-12.013-31.75-1.168-1.411-1.189-1.75-.106-1.75 1.527 0 6.706-10.821 9.061-18.932 5.839-20.111-5.085-41.382-26.762-52.109-8.83-4.37-8.851-4.374-21-4.614-6.689-.132-14.122.171-16.518.674m-.892 6.526c-24.953 6.719-40.81 39.474-22.761 47.015 7.853 3.281 13.623.598 19.427-9.033 7.82-12.977 24.797-14.697 31.538-3.195 6.815 11.63-3.551 23.668-20.382 23.668-4.499 0-5.322 1.932-4.926 11.566.428 10.444 1.59 11.808 10.883 12.779 7.727.808 10.477 2.146 14.379 6.998 11.321 14.075-7.906 30.009-25.704 21.301-3.446-1.686-6.367-3.979-7.591-5.959-6.327-10.238-17.286-11.638-24.026-3.07-6.489 8.249 4.72 28.989 19.106 35.353 32.06 14.181 71.835-5.822 71.809-36.113-.01-11.526-8.101-25.818-17.804-31.449-.165-.096 2.107-2.589 5.05-5.54 8.146-8.17 10.251-13.288 10.25-24.919-.001-18.997-10.213-32.14-30.357-39.07-6.622-2.278-21.048-2.444-28.891-.332m82.999 12.117c-6.072 2.451 5.895 24.531 17.223 31.777 9.136 5.845 9.659 5.309 6.579-6.734-2.627-10.274-6.775-16.036-8.284-11.508-.22.658-1.423-.918-2.673-3.502-2.18-4.503-8.433-10.781-10.573-10.616-.562.043-1.584.306-2.272.583m-144.694 4.519C60.637 470.099 58.343 482 63.927 482c3.464 0 7.732-4.627 11.688-12.673 5.083-10.336.004-14.209-8.059-6.146m-13.258 9.167c-4.582 5.825-6.395 22.12-2.602 23.384 4.335 1.445 9.81-21.407 5.906-24.647-1.103-.916-1.799-.65-3.304 1.263M64 483.882c0 .55.45 1.278 1 1.618.55.34 1 .168 1-.382s-.45-1.278-1-1.618c-.55-.34-1-.168-1 .382m179.179 9.012c-3.712 6.605-3.354 23.548.525 24.841 2.344.781 6.527-8.985 7.05-16.462.801-11.443-3.302-15.981-7.575-8.379m-205.144-.96c-2.78 5.195-.689 17.678 3.865 23.083 3.776 4.481 5.311 3.214 5.895-4.867.926-12.796-5.871-25.482-9.76-18.216m21.879 3.536C55.215 498.551 51 503.631 51 506.211c0 1.131-.522 3.8-1.16 5.929-1.467 4.897-.61 5.746 3.405 3.375 9.93-5.867 17.05-17.077 13.256-20.871-2.057-2.057-2.224-2.036-6.587.826m160.535-1.056c-2.727 1.994-.111 8.04 6.457 14.927 7.854 8.235 13.094 10.794 13.094 6.395 0-10.676-13.691-25.607-19.551-21.322m35.54 5.169c-.006 2.155-.28 5.543-.609 7.531-.555 3.358-.377 3.692 2.511 4.698 1.71.596 3.109 1.632 3.109 2.303 0 .67.218 1.001.484.735.531-.532-4.004-17.703-4.917-18.616-.312-.312-.572 1.195-.578 3.349m-7.496 21.874c-4.298 6.023-4.668 7.045-5.51 15.207-1.028 9.96-1.094 9.709 2.217 8.45 7.992-3.039 15.982-22.07 11.603-27.638-2.727-3.467-3.134-3.272-8.31 3.981m-216.581-2.164c-.783 1.719-.641 3.41.568 6.75.886 2.451 1.758 5.5 1.936 6.775.42 3.008 6.415 9.182 8.915 9.182 1.775 0 1.897-.571 1.45-6.819-.847-11.841-9.721-22.796-12.869-15.888m21.808 4.575c-4.498 4.809-6.703 9.88-6.714 15.439L47 542.113l3.115-1.806c7.47-4.332 13.736-13.78 12.474-18.807-.959-3.822-3.784-3.068-8.869 2.368m171.53-4.206c-3.861 1.558.234 11.798 8.005 20.015 5.806 6.138 6.365 6.331 7.208 2.49 1.46-6.645-3.497-17.171-9.97-21.171-1.776-1.098-3.401-1.96-3.611-1.917-.21.043-.944.306-1.632.583m36.37 9.379c-.375 1.902-1.709 5.553-2.964 8.113l-2.282 4.654 3.275 1.562c3.956 1.886 4.015 1.798 4.269-6.371.255-8.212-1.233-13.365-2.298-7.958M55.243 540.939c-4.83 3.498-5.745 6.554-4.748 15.855 1.209 11.295 1.837 11.721 5.473 3.706 8.909-19.636 8.659-26.359-.725-19.561m169.706-.377c-1.721 2.073-.565 6.572 4.287 16.688 4.814 10.037 5.146 10.263 6.597 4.5 1.407-5.589.192-10.707-4-16.85-3.769-5.523-5.169-6.405-6.884-4.338m-193.907 2.36c-2.698 5.041.056 11.966 7.627 19.181 9.394 8.952 12.955 10.193 11.898 4.147-2.069-11.844-16.466-29.045-19.525-23.328m221.458 5.643c-5.102 2.641-10.632 8.684-13.21 14.435-1.355 3.025-3.144 6.259-3.975 7.187-1.963 2.192-.895 3.813 2.512 3.813 9.264 0 25.663-20.367 20.531-25.499-1.859-1.859-2.149-1.856-5.858.064m-188.34 5.743c-6.713 8.088-6.9 23.846-.351 29.525l2.691 2.333 1.291-4.333c1.895-6.363 2.762-23.932 1.313-26.638-1.323-2.474-3.329-2.834-4.944-.887M26 555.574c0 .865 1.125 4.925 2.5 9.021 1.375 4.096 2.5 8.546 2.5 9.889 0 2.703 3.71 13.444 5.186 15.016.517.55.429-.35-.196-2-2.641-6.971.948-14.444 6.983-14.54 2.512-.04 2.509-.049-.473-1.617-4.257-2.237-9.116-7.07-12.66-12.593-3.298-5.14-3.84-5.587-3.84-3.176m193.003 1.918c-2.097 5.515-.788 27.269 1.698 28.223 4.031 1.547 9.688-8.005 9.081-15.334-.812-9.788-8.474-18.951-10.779-12.889m39.533 7.053c-1.081 2.016-3.651 5.11-5.713 6.875l-3.749 3.208 2.603 3.659c3.328 4.677 3.758 4.319 6.896-5.747 3.011-9.656 2.992-13.649-.037-7.995m-65.912 8.994c-.965 2.514-.681 3.163.498 1.136.584-1.004.851-2.036.593-2.293-.257-.258-.749.263-1.091 1.157m-119.649 3.026c-1.48 3.893-1.167 13.515.609 18.727 1.393 4.09 7.079 10.707 9.201 10.709 1.771.001-.474-23.492-2.652-27.751-2.551-4.989-5.626-5.713-7.158-1.685m134.298 1.155c-1.775 2.723-2.6 24.286-.991 25.895 1.648 1.648 5.933-.878 7.467-4.401 1.858-4.267 2.084-17.103.377-21.464-1.398-3.572-4.535-3.585-6.853-.03M41.75 580.58c-5.664 5.687 10.522 19.51 24.638 21.043l5.887.639-2.387-4.355c-3.295-6.012-9.491-12.033-15.083-14.66-5.231-2.457-11.906-3.821-13.055-2.667m195.14.89c-10.134 3.729-16.793 10.063-19.379 18.432-1.739 5.626 15.238.592 23.994-7.115 10.205-8.983 7.443-15.755-4.615-11.317M186 583c-.901.582-1.025.975-.309.985.655.008 1.469-.435 1.809-.985.767-1.242.421-1.242-1.5 0m-11 6.049c-2.708 1.445-3.034 1.877-1.441 1.909 2.169.044 6.291-2.446 5.439-3.286-.274-.27-2.073.349-3.998 1.377m-138 2.248c0 .331 4.007 6.139 8.903 12.907C53.764 615.068 63 624.774 63 622.17c0-.509-.745-1.543-1.655-2.298-2.599-2.155-4.478-7.64-3.828-11.175.561-3.054.373-3.284-4.215-5.136-2.641-1.067-7.389-4.398-10.552-7.402-3.163-3.005-5.75-5.193-5.75-4.862m209.336 3.583c-1.741 2.024-6.128 5.414-9.75 7.532-6.917 4.045-7.24 4.498-5.513 7.725.766 1.432.761 2.901-.02 5.14l-1.093 3.135 3.125-2.956c5.834-5.52 17.957-22.782 16.786-23.901-.204-.196-1.795 1.301-3.535 3.325m-51.973-1.028c-5.56 4.645-11.67 24.148-7.566 24.148.473 0 2.944-1.381 5.492-3.068 6.324-4.189 8.711-8.326 8.711-15.1 0-7.521-2.306-9.599-6.637-5.98m-105.696-.185c-1.217 1.216-.69 10.389.755 13.133 1.71 3.248 10.353 11.665 12.888 12.551 1.639.572 1.745.184 1.12-4.109-1.846-12.672-10.711-25.628-14.763-21.575m28.101.501c.582.582 1.647.86 2.369.62.749-.25.295-.703-1.057-1.057-1.663-.435-2.054-.305-1.312.437m15.982 6.494c.688.278 1.813.278 2.5 0 .688-.277.125-.504-1.25-.504s-1.937.227-1.25.504m36.238 7.284c-3.426 1.812-10.31 8.598-16.695 16.458-2.53 3.115-3.811 3.886-6.335 3.814-5.892-.168-6.253.074-25.188 16.845-3.204 2.838-3.882 4.009-3.329 5.75 1.174 3.7 3.263 2.547 14.157-7.813 5.783-5.5 11.292-10 12.242-10 .951 0 3.963 2.562 6.694 5.693 2.731 3.132 5.416 6.053 5.966 6.493.55.44 2.955 2.378 5.345 4.307 4.916 3.969 5.683 4.174 6.975 1.865 1.373-2.453.427-4.576-3.277-7.358-20.33-15.268-19.731-14.09-8.344-16.42 10.452-2.14 12.317-3.151 15.788-8.56 6.573-10.243 4.625-15.636-3.999-11.074m-59.907-.017c-3.566 2.257 5.394 16.372 11.178 17.609 1.783.381 3.713 1.071 4.291 1.534 1.704 1.365 9.45 2.318 9.45 1.163 0-1.336-2.446-2.235-6.082-2.235-1.605 0-2.918-.349-2.918-.776 0-.427 1.858-.6 4.13-.383l4.13.394-2.312-4.114c-5.218-9.285-16.903-16.334-21.867-13.192m-44.831 1.172c-5.794 6.023 13.474 17.367 26.245 15.452 4.134-.62 7.505-2.621 7.505-4.456 0-1.064-8.936-6.739-14.458-9.181-5.795-2.564-17.511-3.666-19.292-1.815m146.047-.052c-5.077 1.003-6.964 1.917-15.047 7.285-7.329 4.867-7.348 4.917-2.574 7.182 5.23 2.482 15.086 1.518 23.504-2.298 16.104-7.302 12.039-15.709-5.883-12.169m10.15 15.803c-5.515 3.985-9.604 5.148-18.096 5.148-4.043 0-7.336.112-7.318.25.329 2.525 3.918 10.321 4.843 10.522.69.149 2.532-.638 4.094-1.75 1.561-1.112 3.169-2.022 3.573-2.022.908 0 13.371-10.143 15.91-12.949 2.541-2.807 1.664-2.573-3.006.801M68.36 627.676c2.672 2.814 8.935 7.525 13.916 10.47 11.391 6.734 10.873 6.579 9.578 2.864-.602-1.727-.853-4.627-.558-6.444l.536-3.305-7.666-.695c-7.616-.69-14.729-3.104-18.629-6.323-1.121-.925.15.62 2.823 3.433m40.64.651c-16.447 5.513-17.121 14.996-.955 13.443 5.237-.504 15.955-6.588 15.955-9.058 0-5.153-6.788-7.138-15-4.385m56.836.757c-5.854 2.253-2.861 8.213 5.782 11.514 4.938 1.886 17.555 1.629 19.583-.399 5.086-5.086-16.476-14.534-25.365-11.115m-25.586 18.169c-1.56.73-2.25 1.926-2.25 3.9V654h7.917c5.397 0 8.077-.398 8.421-1.25.403-1 .52-1 .583 0 .043.688.77 1.25 1.614 1.25.918 0 .013-1.306-2.25-3.248-2.082-1.787-4.01-3.474-4.285-3.75-.959-.963-7.517-.794-9.75.251" fill-rule="evenodd"/></svg>