<svg xmlns="http://www.w3.org/2000/svg" viewBox="0 0 289 676"><path fill="#f6f9f6" stroke="#f6f9f6" d="M29.5 5C8.791 5.941 7.831 8.633 13.086 51c11.934 96.201 37.193 175.902 73.569 232.134l4.408 6.814-2.578 3.895c-16.555 25.017-7.459 60.631 19.919 77.994 4.814 3.053 4.851 3.115 2.404 4.046-1.367.52-3.683 2.368-5.147 4.108-2.487 2.956-3.136 4.541-3.879 9.475-.218 1.444-2.286 2.696-7.789 4.714-46.827 17.171-83.068 61.349-91.005 110.937-2.349 14.672-.797 47.203 2.919 61.202 9.34 35.186 27.729 61.515 56.936 81.519 42.238 28.929 92.913 33.823 139.657 13.488 64.093-27.884 97.609-100.686 78.844-171.263-11.583-43.568-43.697-79.384-85.238-95.064l-9.412-3.553-1.329-4.557c-1.314-4.508-4.176-8.311-7.929-10.537-1.853-1.098-1.828-1.19.564-2.137 5.259-2.082 14.848-10.223 19.821-16.83 14.291-18.984 15.599-45.059 3.188-63.537-2.662-3.963-2.789-4.525-1.435-6.348 18.346-24.699 36.46-61.117 47.75-96 19.202-59.325 37.253-168.472 29.802-180.196-4.692-7.383 5.699-6.804-122.082-6.804C92.045 4.5 35.55 4.725 29.5 5m-6.833 7.667c-1.608 1.607 2.319 45.569 4.42 49.496.537 1.003.959 3.29.937 5.081-.06 4.814 3.463 26.601 3.921 24.256.108-.55.623-.1 1.146 1 .823 1.732.878 1.665.414-.5-.294-1.375-.971-5.794-1.504-9.82-.534-4.026-1.228-7.738-1.544-8.249-.315-.511-.777-4.641-1.027-9.18-.562-10.243-1.154-15.496-1.878-16.667-.618-1-1.626-12.296-1.926-21.584-.476-14.72-.757-16.036-2.959-13.833m63.974 3.936c-.347 2.532-.393 4.989-.102 5.46.291.47.949 3.686 1.464 7.146.514 3.46 1.386 8.766 1.938 11.791.551 3.025 1.461 9.775 2.021 15 .56 5.225 1.472 11.975 2.026 15a4136.01 4136.01 0 0 1 3.554 20c2.524 14.372 3.276 17.831 5.976 27.5.768 2.75 2.106 8.6 2.972 13 3.48 17.663 5.24 23.5 7.088 23.5 1.977 0 2.442-9.128.499-9.798-.476-.164-.661-1.075-.413-2.026.412-1.574-.709-9.963-2.161-16.176-.606-2.589-2.293-11.288-5.53-28.5a1519.39 1519.39 0 0 0-3.824-19.506c-1.069-5.229-2.254-12.204-2.632-15.5-2.123-18.501-5.661-46.214-6.075-47.592-.382-1.27-4.33-3.902-5.853-3.902-.174 0-.601 2.072-.948 4.603m113.884-2.001c-.938 1.431-2.105 5.369-2.595 8.75-.49 3.381-1.531 9.523-2.314 13.648-.783 4.125-1.734 10.875-2.113 15-.687 7.474-3.617 26.999-5.477 36.5-.538 2.75-2.156 12.2-3.595 21s-2.806 16.9-3.038 18c-2.615 12.417-3.962 23.598-1.809 15.023.5-1.992.907-2.356 1.533-1.368.648 1.022.856.899.868-.512.01-1.272.508-1.668 1.58-1.256 1.2.46 1.419.137.936-1.383-.359-1.133.041-2.94.935-4.216.86-1.228 1.564-3.287 1.564-4.576 0-1.289.413-3.115.918-4.058.504-.943 1.422-5.076 2.04-9.184.618-4.109 1.53-10.17 2.029-13.47.498-3.3 1.379-8.475 1.959-11.5.58-3.025 1.924-11.125 2.986-18 4.404-28.483 4.292-27.974 5.959-27.041 2.062 1.154 7.109-2.437 7.109-5.058 0-4.292-6.883-2.34-7.068 2.004-.047 1.12-.386.935-1.137-.621-.84-1.739-.685-2.804.722-4.951 1.887-2.88 2.612-11.624 1.706-20.583-.548-5.412-1.28-5.838-3.698-2.148M265.272 25c0 2.475.195 3.488.434 2.25.238-1.238.238-3.262 0-4.5-.239-1.238-.434-.225-.434 2.25m-1.546 7.75c-.216.413-.355 2.211-.309 3.997.124 4.846 2.058 4.418 2.244-.497.144-3.776-.851-5.574-1.935-3.5M208 49.706c-2.312.845-6 4.492-6 5.933 0 3.514 10.197 4.73 11.965 1.427 2.651-4.953-.823-9.239-5.965-7.36M34.75 52.572C30.112 55.088 31.413 62 36.526 62c5.068 0 8.105-6.744 4.251-9.443-2.658-1.863-2.566-1.863-6.027.015m225.875 8.553c-.344 1.719-.579 4.981-.523 7.25l.103 4.125.863-3.5c.475-1.925.674-4.048.442-4.718-.233-.67.008-1.484.534-1.809 1.198-.74 1.266-4.473.081-4.473-.481 0-1.156 1.406-1.5 3.125M34.006 103.55c.005 1.894 1.524 8.413 2.668 11.45.311.825.686 2.762.833 4.305.321 3.35 1.445 4.826 1.608 2.112.214-3.559-.221-6.547-2.005-13.789-1.111-4.507-3.113-7.137-3.104-4.078M41 134c0 .55.45 1 1 1s1-.45 1-1-.45-1-1-1-1 .45-1 1m141.079 1.583c.048 1.165.285 1.402.604.605.289-.722.253-1.585-.079-1.917-.332-.332-.568.258-.525 1.312m-141.057 2.084c.012 1.008.853 2.913 1.867 4.232l1.845 2.399-.621-3.817c-.632-3.889-3.131-6.165-3.091-2.814m72.057 19.916c.048 1.165.285 1.402.604.605.289-.722.253-1.585-.079-1.917-.332-.332-.568.258-.525 1.312M90.652 308.115c-2.248 6.962-2.292 12.668-.081 10.456.865-.864 1.914-1.571 2.331-1.571 2.257 0 3.367-4.968 2.111-9.452-1.627-5.812-2.331-5.72-4.361.567m104.929.447c-1.534 1.533-2.179 6.507-.998 7.688 1.078 1.078 4.417-3.225 4.417-5.691 0-3.158-1.426-3.991-3.419-1.997m-88.247 14.382c1.008 12.888 6.733 21.908 18.153 28.601 3.882 2.275 4.974 2.513 7.289 1.589 7.262-2.898 12.524-3.297 20.07-1.52 7.126 1.678 7.468 1.672 10.939-.191 9.408-5.049 16.897-15.944 17.946-26.106.604-5.853.032-6.382-3.409-3.149-2.245 2.108-3.121 2.175-32.065 2.462l-29.757.294-4.874-4.712-4.873-4.712.581 7.444m-7.332 13.554c-2.503 3.016 7.317 17.708 15.498 23.186 11.332 7.589 31.842 10.364 44.558 6.029 12.191-4.157 27.423-15.586 30.078-22.572 1.234-3.244.191-4.052-1.716-1.331-2.171 3.1-3.574 2.774-2.413-.56l.958-2.75-1.732 2.5c-17.706 25.549-55.146 29.167-75.247 7.272-2.639-2.876-5.401-6.589-6.137-8.25-.735-1.662-1.704-3.022-2.152-3.022-.448 0-.537-.45-.197-1 .949-1.535-.1-1.186-1.498.498M133 392.668c-35.597 3.534-59.697 14.592-83.626 38.37C39.831 440.521 26 458.159 26 460.845c0 .44-1.339 3.272-2.976 6.294-3.696 6.824-7.901 17.88-8.963 23.566-.81 4.331.258 6.017 1.444 2.28.351-1.108 1.057-1.756 1.567-1.441.51.316.928.042.928-.607 0-.885.374-.872 1.488.053 1.217 1.01 1.61.895 2.154-.627.367-1.025.849-2.2 1.071-2.613.223-.413-.072-.75-.654-.75-.582 0-1.059.75-1.059 1.667 0 3.242-1.236.378-1.528-3.543-.202-2.704.152-4.149 1.104-4.515 1.058-.406 1.168-1.152.449-3.044-.744-1.956-.598-2.705.665-3.412.898-.502 1.362-1.574 1.042-2.408-.406-1.06.579-1.957 3.346-3.043 2.157-.848 3.922-2.079 3.922-2.737 0-.797-.863-.629-2.594.505-2.561 1.678-2.585 1.669-1.888-.635 1.057-3.492 2.402-4.576 3.508-2.827.519.821.95 1.019.959.442.008-.578-.547-1.646-1.235-2.375-1-1.06-1-1.417 0-1.783.688-.252 1.25-1.07 1.25-1.816 0-2.452 1.497-2.342 1.644.12.08 1.322-.313 2.404-.872 2.404-.641 0-.605.496.097 1.342.612.738.818 1.638.456 2-.362.362-.344.658.041.658.384 0 1.147-1.012 1.694-2.25.956-2.159.973-2.149.423.25-1.767 7.698-.769 8.766 1.516 1.623 1.369-4.282 5.654-11.026 8.971-14.123 5.427-5.067 7.03-6.874 7.03-7.927 0-.624 1.462-1.719 3.25-2.433 2.819-1.126 2.999-1.395 1.356-2.033-1.749-.678-1.681-.903.884-2.921 1.529-1.202 3.139-2.186 3.577-2.186.439 0 1.074-.869 1.411-1.932.338-1.062 2.618-3.106 5.068-4.542 2.45-1.436 4.454-3.068 4.454-3.627 0-.559.39-.776.867-.481.477.295 3.422-1.254 6.545-3.441 3.122-2.187 6.242-3.977 6.932-3.977.691 0 1.796-.54 2.456-1.2.66-.66 1.2-.908 1.2-.551s1.688-.057 3.75-.919c4.729-1.978 25.438-7.303 30.75-7.907 2.2-.25 5.125-.712 6.5-1.027 13.152-3.014 46.953 2.061 65.5 9.834 7.823 3.279 21.498 11.298 21.502 12.61.003 1.069 8.558 6.16 10.353 6.16.905 0 1.645.498 1.645 1.107 0 .636.732.826 1.72.447.945-.363 1.398-.339 1.006.053-.392.393.165 1.329 1.238 2.081 1.214.849 1.715 1.986 1.324 3.003-.42 1.095-.241 1.398.542.914 1.943-1.201 3.442.362 2.006 2.092-1.038 1.251-.924 1.765.643 2.911 2.313 1.692 4.521 1.807 4.521.237 0-.691.735-.49 1.829.5 1.006.91 2.356 1.655 3 1.655.644 0 1.203.563 1.241 1.25.039.688.463.35.942-.75.839-1.927.897-1.914 1.568.335.507 1.696.917 1.978 1.502 1.033 1.266-2.05-10.929-16.595-12.63-15.064-.425.383-.477.179-.115-.454 1.589-2.779-22.592-20.67-37.337-27.625-19.478-9.187-47.894-14.153-69-12.057m0 22.958c-14.531 1.843-32.403 6.533-40.5 10.628C80.801 432.17 59 448.968 59 452.065c0 .514-.342.935-.759.935-.418 0-1.39 1.012-2.161 2.25-1.593 2.558-.199 1.678 4.908-3.099 5.483-5.128 13.521-6.81 17.093-3.578 5.632 5.097.928 21.43-8.513 29.565l-3.062 2.638 3.658 2.158c4.035 2.381 4.644 3.373 4.334 7.066-.522 6.233-1.778 9.104-5.784 13.226l-4.291 4.415 2.36 1.78c2.291 1.728 2.325 1.724 1.164-.135-1.002-1.604-.811-2.33 1.179-4.476l2.374-2.563v2.281c0 1.255-.407 2.029-.905 1.722-.497-.307-.595-.059-.217.552.377.611 1.323.866 2.102.567 1.404-.539 6.74 1.971 9.33 4.388 3.426 3.197 12.479 5.055 26.69 5.476 4.95.147 9.236.579 9.524.961.765 1.012 29.532-27.435 31.403-31.053 2.115-4.089.131-5.261-6.927-4.09-2.75.456-5.495.857-6.1.889-.605.033-2.373 3.098-3.928 6.81-3.457 8.251-7.226 11.941-13.099 12.821-7.346 1.102-16.948-2.096-20.191-6.723-.726-1.035-1.808-1.579-2.405-1.21-.648.401-.799.206-.372-.483.392-.635.356-1.717-.081-2.405-.436-.687-.857-1.587-.934-2-.077-.413-.252-.975-.39-1.25a7.753 7.753 0 0 1-.445-1.25c-.107-.413-.774-2.775-1.484-5.25-5.573-19.445 13.671-44.902 37.857-50.08 24.536-5.253 50.399 6.698 60.425 27.92 3.133 6.631 3.147 6.73 3.078 22.66-.075 17.299-.027 17.094-7.525 32.25l-2.597 5.25h2.168c3.196 0 20.149-8.524 24.698-12.418 2.566-2.196 4.61-3.19 5.879-2.858 2.321.607 2.682-1.868.532-3.652-2.188-1.816-5.586-9.718-5.586-12.99 0-2.904 1.488-5.087 4.799-7.042 1.402-.827 1.459-1.163.323-1.91-.758-.498-1.089-1.374-.736-1.946.354-.572-.355-1.357-1.575-1.744-2.357-.748-5.551-3.44-4.082-3.44.479 0 1.438.563 2.13 1.25 1.01 1.002 1.13.911.608-.462-.359-.941-1.517-1.986-2.574-2.322-1.057-.335-1.676-1.008-1.375-1.495.301-.487-.817-3.304-2.485-6.259-3.908-6.925-4.04-11.775-.398-14.639 3.172-2.496 9.187-2.733 13.444-.532 4.746 2.454 6.276-.858 1.983-4.29-8.323-6.653-28.745-18.612-38.062-22.288-10.913-4.306-39.252-7.827-51-6.337m101.007 14.883c.537.646.68 1.471.318 1.833-.362.362-.161.658.446.658.608 0 1.043-.825.967-1.833-.076-1.009-.716-1.834-1.422-1.834-.871 0-.97.379-.309 1.176m6.302 6.741c.346.962.192 1.75-.34 1.75-1.527 0-1.129 1.724.546 2.367 1.562.6 1.452-3.828-.13-5.24-.387-.345-.421.161-.076 1.123m-108.92 4.238c-14.554 3.166-24.868 12.483-28.993 26.192-1.755 5.83-.061 9.229 6.847 13.747 4.335 2.835 7.044 1.431 13.135-6.805 8.195-11.082 14.729-14.491 24.331-12.693 9.616 1.8 13.675 7.293 12.905 17.466-.813 10.741-3.728 15.355-19.491 30.854-35.382 34.788-41.432 43.368-38.252 54.251l.877 3 1.225-3c.674-1.65 1.321-3.45 1.437-4 .887-4.185 4.029-10.009 8.59-15.918C116.996 540.7 131.019 527 131.997 527c.551 0 1.032-.562 1.066-1.25.035-.687.478-.219.983 1.041.616 1.533.525 2.924-.275 4.204-.658 1.053-.85 2.259-.429 2.681.422.421 1.185.104 1.697-.705.726-1.147.959-.921 1.061 1.029.072 1.375.199 3.175.282 4 .083.825-.339 2.175-.938 3-1.926 2.654-3.69 9.649-2.989 11.857.618 1.949 1.385 2.143 8.453 2.143 4.275 0 15.305.297 24.512.66l16.739.66-.681 6.09c-.844 7.553.842 6.608 2.517-1.41 2.272-10.883 2.526-10.408-5.995-11.172-4.125-.37-14.069-.416-22.097-.103-13.068.509-14.927.374-17.75-1.294-3.484-2.058-3.928-3.543-1.629-5.451.838-.696 1.348-1.442 1.132-1.658-.216-.216.898-1.774 2.476-3.463 1.577-1.689 2.868-3.746 2.868-4.572 0-.9.58-1.278 1.449-.945.972.373 1.265.076.889-.904-.395-1.029-.084-1.278 1.051-.842 1.877.72 2.219-1.16.361-1.984-.776-.344-.671-.47.276-.334 1.76.254 2.342-.218 12.621-10.255 23.83-23.268 30.341-39.448 22.381-55.617-8.396-17.056-29.092-25.605-50.639-20.918m105.611.543c0 .533.675.969 1.5.969s1.5-.177 1.5-.393c0-.216-.675-.652-1.5-.969-.825-.316-1.5-.139-1.5.393M249 451c0 .55.477 1 1.059 1s.781-.45.441-1-.816-1-1.059-1-.441.45-.441 1m6.631 1.788c-.341.552.081 1.271.938 1.6.857.329 1.307 1.004 1 1.5-.307.496.125 1.164.96 1.485 1.196.459 1.307.216.528-1.146-2.165-3.778-2.814-4.429-3.426-3.439m-183.54 2.773a163.363 163.363 0 0 0-.189 4.669c-.016.952-.451 1.991-.966 2.309-.515.319-.9 1.34-.857 2.27.065 1.384.185 1.419.662.191.321-.825 1.161-1.95 1.866-2.5 2.067-1.61 2.627-5.802 1.063-7.939-1.349-1.842-1.428-1.792-1.579 1M251 454c0 .55.477 1 1.059 1s.781-.45.441-1-.816-1-1.059-1-.441.45-.441 1m-183.16 1.911c-2.903 2.284-6.551 8.712-5.525 9.737.941.941 6.29-5.335 7.583-8.898 1.186-3.269 1.084-3.31-2.058-.839m144.16-.805c0 1.408 4.41 4.932 8.711 6.961 1.827.862 2.977 1.946 2.555 2.41-.421.464-.203.52.484.124 2.168-1.247 1.377-3.254-2.753-6.985-3.857-3.484-8.997-4.918-8.997-2.51M33.015 456.75c.012 1.287.231 1.41.83.466.468-.737 1.633-1.016 2.735-.656 1.573.515 1.649.434.42-.45-2.243-1.614-4.002-1.331-3.985.64m215.573-.119c-.373.972.391 2.964 1.893 4.933 1.386 1.816 2.519 3.756 2.519 4.31 0 .554.449 1.285.997 1.624.638.395.7-.214.173-1.691-.453-1.269-.729-3.775-.613-5.57.115-1.794-.257-3.552-.828-3.904-.571-.353-.742-.163-.38.422.361.586.378 1.792.037 2.68-.899 2.344-3.62-.123-2.841-2.576.726-2.288-.092-2.483-.957-.228m7.919 3.358c-.35.566.051.734.941.393 1.732-.665 2.049-1.382.611-1.382-.518 0-1.216.445-1.552.989M54.631 469.25c-2.644 4.205-4.068 9.515-2.932 10.934.615.768.718 2.149.248 3.316-1.378 3.418-.862 5.169.589 2 .756-1.65 1.439-2.325 1.519-1.5.197 2.04 4.831-11.925 4.895-14.75.03-1.34-.547-2.25-1.427-2.25-.812 0-2.114 1.012-2.892 2.25m175.565 3.787c.316 4.371.968 6.609 2.181 7.496 1.227.898 1.365 1.386.475 1.683-.827.276-.895.639-.2 1.069.579.358 1.796.103 2.704-.567 2.356-1.739-.828-15.011-3.733-15.56-1.711-.322-1.838.199-1.427 5.879M264.5 469c.34.55.816 1 1.059 1s.441-.45.441-1-.477-1-1.059-1-.781.45-.441 1M43 470.5c0 .825.436 1.5.969 1.5.532 0 .709-.675.393-1.5-.317-.825-.753-1.5-.969-1.5-.216 0-.393.675-.393 1.5m-3.296 2.828c-2.325 3.55-2.156 4.352 1.046 4.967 1.513.291 2.799.456 2.859.367 1.167-1.726 1.162-5.662-.007-5.662-.789 0-1.606-.511-1.814-1.137-.209-.625-1.146.035-2.084 1.465M24 474.892c0 .674-.445.951-.989.615-.58-.359-.725.074-.351 1.051.592 1.542.705 1.54 1.581-.024.518-.926.676-1.95.351-2.276-.326-.325-.592-.04-.592.634m243.079.691c.048 1.165.285 1.402.604.605.289-.722.253-1.585-.079-1.917-.332-.332-.568.258-.525 1.312M209 479.902c0 1.038 1.902 2.541 2.466 1.948.183-.192-.297-.93-1.067-1.639-.769-.71-1.399-.849-1.399-.309m61 1.98c0 .55.45 1.278 1 1.618.55.34 1 .168 1-.382s-.45-1.278-1-1.618c-.55-.34-1-.168-1 .382m-24.856 3.445c-2.258 2.72-4.14 8.744-4.028 12.891.064 2.355.334 3.382.6 2.282.615-2.545 4.23-6.5 5.939-6.5 1.848 0 2.645-4.08 1.425-7.289-1.138-2.994-2.27-3.392-3.936-1.384m-206.628 1.624C37.39 490.498 42.235 505 44.545 505c2.747 0 1.798-11.753-1.436-17.796-1.46-2.728-3.768-2.855-4.593-.253m21.904 3.913C55.414 493.952 48.778 503 51.52 503c.573 0 5.795-3.384 11.98-7.764 6.549-4.638 3.764-8.592-3.08-4.372m159.613-.114c.038 2.003 3.292 6.25 4.788 6.25.551 0 2.137 1.35 3.526 3 4.078 4.847 8.121 2.74 5.281-2.752-2.904-5.616-13.676-10.764-13.595-6.498m45.002 1.75c.002.55.59 3.25 1.307 6 1.201 4.607 1.394 4.831 2.462 2.85.935-1.733.872-2.26-.322-2.719-.815-.312-1.489-1.37-1.497-2.35-.009-.979-.452-2.456-.985-3.281-.533-.825-.968-1.05-.965-.5M18 494.441c0 .793.45 1.719 1 2.059.55.34 1-.309 1-1.441 0-1.132-.45-2.059-1-2.059s-1 .648-1 1.441m255.643.07c.43 1.12.098 1.355-1.282.906-1.484-.483-1.567-.397-.409.423.799.565 1.741.85 2.093.632.352-.218.666 1.95.696 4.816.053 4.921.015 5.002-.687 1.451-.91-4.606-1.631-5.464-2.334-2.777-.293 1.122-.125 1.789.373 1.48.499-.308.907.34.907 1.44 0 1.1-.45 2.278-1 2.618-.55.34-1-.121-1-1.024 0-.904-.562-1.45-1.25-1.214-.719.246-1.18 1.874-1.085 3.833.091 1.873.494 9.275.895 16.45 2.77 49.504-24.095 95.079-69.521 117.938-55.183 27.77-123.123 10.495-159.826-40.639-3.417-4.76-6.213-9.174-6.213-9.809 0-.634-.45-.875-1-.535-.55.34-1-.271-1-1.358 0-1.086-.393-2.125-.873-2.309-1.072-.409-9.127-21.668-9.127-24.088 0-.96-.477-1.745-1.059-1.745s-.782-.447-.444-.994c.76-1.23-1.45-16.859-2.473-17.491-1.218-.753-.199 14.55 1.363 20.485 2.55 9.688 10.535 27.782 13.958 31.631 1.909 2.148 3.068 3.802 4.842 6.911.928 1.627 1.979 2.733 2.335 2.458.357-.275 1.297 1.043 2.09 2.929 1.831 4.355 19.123 21.345 26.941 26.47 3.271 2.144 7.072 4.652 8.447 5.573 18.181 12.173 59.537 21.808 78 18.172 28.506-5.613 34.796-7.518 47.725-14.45 42.755-22.926 67.881-63.195 67.507-108.194-.073-8.8.2-15.178.607-14.173 1.233 3.04 3.568-2.431 2.871-6.727-.467-2.878-.222-3.62 1.36-4.122 1.062-.337 1.93-1.059 1.93-1.604 0-.546-.515-.674-1.145-.284-.802.495-.975-.16-.578-2.191.662-3.38-1.032-12.399-2.328-12.399-.488 0-.625.68-.306 1.511m-28.603 1.941c-.663.799-1.038 2.261-.834 3.25.27 1.311.685.918 1.53-1.452 1.277-3.578 1.119-3.986-.696-1.798m-227.961 3.131c.048 1.165.285 1.402.604.605.289-.722.253-1.585-.079-1.917-.332-.332-.568.258-.525 1.312M228 504.378c0 .207.787.995 1.75 1.75 1.586 1.243 1.621 1.208.378-.378-1.307-1.666-2.128-2.195-2.128-1.372m-216.921 2.205c.048 1.165.285 1.402.604.605.289-.722.253-1.585-.079-1.917-.332-.332-.568.258-.525 1.312m206.421.385c-1.629.675-1.404.819 1.216.779 1.768-.027 2.979-.431 2.691-.898-.621-1.005-1.237-.986-3.907.119m52.579 1.615c.048 1.165.285 1.402.604.605.289-.722.253-1.585-.079-1.917-.332-.332-.568.258-.525 1.312m-251 1c.048 1.165.285 1.402.604.605.289-.722.253-1.585-.079-1.917-.332-.332-.568.258-.525 1.312m50.577-.038c.304.794.956 1.195 1.449.89 1.24-.766 1.126-1.132-.554-1.777-.967-.371-1.265-.076-.895.887m-37.725 3.584c-.962 1.797-.768 2.459 1.244 4.25 1.311 1.166 3.232 4.046 4.269 6.399 1.037 2.353 2.883 5.278 4.102 6.5 1.219 1.222 2.479 3.122 2.801 4.222.321 1.1.422-.756.225-4.125-.406-6.909-2.255-11.488-6.533-16.171-3.436-3.763-4.564-3.961-6.108-1.075m217.29 1.621c-4.792 6.097-6.221 9.737-6.221 15.841v5.691l3.112-5.891c1.712-3.24 4.667-8.474 6.566-11.63 4.906-8.152 2.234-11.252-3.457-4.011M9.349 520c0 4.675.173 6.587.383 4.25.211-2.337.211-6.163 0-8.5-.21-2.337-.383-.425-.383 4.25m8.34-5.974c-.364 1.361-.619 3.824-.566 5.474.077 2.393.275 2.089.982-1.5.967-4.916.649-7.957-.416-3.974m40.45.797c-2.916 1.937-6.652 7.749-7.344 11.427-.715 3.797.184 3.479 5.554-1.968 4.371-4.433 4.655-4.569 4.721-2.25.106 3.695 1.766-.48 1.86-4.675.084-3.773-1.591-4.659-4.791-2.534m167.14-1.114c-2.163.777.943 15.291 3.272 15.291.275 0-.213-1.38-1.085-3.066-.872-1.687-1.447-4.274-1.276-5.75.306-2.647.344-2.629 2.778 1.316 2.4 3.889 3.39 5.266 5.597 7.785.585.668 1.584 2.115 2.219 3.215l1.155 2 .02-2c.086-8.859-7.799-20.544-12.68-18.791M13.61 519.25c.187 1.513-.099 2.75-.635 2.75-1.819 0-.987 2.573.878 2.714 1.421.107 1.829-.519 1.75-2.689-.057-1.556-.408-2.641-.782-2.412-.373.229-.874-.378-1.115-1.348-.24-.971-.283-.528-.096.985m259.585 6.25c.02 1.65.244 2.204.498 1.231.254-.973.237-2.323-.037-3-.274-.677-.481.119-.461 1.769M17.232 527c0 1.925.206 2.712.457 1.75.252-.962.252-2.538 0-3.5-.251-.962-.457-.175-.457 1.75M67 525.577c0 .563.563 1.629 1.25 2.37 1.02 1.1.929 1.234-.5.732-.963-.339-1.75-.235-1.75.23 0 1.278 2.956 3.468 3.691 2.734.353-.354.091-.643-.583-.643-.674 0-.934-.472-.578-1.049.446-.722 1.035-.727 1.892-.015.895.742 1.245.627 1.245-.408 0-.792-.345-1.227-.765-.967-.421.26-1.471-.535-2.334-1.767-.862-1.231-1.568-1.779-1.568-1.217m71.146 4.747c-.604.728-1.032 3.085-.951 5.237.081 2.152.333 3.354.561 2.67.228-.684.783-1.016 1.232-.738.449.277 1.293-.86 1.875-2.528.626-1.799.666-2.792.097-2.44-.528.326-.96 1.241-.96 2.034 0 .793-.45 1.441-1 1.441-1.401 0-1.251-4.349.2-5.8.66-.66.94-1.2.622-1.2-.317 0-1.071.596-1.676 1.324M129 532.559c0 .857.45 1.281 1 .941.55-.34 1-1.041 1-1.559s-.45-.941-1-.941-1 .702-1 1.559m-69.208 6.209c-2.613 2.802-4.817 6.467-4.76 7.916.017.449.678-.038 1.468-1.082 1.54-2.034 2.55-.681 3.655 4.898.309 1.562.884.999 2.621-2.566 4.027-8.267 1.996-14.506-2.984-9.166m162.815.814c-.334.87-.607 4.07-.607 7.111v5.529l2.076-2.361c1.142-1.299 1.791-1.798 1.441-1.111-.425.837.195 1.25 1.874 1.25 1.38 0 3.01.788 3.622 1.75.909 1.428.997 1.199.479-1.25-.692-3.274-6.219-12.5-7.489-12.5-.434 0-1.062.712-1.396 1.582M31 544.472C31 546.779 45.855 560 48.447 560c1.377 0 .324-3.953-2.014-7.559C42.199 545.911 31 540.128 31 544.472m218.4 1.356c-7.19 5.215-14.259 15.095-13.159 18.394.388 1.166 9.976-6.633 16.671-13.562 3.74-3.871 4.216-4.801 3.127-6.113-1.721-2.073-2.119-1.996-6.639 1.281m-183.307 6.999c-.538 1.005-1.283 4.127-1.656 6.938-.632 4.76-.542 5.075 1.303 4.593 1.562-.409 2.319.293 3.569 3.312l1.588 3.83.051-8.316c.066-10.522-2.191-15.335-4.855-10.357m10.574 18.84c-1.017 1.017-.795 9.333.25 9.333.504 0 1.143-.562 1.421-1.25.277-.687.554 1.225.615 4.25.102 5.061.228 5.345 1.579 3.559 1.422-1.88 1.472-1.865 1.586.5.064 1.342.509.191.988-2.559 1.612-9.257-2.399-17.874-6.439-13.833m130.063 2.451c-.819 1.31-1.746 4.101-2.058 6.201l-.569 3.819 1.929-2.451c2.662-3.384 3.947-7.103 2.989-8.652-.6-.972-1.177-.699-2.291 1.083M43.028 576.75c.069 1.827 16.563 10.361 22.472 11.628 2.882.618 2.804.46-2-4.02-2.75-2.564-6.8-5.484-9-6.488-3.977-1.816-11.526-2.553-11.472-1.12m192.472 1.808c-5.683 2.014-9.511 4.261-13.25 7.778-4.047 3.806-4.178 5.195-.3 3.19 1.623-.839 3.705-1.526 4.626-1.526 2.547 0 17.422-8.324 17.423-9.75.001-1.61-3.438-1.485-8.499.308m-34.452 8.391c-.799.506-1.738.742-2.088.526-2.298-1.42-13.398 16.42-11.436 18.382 1.108 1.108 13.156-13.655 14.776-18.107.733-2.012.698-2.034-1.252-.801m-110.39 1.501c-2.154 5.612 7.249 20.579 11.341 18.051.456-.282 1.096.052 1.422.743.325.691.346-.094.047-1.744-1.649-9.104-11.056-21.623-12.81-17.05m20.967 12.348c-1.009 1.633 8.31 9.598 15.556 13.294 4.523 2.308 4.703 1.792 1.162-3.318-4.753-6.859-14.902-12.915-16.718-9.976m54.557 2.968C161.339 607.019 154 615.451 154 617.764c0 1.393.173 1.394 1.75.003.963-.848 5.939-4.325 11.059-7.726 5.121-3.402 9.136-6.715 8.923-7.363-.753-2.296-5.278-1.781-9.55 1.088m-100.601.103c-.919 1.487 2.395 2.696 14.297 5.217 5.292 1.12 10.488 2.29 11.547 2.598 2.277.664-3.635-4.713-7.302-6.641-3.305-1.737-17.633-2.645-18.542-1.174m142.971.789c-4.38 1.344-14.212 7.087-13.372 7.811.44.38 25.898-5.001 28.07-5.932 7.244-3.107-5.42-4.726-14.698-1.879M112.5 622.819c-3.049.595-12.227 4.93-12.965 6.124-1.358 2.198 17.365-1.214 22.889-4.17 3.771-2.018-2.879-3.327-9.924-1.954m28.5 1.041c0 .473-3.375 3.686-7.5 7.14-12.058 10.096-9.219 10.798 3.379.835 4.297-3.398 8.369-5.835 9.75-5.835 3.433 0 2.912-1.642-.754-2.375-4.13-.826-4.875-.79-4.875.235m26 .223c-3.481 1.458-1.415 2.505 10.876 5.511 11.566 2.828 12.812 2.94 11.204 1.003-3.678-4.432-17.391-8.478-22.08-6.514m-13.471 7.069c.438 2.271 11.622 13.848 13.378 13.848 3.161 0 .386-4.294-6.342-9.816-5.681-4.663-7.34-5.614-7.036-4.032" fill-rule="evenodd"/><path fill="#4fafbc" stroke="#4fafbc" d="M55.454 5c-46.919.651-45.13-.293-44.161 23.296 1.64 39.89 18.24 122.843 33.165 165.72 11.499 33.039 35.072 81.546 45.298 93.212 1.371 1.564 1.172 2.38-2.092 8.592-11.173 21.263-8.412 47.212 6.806 63.969 5.018 5.526 13.346 12.19 17.03 13.628 1.996.78 1.996.783.008 1.932-4.347 2.512-8.409 7.745-9.229 11.89-.77 3.894-1.214 4.361-5.806 6.111-40.912 15.583-74.254 48.985-86.934 87.09C-1.226 512.787-.579 552.552 11.206 583c20.656 53.367 75.334 90.429 133.294 90.349 70.739-.096 128.971-50.275 140.161-120.776 1.996-12.576 1.362-42.244-1.145-53.573-10.94-49.432-46.816-90.939-90.768-105.013-6.693-2.143-6.758-2.198-7.39-6.324-.479-3.129-1.701-5.196-4.918-8.32l-4.281-4.157 5.785-3.57c26.226-16.188 35.458-54.003 18.937-77.565-2.005-2.858-2.809-4.879-2.251-5.653 25.559-35.414 42.319-72.092 55.729-121.954 6.853-25.483 16.355-70.507 18.666-88.444.602-4.675 1.951-14.575 2.997-22 4.615-32.746 3.676-44.901-3.805-49.295C268.93 4.775 143.065 3.785 55.454 5m141.296 6.816c-2.526.291-2.75.669-2.75 4.625 0 2.37-.22 5.828-.49 7.684-.269 1.856.396.45 1.478-3.125l1.967-6.5-.543 5.5c-.799 8.102-2.997 16.014-3.75 13.5-.33-1.1-.417-.312-.193 1.75.223 2.063.034 3.75-.421 3.75-1.098 0-1.792 4.001-3.49 20.116-.781 7.419-1.742 14.769-2.135 16.335-.509 2.026-.384 2.643.431 2.139 1.444-.892 1.448-.997-.385 11.484-1.757 11.967-2.267 13.848-2.42 8.926-.173-5.517-1.753-1.571-2.503 6.249-.356 3.712-1.299 8.31-2.097 10.218-1.65 3.949-2.004 12.519-.373 9.033 1.427-3.05.039 8.747-1.749 14.865-.826 2.824-1.505 6.216-1.51 7.538-.006 1.524-.289 1.951-.774 1.166-.587-.949-.892-.904-1.312.19-.72 1.877-2.18 12.916-1.903 14.395.304 1.629-5.032 21.082-10.795 39.346-9.066 28.735-8.479 26.004-6.567 30.519l1.686 3.981 1.978-3.809c3.072-5.915 16.071-44.776 19.13-57.191 1.898-7.703 2.453-8.497 5.969-8.54l3.271-.04-2.75-1.492c-3.287-1.783-3.298-1.965-.736-11.982 2.4-9.386 2.736-9.808 8.236-10.369.412-.043.75-.752.75-1.577s.787-1.493 1.75-1.485c1.496.013 1.532.157.25.985-1.293.835-1.266.971.191.985 2.311.021 3.161-1.636 1.221-2.38-.866-.333-3.114-.605-4.994-.605-2.882 0-3.416-.353-3.403-2.25.03-4.323.991-4.711 7.998-3.227 3.568.756 10.087 1.62 14.487 1.921 4.4.301 11.825.838 16.5 1.193 4.675.355 10.3.694 12.5.754 2.2.06 4.331.559 4.735 1.109.455.619.74.524.75-.25.008-.687.364-1.25.791-1.25 1.078 0 .229 7.879-.925 8.592-.516.319-1.585.043-2.376-.613-.793-.658-3.239-1.021-5.456-.809-2.211.21-4.019.099-4.019-.249 0-.347-3.037-.92-6.75-1.272-3.713-.353-9.675-.94-13.25-1.305-6.043-.616-6.401-.543-5.092 1.039.955 1.155 1.734 1.375 2.426.683.691-.691 1.432-.676 2.305.049.707.587 4.116 1.312 7.574 1.609 6.899.595 9.795 1.943 7.584 3.532-.924.665-.771.762.534.339 1.007-.327 2.795.08 3.973.905 1.177.825 4.039 1.5 6.359 1.5 5.204 0 5.53.492 3.648 5.503-.826 2.198-1.814 6.024-2.196 8.501-.381 2.478-1.088 5.143-1.57 5.923-.482.781-1.217 3.029-1.632 4.996-.882 4.178-5.421 21.661-6.382 24.577-.416 1.266-.134 1.082.769-.5 3.222-5.646 17.662-51.759 19.258-61.5.36-2.2 1.9-8.95 3.421-15 1.521-6.05 3.533-15.275 4.471-20.5.938-5.225 2.566-14 3.617-19.5 1.05-5.5 2.362-14.5 2.915-20 .552-5.5 1.422-13.375 1.933-17.5 3.542-28.588 3.533-32.39-.078-32.808-2.585-.299-2.646-.186-2.097 3.906l.565 4.213-5.902-.67c-3.247-.369-16.59-.959-29.653-1.312l-23.75-.64v-4.681l21.75.414c13.495.256 19.852.097 16.75-.42-5.052-.842-41.666-1.77-46.75-1.186M21.305 13.648C19.177 19.194 26.685 77.839 33 105c4.268 18.353 4.991 21.56 6.431 28.5 3.456 16.663 18.872 63.317 24.698 74.75 2.348 4.606 3.346 4.948 1.461.5-2.733-6.444-12.511-39.111-13.321-44.5-.483-3.215.095-3.766 3.488-3.323.692.09 2.042-.293 3-.851 1.292-.752 1.37-1.023.302-1.046-1.049-.022-.913-.45.5-1.573 1.804-1.434 1.588-1.514-3.055-1.126-6.236.521-7.504.045-7.504-2.819 0-2.167.547-2.329 11.75-3.473 18.691-1.908 29.455-3.946 30.904-5.852.705-.928 1.297-1.192 1.314-.586.022.753 1.532.858 4.782.333 5.372-.868 8.257-1.846 8.235-2.791-.063-2.628-1.812-2.876-11.485-1.63-5.5.709-14.05 1.575-19 1.925-12.757.902-25.494 2.743-26.134 3.778-.885 1.433-3.366-1.274-3.366-3.672 0-1.216.563-2.224 1.25-2.24.688-.016 4.625-.534 8.75-1.151s14.498-1.546 23.05-2.065c11.216-.681 16.997-1.494 20.74-2.916l5.19-1.972.939 3.65c.517 2.007 1.471 6.35 2.119 9.65.649 3.3 2.02 8.925 3.047 12.5 2.009 6.992 3.64 13.074 7.509 28 6.794 26.211 19.149 56.924 21.823 54.25.32-.321.583.193.583 1.142 0 .949.45 1.448 1 1.108.55-.34 1 .055 1 .879 0 1.898 11.156 23.732 13.923 27.251 1.143 1.452 2.077 3.215 2.077 3.917 0 .703 2.25 3.971 5 7.262 2.75 3.291 5 6.29 5 6.664 0 .375 1.8 3.194 4 6.267 2.2 3.072 3.985 5.175 3.967 4.673-.018-.502-1.334-2.713-2.925-4.913-1.59-2.2-4.56-7.15-6.601-11-2.041-3.85-4.474-8.125-5.406-9.5-.932-1.375-4.528-7.9-7.99-14.5-3.463-6.6-6.62-12.225-7.017-12.5-.396-.275-1.002-1.655-1.347-3.066-.345-1.411-1.469-3.536-2.498-4.723-4.636-5.346-25.103-79.103-29.195-105.211-.646-4.125-2.442-13.35-3.99-20.5s-3.12-15.475-3.494-18.5c-.374-3.025-1.301-7.75-2.06-10.5-1.568-5.681-4.029-21.601-4.946-32-.34-3.85-1.295-11.024-2.122-15.943-.828-4.919-1.363-12.119-1.19-16L96.5 12.5l-5.115-.298c-4.989-.29-5.131-.221-5.725 2.75-.602 3.006-.696 3.048-6.885 3.064-3.451.009-11.45.429-17.775.933-6.325.505-16.675 1.058-23 1.229l-11.5.31-.307-4.244c-.327-4.506-3.507-6.195-4.888-2.596m57.508-.965c.721.289 1.584.253 1.916-.079.332-.332-.258-.568-1.312-.525-1.165.048-1.402.285-.604.604M57 26.129c-3.575.35-11.735.69-18.133.754-10.568.106-11.68.292-12.135 2.033-.884 3.383.903 3.655 15.991 2.433 8.127-.658 21.077-1.514 28.777-1.902 15.169-.764 15.663-.858 14.9-2.846-.556-1.449-16.784-1.71-29.4-.472m148.356.104c-.986 1.596.022 1.744 18.723 2.748 10.132.545 22.246 1.443 26.921 1.997 11.524 1.365 12 1.331 12-.865 0-2.578-2.229-2.875-30-3.993-26.972-1.086-26.903-1.086-27.644.113M71.5 38.06c-6.05.421-18.16 1.252-26.912 1.848-16.914 1.151-17.144 1.2-16.268 3.484.44 1.147 1.307 1.285 3.874.618 1.818-.474 14.986-1.347 29.262-1.941 24.902-1.036 28.584-1.577 27.098-3.982-.723-1.17-.635-1.17-17.054-.027m138.5-.408c0 2.481 2.822 3.349 10.95 3.368 4.703.011 11.336.423 14.741.916C252.34 44.344 262 44.415 262 42.129c0-1.64-.632-2.145-2.75-2.196-1.512-.038-4.1-.24-5.75-.451-1.65-.211-8.175-.595-14.5-.854-6.325-.258-15.437-.797-20.25-1.196-5.355-.445-8.75-.359-8.75.22M191.336 51c0 4.125.177 5.813.392 3.75.216-2.062.216-5.437 0-7.5-.215-2.062-.392-.375-.392 3.75m14.414-2.979c-3.378 2.121-4.749 3.632-4.746 5.231.003 2.016.202 1.922 1.931-.913 1.06-1.738 2.817-3.443 3.906-3.788 1.667-.53 5.161-3.59 4.031-3.532-.204.01-2.509 1.361-5.122 3.002m6.25-1.112c0 .635.648 1.402 1.439 1.706.791.304 1.726 1.862 2.078 3.462.541 2.462.925 2.757 2.495 1.916 3.088-1.652 30.95-.547 39.348 1.561 2.413.606 2.64.405 2.64-2.328v-2.991l-16.25-.598c-20.419-.752-28.907-1.547-30.5-2.855-.871-.716-1.25-.677-1.25.127M72.991 48.55c-.011 1.167-8.857 1.884-23.688 1.922-9.426.023-10.828.221-8.868 1.248 2.67 1.399 3.722 3.511 3.003 6.03-.295 1.034-.036.875.633-.386 1.023-1.929 2.269-2.203 12.781-2.81 14.894-.861 33.441-2.514 33.953-3.025 1.709-1.71-1.85-2.684-8.393-2.296-4.327.256-7.769.01-8.378-.599-.595-.595-1.038-.631-1.043-.084m-40.826 2.823c-2.239 1.08-2.307 1.437-1.65 8.627.377 4.125.753 7.522.835 7.549 1.336.434 41.776-1.996 48.862-2.936 7-.928 10.026-.985 10.835-.201.822.797 1.033.42.788-1.412-.282-2.102-.813-2.463-3.335-2.266-1.65.129-9.75.457-18 .729-8.25.272-16.8.751-19 1.063-8.605 1.221-11.549 1.363-11.035.531.294-.477-1.213-.632-3.349-.346-3.71.498-3.936.366-5.027-2.942-1.394-4.223-.857-5.829 2.685-8.025 3.017-1.871 1.072-2.148-2.609-.371m167.912 8.484c-.592 1.106-1.077 2.414-1.077 2.905 0 .826 16.629 2.308 43.5 3.876 6.05.353 11.966 1 13.147 1.438 2.465.914 3.353.335 3.353-2.184 0-2.642-.295-2.7-17.544-3.434-16.743-.713-35.789-2.624-38.629-3.876-1.152-.507-2.009-.11-2.75 1.275M189.158 71c0 1.375.227 1.938.504 1.25.278-.687.278-1.812 0-2.5-.277-.687-.504-.125-.504 1.25M81.5 72.588c-4.95.716-17.94 1.754-28.866 2.306-20.9 1.057-21.228 1.115-20.289 3.563.748 1.949.588 1.951 30.309-.539 13.665-1.144 26.309-1.848 28.096-1.562 1.851.295 3.25.087 3.25-.485 0-1.531-1.978-4.889-2.785-4.728-.393.078-4.765.728-9.715 1.445m116.5.771c0 2.231.29 2.284 19.25 3.533 10.588.697 23.739 1.656 29.226 2.132 9.624.834 11.444.494 11.509-2.149.025-1.019-5.771-1.874-12.86-1.896-6.295-.02-36.958-2.403-43.875-3.411-2.849-.415-3.25-.194-3.25 1.791M185.158 82c0 1.375.227 1.938.504 1.25.278-.687.278-1.812 0-2.5-.277-.687-.504-.125-.504 1.25m-92.316.491c-.261.261-3.595.722-7.408 1.024-3.814.303-10.534.975-14.934 1.493-4.4.519-12.725 1.224-18.5 1.566-5.775.343-11.625.773-13 .956-1.375.183-2.837.363-3.25.401-.413.038-.75.919-.75 1.958 0 2.173 2.169 2.146 36.545-.45C82.019 88.647 91.807 88 93.295 88c1.98 0 2.705-.504 2.705-1.878 0-1.892-2.278-4.511-3.158-3.631m103.008 1.981c-.448 4.567-3.221 3.991 24.15 5.024 10.725.404 22.81 1.047 26.855 1.427 7.635.718 9.122.064 7.783-3.423-.447-1.166-2.421-1.501-8.857-1.505-8.821-.005-38.444-1.648-45.531-2.525-3.338-.413-4.282-.198-4.4 1.002m-2.222 12.637c-.905 4.527-.833 4.757 1.314 4.196 4.345-1.136 47.956 2.26 54.808 4.269 1.984.581 2.25.301 2.25-2.378 0-3.723-.697-3.906-18-4.725-21.695-1.027-37.253-2.436-38.52-3.487-.908-.754-1.386-.205-1.852 2.125M75.67 96.664c-.749.748-25.769 3.315-32.42 3.326-5.957.01-6.25.124-6.25 2.451 0 3.053 1.175 3.817 4.166 2.707 1.284-.476 9.534-1.166 18.334-1.533 16.635-.693 38.658-2.521 39.465-3.276.255-.239-.02-1.201-.611-2.137-1.014-1.605-21.246-2.977-22.684-1.538m3.217 12.912c-10.237.663-19.912 1.471-21.5 1.796-1.588.324-6.037.87-9.887 1.213-8.603.765-8.619.775-7.342 4.439 1.362 3.906 2.043 4.22 5.471 2.521 1.579-.783 8.721-1.923 15.871-2.534 27.998-2.392 39.5-4.037 39.5-5.649 0-2.654-3.87-2.966-22.113-1.786m112.718.011c-1.121 2.922.58 3.467 13.991 4.484 7.097.539 15.154 1.445 17.904 2.014 2.75.57 8.78 1.254 13.399 1.52 4.62.266 9.163.893 10.097 1.393 3.142 1.681 5.631-3.491 2.754-5.722-.687-.533-3.95-1.052-7.25-1.154-3.3-.101-7.125-.403-8.5-.671-1.375-.269-10.375-.902-20-1.407-9.625-.506-18.45-1.209-19.612-1.562-1.488-.453-2.31-.127-2.783 1.105m-9.85 1.913c-.263 1.375-.09 2.5.384 2.5.473 0 .861-1.125.861-2.5s-.173-2.5-.383-2.5c-.211 0-.599 1.125-.862 2.5m-2.044 6.499c-.288 1.099-.211 2.192.171 2.428.381.236.784-.664.895-1.999.243-2.94-.348-3.177-1.066-.429m9.939 3.177c-1.38 5.152-1.168 5.308 7.604 5.581 10.676.332 45.737 3.773 47.954 4.706 1.302.548 1.869.077 2.385-1.979.778-3.099-.643-4.445-4.717-4.469-1.444-.008-4.538-.69-6.876-1.515-2.98-1.052-8.474-1.513-18.376-1.544-13.011-.04-17.678-.492-24.738-2.399-2.187-.59-2.716-.326-3.236 1.619m-92.908-.584c-.326.325-7.22 1.006-15.322 1.513-8.101.506-15.897 1.119-17.325 1.36-1.427.242-5.97.742-10.095 1.113-12.157 1.091-11.527.893-11.238 3.529.455 4.157 1.137 5.15 2.996 4.362.958-.406 5.117-1.096 9.242-1.534 4.125-.437 11.775-1.26 17-1.827s12.165-1.281 15.423-1.585c17.445-1.631 17.048-1.509 16.178-4.976-.613-2.441-5.096-3.719-6.859-1.955M175.723 135c-.383 1.375-.661 3.625-.619 5 .066 2.152.21 2.034 1.04-.849.531-1.842.809-4.092.62-5-.244-1.167-.549-.918-1.041.849m22.915 5.5c.328.855 1.82 1.5 3.469 1.5 1.905 0 2.893-.512 2.893-1.5 0-1.045-1.052-1.5-3.469-1.5-2.672 0-3.336.344-2.893 1.5m-103.08.407c-.309.498.34.671 1.441.383 2.335-.611 2.63-1.29.56-1.29-.793 0-1.693.408-2.001.907m5.442 11.07c-6.729.782-6.863 4.27-.15 3.917 5.783-.303 7.15-.761 7.15-2.394 0-1.763-1.716-2.136-7-1.523m126.624 51.562c-.965 2.514-.681 3.163.498 1.136.584-1.004.851-2.036.593-2.293-.257-.258-.749.263-1.091 1.157m-3.456 9.41c-.585 1.678-.851 3.051-.591 3.051.675 0 2.562-5.195 2.067-5.69-.227-.227-.891.961-1.476 2.639M68 216.864c0 1.234.964 3.762 3.866 10.136 1.042 2.288 1.085 2.203.503-1-.67-3.688-4.369-11.424-4.369-9.136m126.522 82.886c1.585 3.773 1.603 6.13.062 8.481-.883 1.349-1.714 4.325-1.845 6.614-.206 3.591-.41 3.929-1.489 2.467-1.331-1.805-1.557-1.327-1.301 2.747.089 1.408-.569 5.774-1.463 9.702-5.307 23.332-29.668 36.509-56.85 30.75-17.192-3.642-31.169-19.877-31.793-36.93-.115-3.136-.807-5.545-1.912-6.65-.952-.952-1.737-3.239-1.745-5.081-.007-1.843-.49-4.584-1.072-6.091-.582-1.508-.761-3.533-.399-4.5.57-1.52.438-1.579-.973-.432-3.415 2.776-5.235 11.031-5.239 23.765-.003 12.042.013 12.123 3.829 19.641 4.515 8.895 9.23 14.07 10.705 11.749.518-.815.736-2.044.484-2.732-.701-1.912-.249-1.653 7.343 4.213 9.174 7.088 12.858 8.847 23.024 10.993 23.108 4.879 49.803-8.517 60.246-30.232 1.778-3.698 3.892-7.508 4.698-8.467 2.774-3.3 2.097-19.181-1.107-26.007-2.398-5.107-5.073-8.447-3.203-4M107 321.306c0 9.339 3.452 17.336 10.462 24.24 8.212 8.088 11.068 9.233 17.694 7.093 6.446-2.082 14.164-2.09 20.236-.021l4.748 1.618 5.439-3.746c9.702-6.682 14.411-13.576 16.317-23.888 1.35-7.299.744-8.319-3.048-5.128-1.651 1.389-3.529 2.544-4.175 2.565-.645.022-13.998.182-29.673.357l-28.5.317-4.233-4.357c-5.294-5.448-5.267-5.453-5.267.95m-12 16.753c0 .582.45.781 1 .441s1-.816 1-1.059-.45-.441-1-.441-1 .477-1 1.059m24.648 41.904c-7.223 1.818-8.066 2.354-9.103 5.787-.667 2.208 1.629 3.396 2.824 1.462.268-.434 2.074-.736 4.012-.672 1.939.064 3.294-.258 3.011-.715-.283-.458-1.537-.576-2.787-.262-1.675.42-2.272.137-2.272-1.081 0-1.193.651-1.527 2.342-1.204 1.827.349 2.106.163 1.27-.844-.843-1.016-.041-1.428 3.741-1.927 7.969-1.05 7.961-1.048 5.736-1.659-1.143-.314-5.091.188-8.774 1.115m52.818 1.844c-2.211 1.585-1.14 5.111 1.871 6.161 3.631 1.265 3.981.999 2.795-2.12-1.148-3.02-3.386-4.958-4.666-4.041M131 392.461c-.825.201-5.55.903-10.5 1.561-41.68 5.541-82.041 36.591-100.251 77.125-8.801 19.591-10.71 29.789-10.731 57.353l-.018 24 3.75 6.02c2.062 3.311 3.75 6.728 3.75 7.595 0 .866.86 2.353 1.91 3.304 1.051.95 2.199 2.881 2.553 4.289 2.745 10.936 18.302 33.942 31.555 46.662C79.096 645.4 110.206 658 145.932 658c23.248 0 50.79-8.639 71.068-22.293 16.655-11.213 35.964-33.014 43.349-48.943.952-2.056 2.614-4.209 3.692-4.786 1.077-.576 1.959-1.509 1.959-2.072 0-.563-.526-.699-1.17-.301-.798.493-.957.168-.5-1.023.369-.96.67-1.96.67-2.223 0-.262.399-.23.887.071.488.302.845-.009.794-.691-.185-2.458 1.562-8.739 2.43-8.739.489 0 .889-.927.889-2.059 0-1.132.434-1.791.964-1.464 4.974 3.075 10.064-21.648 8.539-41.477-1.777-23.111-5.189-36.338-14.062-54.5-18.941-38.772-50.7-63.567-93.46-72.966-6.813-1.497-37.05-3.027-40.981-2.073m0 11.065c-.825.162-6.45 1.075-12.5 2.029s-11.45 2.057-12 2.452c-.55.394-2.343 1.039-3.984 1.433-1.642.394-5.367 1.806-8.28 3.138C91.324 413.91 88.504 415 87.97 415c-.533 0-.97.401-.97.892 0 .897-4.789 2.599-6.324 2.247-.454-.104-.554.25-.222.786.331.536-.423 1.515-1.676 2.175-1.253.659-2.524 1.574-2.825 2.031-.301.457-2.585 2.302-5.076 4.1-39.903 28.805-57.953 73.011-50.433 123.519 7.729 51.912 53.655 95.85 106.963 102.332 95.135 11.567 167.922-80.593 133.415-168.927-10.158-26.003-28.6-48.736-49.784-61.368-4.696-2.8-9.438-5.866-10.538-6.813-9.211-7.934-52.747-15.731-69.5-12.448m-2.015 10.224c-.013 1.496-.157 1.532-.985.25-.546-.845-.976-.994-.985-.34-.016 1.222-11.468 3.517-17.822 3.572-2.031.017-3.1.245-2.375.506 1.492.537-8.125 5.269-10.667 5.249-.908-.007.599-1.129 3.349-2.494 7.172-3.559 1.428-1.856-6.808 2.018-3.8 1.788-6.523 3.455-6.05 3.706.472.25.236.295-.524.1-1.31-.337-10.479 4.908-12.618 7.217-.55.594-2.8 2.341-5 3.881-6.875 4.814-23.576 23.09-18.25 19.971.688-.403-1.129 1.811-4.036 4.919-4.24 4.533-10.861 15.416-9.923 16.31.115.109 1.952.347 4.082.527l3.872.329 1.638-6.486c1.976-7.824 2.938-9.266 10.947-16.412 10.55-9.413 16.907-11.611 20.996-7.259 4.904 5.221.511 19.962-8.093 27.153l-4.542 3.797 4.154 3.163c6.474 4.927 6.281 8.786-.927 18.577-4.358 5.92-4.672 7.901-1.266 7.981 2.997.07 2.66 9.631-.558 15.84-1.698 3.278-1.687 3.359.776 5.642 2.662 2.467 4.174 7.91 3.368 12.126-.308 1.61.014 2.758.865 3.085 2.275.873 5.182 6.556 5.924 11.582.576 3.896 1.136 4.868 3.091 5.359 3.072.771 6.738 5.153 8.861 10.592 1.056 2.704 2.94 5.104 5.098 6.493 4.016 2.585 4.222 2.225 1.173-2.05-2.02-2.832-2.25-4.329-2.25-14.654 0-17.059 2.511-20.908 35.548-54.5 10.819-11 20.214-21.039 20.878-22.309 1.535-2.936.488-7.899-1.942-9.199-2.768-1.482-4.309-1.258-2.773.403.709.767 1.627 1.191 2.039.941.412-.25.75.02.75.599 0 .622-1.432.869-3.5.605-2.087-.268-3.5-.019-3.5.615 0 .622-1.419.898-3.417.665-3.092-.361-3.472-.125-3.993 2.482-.706 3.529-9.422 11.661-14.489 13.518-4.062 1.489-12.636.186-16.821-2.556-2.672-1.751-3.082-.638-.53 1.441 1.659 1.351 1.657 1.379-.038.549-.983-.481-3.345-3.972-5.25-7.757-16.631-33.057 27.796-69.167 66.289-53.879 31.128 12.362 41.089 44.509 22.855 73.764-2.533 4.064-4.606 7.685-4.606 8.046 0 .361-.895 1.617-1.989 2.791-2.036 2.185-2.043 3.537-.011 2.281.622-.385 2.452-2.522 4.066-4.75 1.614-2.227 2.934-3.591 2.934-3.031 0 1.264-6.96 10.303-12.422 16.134-4.96 5.296-11.262 9.482-13.171 8.75-.774-.297-1.407-.104-1.407.428 0 .573 5.207.978 12.75.991 21.655.037 25.046 3.093 23.837 21.478-.724 11.002-1.823 15.476-4.915 20l-2.05 3 2.098-1.822c1.153-1.003 2.641-3.134 3.305-4.738.664-1.603 1.554-2.7 1.979-2.438.424.263 2.669-2.036 4.987-5.107 2.442-3.234 5.635-6.177 7.589-6.993 4.881-2.039 6.187-5.392 6.331-16.25.126-9.58.784-11.946 4.437-15.953l2.097-2.302-2.223-6.198c-2.855-7.964-2.798-10.214.34-13.352l2.562-2.562-4.074-6.067c-7.789-11.598-7.643-16.784.529-18.842l4.515-1.137-5.852-5.62c-9.24-8.871-14.854-20.239-12.326-24.962 3.087-5.768 12.294-4.906 20.562 1.927 2.716 2.244 6.141 4.702 7.611 5.462 5.896 3.049 11.178 13.988 9.219 19.093-.509 1.327-.264 1.558 1.1 1.035.966-.371 3.069-.674 4.674-.674 3.875 0 3.754-.518-2.118-9.122-11.104-16.267-13.216-18.872-18.238-22.501C220.763 441.346 209.839 434 209.32 434c-.229 0-2.863-1.565-5.853-3.478-6.103-3.904-16.901-9.506-19.355-10.042-6.63-1.446-16.277-3.909-19.612-5.006-3.932-1.294-3.949-1.32-1-1.536 6.374-.467-8.372-1.743-21.25-1.839-11.985-.09-13.251.068-13.265 1.651m-6.235-.088c.688.278 1.813.278 2.5 0 .688-.277.125-.504-1.25-.504s-1.937.227-1.25.504m8.5.027c.963.252 2.537.252 3.5 0 .963-.251.175-.457-1.75-.457s-2.713.206-1.75.457m36.941.835c.71.71 14.463 4.492 16.046 4.413 1.834-.092-12.377-4.835-14.654-4.89-1.054-.026-1.68.189-1.392.477M188 420.5c1.375.786 3.175 1.427 4 1.425.825-.002-.014-.661-1.865-1.464-4.258-1.849-5.401-1.828-2.135.039M65.732 441.536c-3.618 2.459-4.532 3.507-2.982 3.423.826-.044 7.966-5.959 7.194-5.959-.264 0-2.159 1.141-4.212 2.536m70.804-1.434c-17.208 2.537-28.254 10.755-33.691 25.065-2.787 7.333-2.436 9.581 2.185 13.976 7.509 7.143 11.068 6.383 17.945-3.832 7.37-10.946 15.308-14.927 24.716-12.394 9.404 2.532 12.937 8.392 11.287 18.719-1.56 9.766-2.492 11.041-24.387 33.364-30.957 31.563-33.642 35.313-33.521 46.815.068 6.452 1.69 13.831 1.86 8.46.062-1.969.365-2.113 2.635-1.25 3.744 1.423 76.116 1.3 77.001-.132.473-.765.885-.781 1.335-.053 1.72 2.783 2.632-1.01 2.283-9.498-.46-11.208 1.793-10.311-25.934-10.328-17.49-.012-21.25-.26-21.25-1.407 0-.766-.719-1.669-1.598-2.006-2.025-.777-.32-2.79 20.023-23.648 8.34-8.55 16.493-17.325 18.119-19.499 1.626-2.174 3.782-4.853 4.791-5.953 6.13-6.685 7.454-24.714 2.496-34.001-8.416-15.767-27.768-25.129-46.295-22.398m-67.665 14.569C64.22 457.582 61 463.74 61 469.723v5.323l2.75-1.71c4.818-2.997 6.408-4.721 8.917-9.668 4.069-8.025 2.101-12.688-3.796-8.997m142.506-.212c-.884 2.305 1.575 8.606 5.432 13.913 3.272 4.502 3.641 4.734 4.869 3.053 1.032-1.41 1.597-1.55 2.526-.621 1.866 1.866 2.796 1.422 2.796-1.336 0-2.956-2.361-8.994-4.214-10.774-5.621-5.403-10.295-7.138-11.409-4.235m18.658 11.999c-2.45 2.951.766 18.067 4.613 21.681l2.352 2.21v-6.493c0-11.047-3.982-20.993-6.965-17.398M54.82 467.75c-3.26 3.827-5.298 12.461-4.316 18.276.778 4.601 1.741 4.374 4.515-1.062 5.578-10.936 5.429-23.824-.199-17.214m188.839 19c-3.447 6.81-3.949 10.21-2.638 17.872l1.26 7.367 2.492-2.689c3.776-4.074 5.227-8.535 5.227-16.068 0-9.094-3.307-12.475-6.341-6.482m-205.111-.828c-3.291 5.325-.284 20.497 4.654 23.479 2.593 1.567 3.17.199 3.237-7.673.095-11.2-4.745-20.895-7.891-15.806m21.218 5.11c-5.664 3.752-7.655 6.714-9.318 13.869-1.499 6.449-1.329 6.914 1.771 4.854 7.888-5.244 16.754-16.777 15.469-20.124-.903-2.354-2.746-2.028-7.922 1.401m160.484-2.37c-1.981.8-1.575 1.852 4.125 10.688 4.605 7.139 10.266 12.65 12.993 12.65 1.488 0 .423-6.906-1.802-11.685-1.659-3.564-3.923-6.292-7.24-8.725-4.828-3.542-5.737-3.871-8.076-2.928M256.705 495c-1.634 4.583-1.556 9 .158 9 .955 0 2.324.563 3.042 1.25 1.068 1.023 1.174.613.583-2.25-1.137-5.503-3.153-9.766-3.783-8m-227.427 4c-2.633 6.512-2.647 7.25-.127 6.474 3.228-.993 3.191-.903 2.105-5.17-.952-3.743-.984-3.764-1.978-1.304M124 498c0 .55-.675 1-1.5 1s-1.5.45-1.5 1c0 1.469-7.878 1.136-12.5-.529-5.158-1.858-5.239-1.84-2.27.496 3.782 2.974 9.962 3.613 15.285 1.58 3.928-1.5 6.264-4.547 3.485-4.547-.55 0-1 .45-1 1m-69.971 4.961c-.809.512-1.211 1.191-.893 1.509.319.318 1.148-.108 1.844-.946 1.443-1.738 1.166-1.902-.951-.563M230.5 505c.995 1.1 2.035 2 2.31 2 .275 0-.315-.9-1.31-2-.995-1.1-2.035-2-2.31-2-.275 0 .315.9 1.31 2m19.173 8.94c-5.462 6.046-6.426 8.685-6.816 18.67l-.357 9.11 2.188-1.434c5.537-3.631 10.029-12.207 11.373-21.716 1.317-9.32-.778-10.839-6.388-4.63m-218.336-1.376c-1.752 4.567 4.364 23.148 7.254 22.039.634-.243 2.133.885 3.331 2.505 3.236 4.377 4.401 2.763 3.594-4.981-1.363-13.089-11.367-26.891-14.179-19.563m24.959 3.686C51.236 521.562 49 526.767 49 533.235c0 7.073.457 7.111 6.159.506 8.995-10.419 11.601-20.634 5.287-20.726-.579-.008-2.447 1.447-4.15 3.235m167.914-2c-3.469 4.188 9.637 30.782 13.563 27.523 2.358-1.957.909-14.933-2.273-20.364-4.018-6.855-8.951-9.984-11.29-7.159m-199.164 16.5c-.025 4.538.067 8.243.204 8.235 2.4-.145 7.716-2.888 6.752-3.484-.686-.424-2.522-3.523-4.079-6.886l-2.831-6.115-.046 8.25m234.418-.271-3.037 6.362 3.287 2.622 3.286 2.622v-9.042c0-4.974-.113-9.017-.25-8.984-.137.032-1.616 2.921-3.286 6.42m-87.628-2.6c-.885 1.033-2.223 2.097-2.972 2.363-.75.266-1.063.809-.695 1.207s2.123-.666 3.899-2.363c1.776-1.697 2.812-3.086 2.303-3.086-.51 0-1.65.845-2.535 1.879m-110.958 9.419c-6.057 4.612-8.59 14.493-5.78 22.553 1.352 3.877 2.47 4.01 3.372.399.377-1.513 2.001-5.75 3.608-9.418 4.392-10.022 3.747-17.3-1.2-13.534m161.19 2.575c-3.118 5.826 1.046 25.86 5.107 24.571 1.029-.326 1.825-.088 1.825.548 0 2.989 1.993-.642 2.991-5.449 1.324-6.376.303-10.901-3.826-16.967-3.202-4.705-4.676-5.358-6.097-2.703m-190.996 3.54c-3.835 4.621 10.617 23.01 18.909 24.059 3.037.385 3.171.265 2.549-2.283-1.1-4.511-5.517-13.546-7.838-16.031-4.065-4.354-11.997-7.7-13.62-5.745m217.882 2.031c-7.352 4.824-12.906 13.223-14.513 21.949l-.717 3.893 2.888-.721c7.377-1.842 17.159-12.288 19.441-20.761 1.916-7.117-.57-8.644-7.099-4.36M66.083 552.4c-.639.769-1.887 5.163-2.774 9.763-1.857 9.635.059 17.213 4.437 17.543 2.567.193 3.128-1.635 3.919-12.778.867-12.219-1.78-19.109-5.582-14.528m182.417 4.058c-2.75 2.845-6.561 6.356-8.47 7.804-1.908 1.448-3.157 2.944-2.777 3.325 1.327 1.326 11.555-7.501 15.489-13.368 2.699-4.027.897-3.075-4.242 2.239M31 562.977c0 1.507 4.769 6.928 5.506 6.26.447-.406.578-.062.291.763-.288.825-.87 2.625-1.295 4l-.772 2.5 2.713-2.692 2.713-2.692-4.578-4.386C33.06 564.317 31 562.628 31 562.977m186.655-.227c-1.01 1.636-1.07 17.612-.067 17.946 2.058.686 4.607-10.257 3.418-14.675-1.015-3.768-2.281-5.004-3.351-3.271m34.243 5.705c-3.569 3.27-3.582 3.312-1.769 5.67 1.005 1.306 1.837 3.012 1.849 3.792.045 2.912 1.215.059 2.491-6.076 1.594-7.666 1.801-7.393-2.571-3.386m-175.923 4.11c-3.322 8.738 2.758 29.102 7.326 24.534 1.804-1.804.378-22.697-1.706-24.997-2.544-2.807-4.436-2.651-5.62.463m108.589.142c-.542 1.425-.428 1.54.56.56.684-.679.991-1.486.683-1.793-.308-.308-.867.247-1.243 1.233m21.637 1.031c-1.074 1.519-2.287 4.337-2.695 6.262-1.068 5.031-2.316 7-4.438 7-3.695 0-14.068 15.836-14.068 21.478 0 3.974 10.381-.929 13.637-6.441.987-1.67 2.156-3.037 2.598-3.037.442 0 .529-1.092.194-2.428-.335-1.335-.125-3.247.468-4.25.955-1.614 1.05-1.537.84.678-.337 3.55 2.21 3.202 4.811-.658 1.725-2.559 2.152-4.778 2.253-11.713.138-9.459-.679-11.023-3.6-6.891M43.75 575.58c-1.307 1.313-.809 4.42.708 4.42.802 0 3.305 1.757 5.562 3.905 4.82 4.584 7.618 5.798 14.691 6.371l5.211.423-2.093-2.938c-5.143-7.223-21.018-15.254-24.079-12.181m22.853.253c-.283.459.14.834.941.834.801 0 1.456-.375 1.456-.834 0-.458-.423-.833-.941-.833s-1.173.375-1.456.833m167.492 3.009c-7.816 2.89-14.368 7.799-17.402 13.038l-1.806 3.12 5.806-.01c6.411-.011 14.382-3.105 17.751-6.891 1.784-2.005 1.795-2.128.134-1.49-3.107 1.192-.012-3.333 3.533-5.166 2.025-1.047 2.856-2.088 2.47-3.092-.32-.833-.581-1.703-.581-1.933 0-.891-2.782-.21-9.905 2.424m-143.747 9.693c-1.533 3.996 3.232 15.267 8.969 21.215 6.707 6.953 8.199 5.426 4.755-4.864-4.378-13.076-11.654-21.745-13.724-16.351m169.889 2.225c-1.168 2.491-1.14 2.572.366 1.066.896-.896 1.464-2.109 1.263-2.695-.201-.586-.935.147-1.629 1.629m-35.136.28c-2.419 1.097-4.18 2.215-3.912 2.482.718.718 7.079-1.568 8.775-3.153 2.046-1.912.299-1.671-4.863.671M109 591c0 .55 1.076 1 2.391 1 6.374 0 14.881 6.256 23.344 17.168 5.962 7.685 10.499 9.079 13.441 4.128 3.279-5.518 14.921-16.167 19.684-18.005l4.64-1.791-5.5-.573c-3.025-.315-13.825-.658-24-.762-10.175-.103-21.2-.63-24.5-1.171-7.597-1.244-9.5-1.243-9.5.006m-44.731 3.693c.973.254 2.323.237 3-.037.677-.274-.119-.481-1.769-.461-1.65.02-2.204.244-1.231.498m-17.254 3.335c.597 1.115 1.508 1.767 2.024 1.448.516-.319.735.006.488.722-.248.716 1.398 3.327 3.658 5.802 3.693 4.043 4.044 4.228 3.461 1.819-.357-1.474-.2-3.862.349-5.307.55-1.444.652-2.412.229-2.15-.424.262-3.01-.609-5.747-1.934-6.018-2.914-5.797-2.894-4.462-.4m191.989.468c-1.29 1.373-2.093 2.749-1.784 3.058.309.308 1.542-.815 2.739-2.496 2.637-3.704 2.224-3.946-.955-.562m-5.254 1.294c-1.309.267-1.75 1.346-1.75 4.283 0 4.506.778 4.857 3.244 1.466 2.063-2.838 1.166-6.291-1.494-5.749M111 601.566c0 5.421 13.139 16.324 19.77 16.406l2.271.028-1.932-3.75c-2.24-4.346-7.305-9.756-11.609-12.4-3.759-2.309-8.5-2.467-8.5-.284m50.657 5.436c-6.003 5.615-9.715 11.273-8.316 12.673.336.335 1.239.089 2.006-.548.768-.637 3.718-1.848 6.556-2.691 6.829-2.028 16.428-11.474 14.624-14.392-1.992-3.224-8.411-1.084-14.87 4.958m-96.99-3.335c-1.151 1.15-.729 2.333.833 2.333.825 0 1.388.473 1.25 1.052-.138.578 2.156 2.085 5.097 3.348 2.941 1.262 5.645 2.778 6.01 3.369.365.59 2.009 1.364 3.653 1.721l2.99.649-2.317-2.034-2.316-2.033 2.316-.563c1.275-.31 4.791.087 7.816.882 3.024.795 5.594 1.35 5.71 1.233.49-.49-10.761-8.693-13.189-9.617-2.949-1.12-16.809-1.385-17.853-.34m144.333.268c-7.637 2.332-14.727 7.729-13.692 10.424.646 1.685 10.43 3.303 11.784 1.949.541-.541-.604-.788-2.843-.613l-3.749.293 4-1.389 4-1.389-3.917-.105c-5.359-.144-4.219-.83 2.417-1.455 10.604-.999 19.283-4.765 17.527-7.606-.733-1.186-11.745-1.264-15.527-.109m-11.187 9.748c.721.289 1.584.253 1.916-.079.332-.332-.258-.568-1.312-.525-1.165.048-1.402.285-.604.604m-65 8c.721.289 1.584.253 1.916-.079.332-.332-.258-.568-1.312-.525-1.165.048-1.402.285-.604.604M110 622.935c-10.134 3.094-15.012 8.894-6.393 7.601 6.761-1.014 19.739-4.523 20.885-5.647 2.49-2.442-8.179-3.881-14.492-1.954m29.812 1.811c-1.272 1.379-6.362 5.648-11.312 9.485-10.016 7.766-11.093 9.032-9.093 10.691 1.096.91 3.308-.465 10.737-6.674 5.146-4.301 10.83-8.91 12.631-10.241l3.276-2.421 10.224 10.179c7.289 7.255 10.615 9.935 11.582 9.331 1.795-1.12.615-4.773-1.994-6.169-1.101-.589-4.339-3.176-7.196-5.749-2.857-2.573-6.314-5.426-7.681-6.339l-2.486-1.661 3.5-1.55c2.413-1.069 2.879-1.557 1.5-1.574-1.1-.013-2.608.362-3.352.833-.743.471-2.852.518-4.687.104-2.819-.636-3.695-.363-5.649 1.755m25.509.004c-1.045.962-1.711 1.653-1.479 1.535.231-.118 1.305.258 2.385.837 2.198 1.176 21.005 5.878 23.511 5.878 2.747 0-2.636-4.981-8.238-7.623-6.102-2.877-13.427-3.161-16.179-.627m32.006 6.182c.697 2.61 1.476 3.697 2.396 3.344 1.119-.429 1.087-.829-.18-2.228-.849-.938-1.543-2.206-1.543-2.818 0-.611-.384-1.349-.852-1.639-.469-.29-.388 1.214.179 3.341m-92.565 3.775c1.244.239 3.044.23 4-.02s-.062-.446-2.262-.435c-2.2.011-2.982.216-1.738.455" fill-rule="evenodd"/><path fill="#30718e" stroke="#30718e" d="M20.256 5.969C10.155 8.385 8.924 18.048 13.975 55.284c13.266 97.802 36.871 171.494 72.649 226.801 4.425 6.841 5.211 9.281 3.357 10.427-1.857 1.148-5.973 10.355-7.473 16.719-5.644 23.937 4.343 48.364 25.242 61.745 5.714 3.658 6.262 4.568 3.312 5.504-3.242 1.029-8.004 7.303-8.66 11.41-.612 3.824-.652 3.853-11.075 7.946C18.078 424.598-17.225 508.73 12.162 584.5c20.039 51.668 74.881 88.514 131.719 88.496 71.973-.023 129.371-49.782 140.723-121.996C295.053 484.541 254.69 414.883 194 394.638c-6.393-2.133-7.628-2.918-8.365-5.32-1.974-6.429-3.815-9.513-6.637-11.119-4.034-2.296-3.784-3.286 1.545-6.112 26.285-13.944 36.392-50.956 20.915-76.587-2.252-3.73-3.308-6.456-2.79-7.206 39.284-56.926 61.643-122.119 75.384-219.794 6.148-43.702 6.131-54.076-.095-60.042L270.869 5.5l-123.685-.154c-68.026-.084-125.144.196-126.928.623m.072 7.354C18.262 14.94 18 15.983 18 22.601 18 49.516 28.2 108.909 40.909 156c1.559 5.775 3.402 12.975 4.096 16 1.713 7.461 6.582 17.171 5.39 10.75-.288-1.556-.07-1.374.706.588.779 1.965.804 3.157.083 3.878-.615.615-.695 1.704-.196 2.662C52.92 193.59 55 198.89 55 200.101c0 1.035.253 1.046 1.242.057.988-.988.938-1.433-.25-2.184-1.299-.821-1.286-.945.097-.959 1.458-.014 3.911 3.768 3.911 6.031 0 .523 1.844 5.047 4.099 10.054 2.746 6.099 3.958 10.059 3.673 12.001-.234 1.595-.054 2.899.401 2.899s.827.75.827 1.667c0 .916.302 1.365.67.996.691-.691 6.252 10.857 6.302 13.087.015.688.508 1.25 1.095 1.25.606 0 .826.973.51 2.25-.307 1.238-.294 1.669.029.958.917-2.014 2.978.22 5.899 6.394 1.405 2.969 2.99 5.398 3.524 5.398.534 0 .971.427.971.95 0 2.169 7.498 11.084 7.864 9.351.2-.949-.12-1.886-.712-2.084-.592-.197-2.049-1.933-3.238-3.857l-2.162-3.498 2.124-1.488c1.168-.818 2.124-2.002 2.124-2.631 0-.826-.333-.81-1.2.057-2.119 2.119-4.581 1.291-6.789-2.282-2.693-4.358-2.004-5.514 3.298-5.533 2.305-.008 6.891-.644 10.191-1.414 6.515-1.519 18.383-2.927 22.7-2.693 5.215.283 12.8-3.99 12.8-7.21 0-.866-13.465.4-20 1.879-7.909 1.791-32.017 4.638-33.75 3.986-.687-.259-1.25-1.352-1.25-2.43 0-1.652.902-2.049 5.75-2.533 9.043-.902 31.009-4.587 39.25-6.585 8.101-1.964 10-1.349 10 3.238 0 1.012.634 2.083 1.41 2.381 4.239 1.626 1.081 9.791-13.884 35.896-10.392 18.129-11.741 21.267-11.008 25.609.362 2.14 1.068 3.891 1.57 3.891s.912 1.527.912 3.393c0 2.9 1.289 4.607 3.479 4.607 1.109 0-.295-6.85-1.729-8.439-5.377-5.955-.344-8.289 20.6-9.552 9.068-.547 19.493-1.42 23.166-1.94 9.487-1.343 14.649 1.234 11.755 5.869-.851 1.362-.518 1.907 1.792 2.929 2.519 1.116 2.87 1.837 3.137 6.445l.3 5.188 2.246-3.5c2.79-4.347 2.824-6.39.169-10.12-1.147-1.61-3.864-7.028-6.037-12.038-5.565-12.832-8.912-18.349-10.114-16.672-.701.978-.797.85-.365-.483.765-2.363-1.846-7.532-5.399-10.687-2.49-2.212-12-19.085-12-21.293 0-1.895 2.775 2.189 5.867 8.635 1.806 3.763 3.471 6.654 3.701 6.423.23-.23-.703-2.744-2.075-5.587-1.371-2.842-2.493-5.472-2.493-5.844 0-.372-.603-1.387-1.34-2.255-.736-.869-2.356-4.149-3.6-7.29-2.304-5.82-5.022-9.371-5.099-6.661-.022.754-.697-.142-1.5-1.993-1.876-4.321-1.814-5.332.131-2.135l1.522 2.5-.612-3c-1.697-8.313-2.79-11.091-3.412-8.674-.473 1.84-1.094.761-2.973-5.166-1.513-4.769-2.133-8.462-1.706-10.16.425-1.696.301-2.44-.342-2.043-1.313.812-2.441-3.71-1.592-6.385.385-1.213.215-2.072-.41-2.072-.587 0-1.06-1.012-1.051-2.25.025-3.506-4.299-20.693-5.084-20.208-1.013.626-2.92-7.647-3.422-14.851-.238-3.405-1.807-12.941-3.487-21.191-1.681-8.25-4.153-21.075-5.493-28.5-1.341-7.425-3.1-16.425-3.909-20-.809-3.575-2.207-12.8-3.106-20.5-.899-7.7-2.259-17.6-3.023-22-.764-4.4-1.661-10.7-1.993-14-.332-3.3-.826-7.061-1.098-8.358l-.493-2.359-37.126.359c-34.082.329-37.317.507-39.454 2.181m173.33-.178c-.347 1.295-.637 4.105-.644 6.244-.008 2.139-.896 9.114-1.975 15.5-1.078 6.386-2.683 17.461-3.565 24.611-.883 7.15-3.135 21.325-5.006 31.5-1.87 10.175-4.514 24.8-5.875 32.5-4.756 26.905-10.267 48.266-20.253 78.5-1.888 5.715-4.363 14.882-4.266 15.799.041.385.945-1.099 2.009-3.299l1.934-4-.551 4c-.304 2.2-1.264 6.046-2.133 8.546-1.517 4.361-1.491 4.725.646 8.913l2.228 4.366 2.108-3.688c1.439-2.519 2.595-3.502 3.644-3.099 2.678 1.027 10.221 2.292 20.541 3.445 14.671 1.637 23.503 3.11 27.856 4.644 5.483 1.932 6.3.944 10.7-12.943 1.29-4.071 2.622-6.638 3.307-6.375 1.3.499 3-1.168 3.415-3.348.154-.804.66-2.361 1.126-3.461.466-1.1 2.081-6.5 3.589-12 2.879-10.498 5.112-15.862 6.3-15.128.389.24.765-.533.836-1.717.627-10.451 4.026-20.558 6.682-19.864 1.654.433 1.906.147 1.44-1.634-.355-1.358-.178-1.921.477-1.516.677.418.864-.543.535-2.749-.278-1.866-.115-4.43.363-5.699.561-1.491.515-2.089-.129-1.691-1.109.685-1.376-.79-.332-1.834.366-.366.787-1.807.936-3.204.149-1.397 1.157-3.31 2.239-4.252 1.9-1.652 4.342-10.621 5.776-21.212.335-2.475 1.009-5.258 1.497-6.184.488-.927.887-2.92.887-4.429 0-1.51.426-4.127.946-5.816 2.042-6.631 6.397-31.375 7.668-43.571.373-3.575.83-7.625 1.015-9 .185-1.375.561-6.729.834-11.897.274-5.169.732-9.631 1.017-9.917.286-.286.52-3.3.52-6.698 0-9.854 2.371-9.268-40.621-10.036l-37.091-.663-.63 2.356M27 30.969c0 .532.675.709 1.5.393.825-.317 1.5-.753 1.5-.969 0-.216-.675-.393-1.5-.393s-1.5.436-1.5.969M41 117c0 .55.45 1 1 1s1-.45 1-1-.45-1-1-1-1 .45-1 1m2.28 12.341c.563 1.689 2.173 1.78 4.26.24 1.847-1.362 1.772-1.44-1.322-1.36-1.806.047-3.127.551-2.938 1.12m199.989-.648c.973.254 2.323.237 3-.037.677-.274-.119-.481-1.769-.461-1.65.02-2.204.244-1.231.498M47 141.861c0 .474 1.125.647 2.5.384s2.5-.651 2.5-.862c0-.21-1.125-.383-2.5-.383s-2.5.388-2.5.861m194-.468c0 .216.675.652 1.5.969.825.316 1.5.139 1.5-.393 0-.533-.675-.969-1.5-.969s-1.5.177-1.5.393M50 153.692c0 .962.785 1.158 2.75.686 3.769-.904 3.8-1.07.296-1.585-2.107-.309-3.046-.032-3.046.899m188-.299c0 .216.675.652 1.5.969.825.316 1.5.139 1.5-.393 0-.533-.675-.969-1.5-.969s-1.5.177-1.5.393M53 165.5c0 1.687 1.126 1.951 2.55.597.522-.497 1.85-1.119 2.95-1.384 1.13-.272.368-.531-1.75-.597-2.718-.084-3.75.297-3.75 1.384m126 3.5c0 .55.45 1 1 1s1-.45 1-1-.45-1-1-1-1 .45-1 1m4 1c.825.533 2.4.945 3.5.914l2-.055-2-.859c-2.99-1.285-5.488-1.285-3.5 0m59.272 6c0 2.475.195 3.488.434 2.25.238-1.238.238-3.262 0-4.5-.239-1.238-.434-.225-.434 2.25M56 176.519c0 1.152.664 1.358 2.75.851 6.196-1.504 6.836-2.242 2-2.307-3.61-.048-4.75.302-4.75 1.456m174-.483c2.048.486 3.894.444 4.45-.103.59-.58-.734-.894-3.5-.831l-4.45.103 3.5.831m-180.921 2.547c.048 1.165.285 1.402.604.605.289-.722.253-1.585-.079-1.917-.332-.332-.568.258-.525 1.312m192 4c.048 1.165.285 1.402.604.605.289-.722.253-1.585-.079-1.917-.332-.332-.568.258-.525 1.312M130 189.441c0 .793.408 1.693.907 2.001.498.309.671-.34.383-1.441-.611-2.335-1.29-2.63-1.29-.56m-49.187 2.242c.721.289 1.584.253 1.916-.079.332-.332-.258-.568-1.312-.525-1.165.048-1.402.285-.604.604M65.5 193.878c-2.532.542-4.159 2.693-2.5 3.307 1.355.501 7.067-2.268 6.516-3.159-.349-.564-.72-.973-.825-.908-.105.065-1.541.407-3.191.76m52.5 2.915c-16.937 2.187-52.006 8.353-51.985 9.14.079 2.916 1.896 3.126 10.079 1.171 4.623-1.105 12.006-2.499 16.406-3.099 4.4-.599 10.925-1.725 14.5-2.501 3.575-.776 8.219-1.526 10.32-1.667 2.101-.14 3.984-.52 4.184-.844.796-1.288-1.142-2.504-3.504-2.2m53 2.062c0 .63.563 1.179 1.25 1.222.688.042 2.15.291 3.25.554 1.1.263 6.05.895 11 1.404 13.561 1.395 34.913 5.535 37.166 7.206.767.569 1.397.137 1.841-1.264.372-1.17.522-2.215.334-2.322-2.935-1.675-10.078-2.883-22.341-3.776-8.25-.602-15.81-1.524-16.801-2.049-2.891-1.533-15.699-2.329-15.699-.975m-58.5 9.267c-2.75.488-11.75 2.047-20 3.466-20.423 3.512-22.701 4.148-22.281 6.221.413 2.034.591 2.023 17.791-1.152 7.43-1.371 19.018-3.061 25.75-3.755 12.055-1.242 13.77-1.972 11.04-4.702-1.353-1.353-4.974-1.376-12.3-.078m54.567.752c-.91 1.702-.681 2.047 1.69 2.535 3.583.739 32.245 5.221 38.955 6.092 2.867.372 6.808 1.49 8.758 2.483l3.544 1.808.628-2.504c.735-2.926-.798-4.25-4.945-4.273-1.541-.008-5.816-.665-9.5-1.46-3.683-.795-12.997-2.403-20.697-3.574-7.7-1.171-14.76-2.342-15.689-2.603-1.005-.282-2.116.324-2.744 1.496M136 215.5c0 .825.436 1.5.969 1.5.532 0 .709-.675.393-1.5-.317-.825-.753-1.5-.969-1.5-.216 0-.393.675-.393 1.5m27.074 5.237c-1.516 3.328-1.595 3.263 3.948 3.263 4.495 0 32.217 4.476 43.808 7.074 4.756 1.066 6.88.219 5.894-2.351-.558-1.455-17.621-5.029-40.9-8.568l-11.676-1.774-1.074 2.356m-42.574-.159c-3.85.669-11.275 1.508-16.5 1.863-10.943.743-28.104 3.411-29.343 4.561-1.425 1.324 1.266 4.998 3.66 4.998 1.236 0 4.708-.699 7.715-1.553 5.129-1.456 20.078-3.518 36.751-5.069 8.12-.755 8.989-1.306 6.462-4.094-1.622-1.788-2.24-1.838-8.745-.706m39.5 17.493c0 3.235 4.841 5.793 12.042 6.362 13.003 1.028 18.321 1.726 23.458 3.077 2.75.723 6.238 1.588 7.75 1.922 2.97.655 3.664 3.199 1.5 5.493-1.009 1.069-.96 1.245.25.91 2.727-.755 8.242-13.835 5.833-13.835-.458 0-.833.501-.833 1.114 0 .754-1.464.893-4.544.432a193.257 193.257 0 0 0-9.25-1.109c-2.588-.235-9.656-1.307-15.706-2.383-13.48-2.395-20.5-3.074-20.5-1.983m-86.535 6.679c.873 1.787 1.8 3.25 2.061 3.25.994 0 .354-1.593-1.608-4l-2.038-2.5 1.585 3.25m45.035 5.687c-7.398 1.124-8.764 2.652-3.289 3.681 3.06.576 3.098.628.539.75-1.513.073-2.75.596-2.75 1.163 0 2.406 7.037.526 10.184-2.721 3.969-4.095 3.849-4.169-4.684-2.873m47.043.494c-.317.512-.118 1.213.441 1.559.559.345 1.016-.074 1.016-.931 0-1.757-.6-2.015-1.457-.628m5.707.758c.963.252 2.537.252 3.5 0 .963-.251.175-.457-1.75-.457s-2.713.206-1.75.457m14.769 2.788c-1.069 1.288-.911 1.523 1.025 1.523 1.259 0 1.977.312 1.596.693-1.107 1.107 9.497 3.436 12.57 2.761 1.535-.337 2.79-.929 2.79-1.315 0-1.126-8.771-3.398-10.056-2.605-.642.397-1.455.275-1.806-.271-1.221-1.901-4.811-2.362-6.119-.786m-46.14 3.423c-5.204 4.635-4.824 5.533 1.738 4.108 7.792-1.692 7.657-1.577 5.892-4.99-1.991-3.85-2.366-3.807-7.63.882m-44.248.618c-.407 1.063.13 1.482 1.9 1.482 2.96 0 3.128-.577.569-1.947-1.438-.769-2.038-.656-2.469.465m43.542 10.474c-5.933.673-11.669 3.845-9.991 5.524.534.533 20.571-1.123 25.59-2.116 1.919-.379 2.108-.756 1.215-2.425-1.159-2.165-4.621-2.367-16.814-.983m10.327 11.593c-4.4.745-11.959 1.986-16.798 2.756-6.52 1.038-9.434 1.998-11.25 3.705-3.062 2.876-3.148 4.388-.202 3.538 11.114-3.21 18.957-4.625 28.75-5.186 13.6-.78 14.589-1.113 12.437-4.184-1.745-2.492-1.899-2.499-12.937-.629m42.661 20.342c-1.188 2.115-2.161 5.048-2.161 6.518 0 1.47-.406 2.422-.903 2.115-.52-.321-.845 4.009-.765 10.191.117 9.057-.219 11.638-2.13 16.396-10.789 26.858-52.789 34.397-73.918 13.267-9.004-9.004-11.778-16.265-11.811-30.914-.023-10.474-.312-12.541-2.27-16.25-2.907-5.507-3.421-5.383-6.548 1.583-12.369 27.563 2.475 58.18 33.345 68.779 9.217 3.164 31.055 2.655 41.5-.968 28.677-9.947 42.957-39.793 32.01-66.903-3.385-8.38-3.682-8.559-6.349-3.814m-42.892-1.234c.973.254 2.323.237 3-.037.677-.274-.119-.481-1.769-.461-1.65.02-2.204.244-1.231.498M191 307.559c0 1.407.421 2.299.936 1.98 1.113-.687.986-4.539-.149-4.539-.433 0-.787 1.152-.787 2.559m-19.128 8.191c-1.243 1.586-1.208 1.621.378.378.963-.755 1.75-1.543 1.75-1.75 0-.823-.821-.294-2.128 1.372M107 321.962c0 11.175 4.824 20.248 14.714 27.673 6.244 4.687 8.553 5.139 14.786 2.894 5.326-1.919 10.363-1.878 17.962.147l6.29 1.676 4.874-3.596c9.828-7.251 14.413-13.808 16.422-23.485 1.595-7.685.825-9.038-3.339-5.863l-3.309 2.524-28.45.238c-31.387.262-31.647.227-35.412-4.709-3.683-4.829-4.538-4.358-4.538 2.501m10.566 57.596c-5.189 1.932-7.566 4.201-7.566 7.222 0 2.206.318 2.406 2.971 1.876 1.634-.327 6.021-.894 9.75-1.259 8.262-.811 9.217-1.458 8.363-5.662-.782-3.856-6.524-4.78-13.518-2.177m36.306 1.386c-1.245 1.765-1.861 1.844-6.672.858-4.224-.866-5.831-.804-7.919.306-2.474 1.315-2.151 1.429 5.8 2.059 11.32.898 22.356 2.573 28.383 4.309 5.987 1.725 6.047 1.683 4.131-2.904-1.966-4.704-6.354-6.572-15.441-6.572-5.707 0-7.149.339-8.282 1.944M131.5 392.085c-35.325 3.531-59.401 14.862-83.833 39.453C12.768 466.662-.007 516.089 12.654 567c11.214 45.093 51.706 84.504 97.979 95.361 91.332 21.43 172.944-45.857 169.029-139.361-3.334-79.63-70.197-138.71-148.162-130.915m-9.5 14.939c-26.406 4.486-39.982 10.958-62.065 29.586-29.848 25.179-45.556 69.731-39.45 111.89 9.674 66.797 74.601 114.569 141.276 103.949 61.753-9.836 107.288-61.345 107.231-121.298-.056-59.147-40.508-111.282-95.206-122.703-4.007-.837-9.086-1.935-11.286-2.441-6.506-1.496-29.037-.93-40.5 1.017m-.583 5.538c-33.096 5.563-66.264 28.535-81.153 56.207-6.325 11.755-6.293 10.7-.334 10.879l4.929.149.69-4.149c1.301-7.815 3.417-11.28 11.111-18.194 11.745-10.553 16.508-12.377 20.885-7.999 6.335 6.334-.156 21.359-12.788 29.602-4.312 2.814-4.889 4.444-1.248 3.53 3.047-.765 7.98 1.59 9.575 4.571 1.715 3.203-.371 8.889-5.629 15.344-4.899 6.015-5.123 6.498-3.012 6.498 4.479 0 5.789 8.41 2.398 15.39l-2.159 4.444 2.659 3.16c2.196 2.609 2.659 4.149 2.659 8.842 0 4.667.371 5.914 2.074 6.978 2.624 1.639 4.926 7.077 4.926 11.635 0 2.909.428 3.62 2.489 4.138 3.396.852 8.161 6.514 9.642 11.455.671 2.242 2.154 4.559 3.295 5.149 4.366 2.26 10.344 7.839 11.57 10.8 1.209 2.919 1.508 3.056 5.392 2.476 7.527-1.124 16.131 4.351 24.527 15.606 6.716 9.004 10.143 10.018 14.556 4.308C158.199 600.794 166.663 595 175.322 595h5.402l8.178-8.25c4.498-4.538 9.848-10.835 11.888-13.995 2.629-4.071 4.926-6.32 7.881-7.718 6.32-2.989 7.218-4.872 6.613-13.867-.6-8.918.721-14.834 4.249-19.027l2.48-2.947-2.007-4.681c-3.298-7.695-2.384-14.171 2.226-15.778.864-.302.276-1.691-1.844-4.36-4.515-5.683-7.388-11.799-7.388-15.73 0-3.912 1.104-4.665 8.146-5.558l4.646-.589-6.541-5.5c-11.78-9.906-17.72-23.457-12.028-27.443 4.685-3.282 12.722-1.499 17.777 3.945 1.375 1.481 4.075 3.505 6 4.498 6.56 3.384 11 10.363 11 17.291v3.355l4.999-.073c6.021-.088 5.973.432.751-8.145-14.899-24.474-26.037-35.03-49.25-46.675-22.528-11.301-51.448-15.5-77.083-11.191M134 433.155c-18.032 2.518-35.347 17.33-39.581 33.857-3.252 12.691.339 23.756 9.084 27.989 12.611 6.106 22.325 2.159 28.609-11.622 2.869-6.292 4.299-7.336 10.091-7.365 6.951-.035 10.709 4.912 8.223 10.825-.74 1.759-9.813 11.627-20.162 21.93-32.167 32.021-36.266 38.216-36.26 54.797.004 12.042 1.233 15.577 6.654 19.13 3.154 2.067 71.574 3.16 82.238 1.313 9.722-1.684 12.104-6.571 12.104-24.836 0-15.634-2.302-17.375-23.782-17.989l-14.283-.408 11.809-12.138c13.233-13.603 19.966-23.501 23.22-34.138 10.893-35.599-18.627-66.84-57.964-61.345m-1.937 7.4c-17.472 3.788-29.424 16.208-31.72 32.96-2.416 17.623 19.413 23.593 24.476 6.693.656-2.188 2.99-5.83 5.186-8.093 3.921-4.041 4.118-4.115 10.929-4.115 11.782 0 17.709 4.766 17.421 14.009-.247 7.92-3.454 12.294-24.927 33.991C101.883 547.874 101 549.154 101 563.006c0 8.312.209 9.294 2.455 11.539l2.454 2.455h38.354c42.452 0 41.223.188 42.751-6.527 1.301-5.722.134-18.665-1.825-20.223-1.148-.914-7.426-1.25-23.321-1.25-14.16 0-21.977-.368-22.401-1.054-.358-.579 7.501-9.197 17.464-19.151 20.833-20.812 26.054-28.057 28.72-39.854 6.938-30.705-20.572-55.546-53.588-48.386m-62.766 13.411c-3.708 2.255-9.173 9.927-8.573 12.034.377 1.319.304 1.321-.6.019-.888-1.28-1.408-1.2-3.826.59-3.923 2.904-5.529 6.741-5.997 14.335-.724 11.727 3.1 11.485 7.158-.454 1.067-3.141 2.289-5.14 2.98-4.875 2.173.834 8.041-4.148 11.311-9.604 5.336-8.904 3.909-15.914-2.453-12.045m142.37-.299c-3.233 3.232 4.656 17.966 11.912 22.247l3.421 2.019v-6.819c0-5.436-.461-7.502-2.274-10.192-3.711-5.507-10.845-9.47-13.059-7.255m18.034 11.965c-2.531 2.532.672 19.586 4.295 22.865 2.824 2.555 3.434 1.403 3.325-6.288-.146-10.3-4.476-19.721-7.62-16.577M129.5 468c-.34.55-.141 1 .441 1s1.059-.45 1.059-1-.198-1-.441-1-.719.45-1.059 1m-90.811 17.791c-3.946 4.36-2.779 16.281 2.173 22.213 4.776 5.72 6.42 3.849 5.944-6.761-.565-12.579-4.293-19.677-8.117-15.452m204.946.459c-3.627 5.78-4.634 19.356-1.81 24.402 2.312 4.131 9.175-9.16 9.175-17.768 0-8.053-4.138-11.779-7.365-6.634m-183.721 4.22c-5.458 3.579-8.623 7.944-9.825 13.55-2.114 9.86-1.618 10.023 7.223 2.381 13.024-11.257 15.129-24.148 2.602-15.931m160.143-1.526c-3.695 2.337 11.699 23.556 17.09 23.556 2.175 0 1.453-6.511-1.417-12.78-3.433-7.498-11.782-13.238-15.673-10.776m35.983 4.681c-.022 2.269-.321 5.531-.665 7.25-.54 2.702-.342 3.125 1.465 3.125 1.149 0 2.592.939 3.206 2.086.614 1.147 1.33 1.872 1.591 1.61.667-.667-2.523-12.621-4.182-15.67-1.355-2.489-1.376-2.465-1.415 1.599M28.243 499.66c-2.519 7.746-2.564 7.523 1.307 6.478 2.775-.749 2.929-1.057 2.595-5.165-.672-8.263-1.547-8.557-3.902-1.313m3.189 12.803c-3.292 5.024 2.687 21.64 9.161 25.459 5.465 3.225 5.76 2.925 5.143-5.236-.675-8.922-2.686-14.009-7.488-18.936-4.316-4.43-4.708-4.504-6.816-1.287m216.462 3.062c-4.598 6.089-5.784 10.307-5.85 20.809l-.044 6.834 3.821-3.026c6.816-5.398 12.625-20.246 10.786-27.571-1.058-4.217-4.07-3.196-8.713 2.954M56.9 514.864c-5.579 4.389-10.691 19.971-7.917 24.136 1.344 2.019 8.985-6.375 12.572-13.812 4.46-9.247 1.715-15.335-4.655-10.324m167.35-1.202c-3.277 1.323.556 13.607 7.361 23.588 6.18 9.065 7.389 8.743 7.389-1.966 0-12.518-8.054-24.324-14.75-21.622M24.918 525c-.194 4.956.143 14.348.53 14.763.135.145 1.915-.435 3.957-1.288l3.711-1.55-2.178-3.526c-1.199-1.939-3.004-5.635-4.012-8.212l-1.832-4.687-.176 4.5m236.048-.25c-.654 2.063-2.271 5.731-3.592 8.152-1.322 2.421-2.284 4.461-2.139 4.533 4.626 2.291 5.851 3.238 6.44 4.975 1.037 3.062 2.195-3.914 2.267-13.66.063-8.395-1.091-9.945-2.976-4m-90.513 7.5-3.953 4.25 4.25-3.953c3.952-3.676 4.71-4.547 3.953-4.547-.163 0-2.076 1.913-4.25 4.25m-112.016 7c-5.573 6.61-6.575 11.96-3.804 20.322 2.288 6.905 3.063 7.321 4.305 2.305.597-2.407 2.019-6.627 3.161-9.377 5.782-13.923 3.591-21.851-3.662-13.25m163.459-.055c-.801 1.495-.989 5.476-.592 12.486l.582 10.291-2.312-1.515c-2.227-1.46-2.336-1.399-2.943 1.639-.954 4.769-.756 22.904.25 22.904 2.123 0 7.595-7.19 11.684-15.352 6.327-12.628 5.955-18.943-1.764-29.898-2.342-3.324-3.362-3.439-4.905-.555m-191.563 4.38c-2.517 6.558 11.033 23.148 20.442 25.03 4.146.829 4.166-.314.164-9.262-5.264-11.768-18.31-21.751-20.606-15.768m220.667.396c-8.271 4.421-15.389 14.632-17.351 24.887-.623 3.257-.56 3.337 2.104 2.681 11.556-2.844 25.461-21.549 20.422-27.471-1.646-1.934-1.736-1.936-5.175-.097m-184.84 7.336c-3.483 4.197-5.143 19.406-2.744 25.147 1.372 3.283 6.079 7.384 7.195 6.268 1.631-1.631 1.642-27.686.014-30.172-1.878-2.866-2.885-3.146-4.465-1.243m191.49 9.027c-1.396 2.383-4.289 5.914-6.428 7.846l-3.889 3.514 1.937 2.391c1.5 1.853 1.822 3.406 1.429 6.894-.471 4.179-.413 4.324.799 2.01 1.394-2.66 9.501-26.989 8.994-26.989-.166 0-1.445 1.95-2.842 4.334m-229.188.116c.586 3.289 7.317 21.55 7.943 21.55.107 0 .195-1.636.195-3.635 0-2.764.657-4.158 2.741-5.82l2.742-2.186-2.407-1.097c-1.323-.603-4.132-3.271-6.241-5.929-5.731-7.223-5.749-7.233-4.973-2.883m47.145 11.132C72.442 579.829 77.536 599 82.892 599c2.186 0 2.397-19.558.264-24.381-2.155-4.872-6.218-6.506-7.549-3.037m129.958 1.959c-.948 1.447-2.387 4.862-3.196 7.59-1.021 3.435-2.167 5.222-3.733 5.817-4.784 1.819-14.633 16.848-14.635 22.333-.003 5.49 8.211 1.308 18.687-9.515 8.169-8.439 8.515-9.303 8.109-20.259-.331-8.904-2.034-10.847-5.232-5.966m-163.204 2.961c-3.264 8.506 14.513 20.699 27.124 18.604l3.646-.606-3.943-5.502c-7.181-10.02-24.654-18.159-26.827-12.496m193.139 1.356c-8.342 3.043-11.071 4.84-16.356 10.77-5.765 6.468-5.734 7.372.256 7.372 12.108 0 26.861-10.166 25.454-17.539-.501-2.623-3.32-2.804-9.354-.603M39.599 587.5c9.933 18.227 19.139 27.554 43.277 43.846 8.861 5.981 10.875 6.83 8.972 3.782-.908-1.454-.849-2.849.268-6.25l1.437-4.378-7.257-.123c-15.214-.258-31.875-12.706-28.604-21.371 1.084-2.873 1.032-2.937-3.707-4.511-4.587-1.523-10.248-6.516-15.301-13.495-.996-1.375-.584-.25.915 2.5m50.031 1.75c-2.167 8.088-.482 12.251 8.294 20.477 8.753 8.206 10.301 7.457 6.963-3.372-4.702-15.259-13.199-24.784-15.257-17.105m153.103 4.218c-2.623 2.414-6.335 4.906-8.25 5.538-3.289 1.085-3.483 1.399-3.483 5.637 0 2.469-.466 5.359-1.035 6.423-.57 1.064-.682 1.926-.25 1.917.627-.014 7.141-8.42 17.615-22.733 1.616-2.208.284-1.276-4.597 3.218m-131.066 6.199c-3.154 3.154 4.094 16.285 9.333 16.906.825.098 3.697.7 6.383 1.337 6.03 1.43 6.542.971 4.073-3.653-4.936-9.246-16.562-17.817-19.789-14.59M166.882 602c-4.985 2.635-12.617 11.384-14.023 16.076-1.295 4.324-3.329 5.434-8.262 4.508-2.65-.497-3.664-.131-5.663 2.042-1.339 1.457-6.622 6.002-11.74 10.1-9.072 7.264-11.014 10.3-7.075 11.058.877.169 6.65-3.988 12.827-9.238S144.709 627 145.359 627c.649 0 5.438 4.275 10.641 9.5 9.312 9.351 12.191 11.051 13.396 7.91.823-2.146 1.017-1.929-9.75-10.919-5.222-4.36-9.331-8.191-9.132-8.514.199-.322 3.878-1.656 8.174-2.964 7.682-2.337 11.163-4.024 8.262-4.002-.797.006-3.659.681-6.359 1.5-6.087 1.846-7.874 1.855-4.591.023 1.375-.768 4.643-1.695 7.261-2.06 5.043-.704 9.298-4.656 13.12-12.186 2.654-5.227-2.472-7.001-9.499-3.288m-101.132.689c-2.523.66-2.152 4 .768 6.92 6.189 6.189 21.681 10.208 28.484 7.39 3.919-1.623 3.896-1.677-3.175-7.426-7.835-6.369-17.889-9.023-26.077-6.884m144.179.678c-10.449 2.818-19.304 10.423-15.432 13.254 3.113 2.277 13.594 1.756 19.789-.984 5.547-2.453 11.934-8.9 11.064-11.168-1.01-2.632-7.917-3.125-15.421-1.102M221 619.001c-4.982 4.196-9.284 5.421-19.177 5.463l-8.677.036 1.927 3.118c1.06 1.715 1.927 4.302 1.927 5.75 0 1.448.338 2.63.75 2.628 2.067-.012 25.158-16.419 26.764-19.018.957-1.549.233-1.132-3.514 2.023m-97.19.516c3.367 1.564 13.166 3.288 12.114 2.131-.317-.349-2.792-1.077-5.5-1.618a786.778 786.778 0 0 1-7.424-1.517c-1.878-.401-1.677-.152.81 1.004m-12.064 2.569c-6.134 1.445-13.746 5.732-13.746 7.74 0 6.379 12.294 8.133 21.037 3.002 5.279-3.098 10.283-7.116 7.786-6.251-1.269.44-1.557.122-1.183-1.307.941-3.599-5.688-5.118-13.894-3.184m54.93 1.367c-5.001 1.781-5.114 1.949-3.239 4.811 4.012 6.123 19.259 10.11 25.629 6.701 8.108-4.34-12.615-14.994-22.39-11.512M137.25 641.01c-3.437 3.267-6.25 6.205-6.25 6.53 0 .324 6.075.477 13.501.339l13.501-.25-6.751-6.267c-3.713-3.447-6.976-6.273-7.251-6.28-.275-.007-3.312 2.661-6.75 5.928" fill-rule="evenodd"/><path fill="#23222d" stroke="#23222d" d="M28.5 5.925C9.825 6.999 8.96 9.467 13.582 48.5c11.264 95.108 35.412 172.576 72.053 231.144l6.347 10.144-3.515 5.836c-15.161 25.178-5.483 60.475 20.783 75.795 5.673 3.31 5.586 2.901 1.199 5.613-4.342 2.683-6.604 5.984-7.382 10.772-.665 4.091-1.304 4.526-13.567 9.232-26.438 10.148-54.093 34.55-69.005 60.887-24.144 42.642-23.938 102.225.498 144.065 37.128 63.572 118.217 88.315 185.47 56.592 86.741-40.914 106.428-162.555 37.47-231.513-13.81-13.81-34.007-26.788-49.933-32.086-8.102-2.696-8.607-3.122-9.374-7.921-.485-3.03-1.679-4.804-5.34-7.934-2.593-2.216-4.506-4.203-4.251-4.415.256-.211 2.971-1.794 6.034-3.518 27.555-15.502 35.977-54.158 17.391-79.819-1.418-1.958-1.358-2.353.758-5 23.984-29.999 48.897-89.185 60.774-144.379 14.151-65.764 21.214-120.894 16.626-129.767-3.759-7.268 6.129-6.719-122.574-6.803C90.495 5.383 34 5.608 28.5 5.925m165.6 5.028c-.473.301-1.153 3.472-1.511 7.047-.659 6.568-1.873 14.934-3.628 25-.527 3.025-1.634 11.125-2.46 18-1.402 11.677-9.06 55.861-13.605 78.5-3.367 16.767-17.273 64.358-22.163 75.848-1.815 4.264-1.911 5.289-.801 8.5 1.815 5.247 7.9 17.11 10.687 20.835 1.309 1.751 2.371 3.551 2.359 4-.085 3.211 10.765 21.451 13.019 21.886 6.127 1.182 16.003 4.974 16.003 6.145 0 1.716-.65 1.634-5.458-.694-2.25-1.089-5.622-2.286-7.493-2.66l-3.404-.681 3.428 4.802c1.885 2.641 4.661 5.327 6.17 5.967 2.025.86 2.45 1.459 1.623 2.286-1.208 1.208-.388 6.266 1.017 6.266.465 0 2.131-1.913 3.702-4.25 1.572-2.337 4.156-5.783 5.743-7.657 6.682-7.888 22.182-35.509 28.699-51.144 7.94-19.045 11.869-29.18 14.713-37.949 4.966-15.312 12.043-41.659 14.719-54.797 1.364-6.699 3.136-14.773 3.938-17.942 6.525-25.792 15.298-93.372 13.203-101.717-1.302-5.19-2.263-5.323-41.37-5.746-19.948-.215-36.657-.145-37.13.155m-174.465 2.12C17.284 14.922 17 15.828 17 21.477 17 58.372 37.391 157.995 53.541 200c11.605 30.186 21.787 52.844 27.41 61 .948 1.375 3.623 5.875 5.944 10 6.039 10.734 10.505 17.732 13.033 20.423 1.208 1.287 3.856 5.493 5.885 9.347 2.028 3.855 6.028 9.483 8.887 12.507l5.2 5.498 16.8-.968c16.785-.967 29.214-.701 32.589.696 1.335.553 2.823-.346 5.862-3.541 9.755-10.255 9.928-12.919 1.751-26.978-14.226-24.458-16.813-29.17-23.322-42.484-3.765-7.7-8.1-16.531-9.634-19.625C133.255 204.311 111.022 108.615 103.55 52c-1.343-10.175-3.138-23-3.99-28.5-.851-5.5-1.551-10.562-1.554-11.25-.005-.978-8.249-1.25-37.871-1.25-36.793 0-37.94.059-40.5 2.073m110.884-1.121-24.981.548.296 4.5c.164 2.475.941 8.55 1.728 13.5.786 4.95 1.432 9.312 1.434 9.693.002.38 1.916.864 4.254 1.075l4.25.383-4.375.174c-4.341.174-4.37.199-3.75 3.3.344 1.719.625 4.019.625 5.111 0 1.685.493 1.905 3.25 1.448 1.787-.297 4.15-.153 5.25.318 1.503.644.819.875-2.75.928-5.742.085-5.746.113-2.786 17.221A2664.32 2664.32 0 0 1 116.477 91c.853 5.225 2.429 13.55 3.503 18.5 1.075 4.95 2.319 11.025 2.766 13.5.746 4.134 1.094 4.55 4.283 5.118l3.471.619-3.25.131c-3.554.144-3.798.824-2.199 6.139.579 1.921 2.135 8.611 3.458 14.867 1.324 6.256 2.538 11.436 2.699 11.51.16.074 6.03-.094 13.044-.374 7.014-.281 12.751-.234 12.75.103-.001.337-5.413.835-12.027 1.108-13.857.57-13.679.485-12.095 5.773l1.2 4.006h23.97l1.056-2.75c.58-1.513.821-4.223.534-6.022-.287-1.8-.129-3.03.35-2.734 1.269.784 1.992-.806 3.057-6.73.522-2.895 1.356-7.064 1.855-9.264 2.294-10.113 5.075-24.053 7.082-35.5 1.206-6.875 2.824-15.875 3.597-20 2.617-13.972 5.309-31.469 5.923-38.5.336-3.85 1.224-11.05 1.973-16 .749-4.95 1.631-11.992 1.96-15.648l.598-6.648-4.768-.434c-6.07-.554-19.401-.506-50.748.182m-14.706 51.731c.721.289 1.584.253 1.916-.079.332-.332-.258-.568-1.312-.525-1.165.048-1.402.285-.604.604M117 86c0 .55 2.25 1 5 1s5-.45 5-1-2.25-1-5-1-5 .45-5 1m11.813 30.683c.721.289 1.584.253 1.916-.079.332-.332-.258-.568-1.312-.525-1.165.048-1.402.285-.604.604M129.5 139c-1.392.598-1.544.902-.5.999.825.076 2.85.345 4.5.596 1.65.252 6.375.133 10.5-.264l7.5-.723-5.5-.705c-7.55-.968-14.111-.93-16.5.097m11.01 12.016c.346.559 1.047.758 1.559.441 1.387-.857 1.129-1.457-.628-1.457-.857 0-1.276.457-.931 1.016m-.827 23.792-4.817.307.673 3.193c.941 4.47 1.015 4.505 10.21 4.867 10.317.406 10.355 2.142.063 2.825l-7.531.5 1.39 4.75c1.262 4.315 1.667 4.75 4.418 4.75 1.765 0 2.771.417 2.411 1-.34.55-1.491 1-2.559 1s-1.941.268-1.941.596c0 2.003 3.29 11.404 3.991 11.404 1.724 0 4.364-10.201 3.145-12.154-1.389-2.224-1.458-3.163-.174-2.37 1.837 1.136 9.341-18.506 7.698-20.149-.729-.729-9.491-.997-16.977-.519m-4.416 66.136c-.65 1.041-2.551 2.701-4.224 3.69-1.898 1.121-3.043 2.611-3.043 3.959 0 1.189-.634 2.688-1.408 3.331-.774.642-2.147 2.61-3.05 4.372-.904 1.762-2.858 5.038-4.342 7.279a2639.41 2639.41 0 0 0-7.062 10.75c-2.399 3.671-4.938 6.675-5.643 6.675-.704 0-1.509.594-1.788 1.321-.576 1.502 1.859 11.645 3.092 12.878.89.89 11.967-17.583 12.453-20.766.165-1.085 1.411-3.764 2.768-5.953 3.296-5.32 5.313-8.903 8.71-15.48 1.563-3.025 3.648-6.713 4.635-8.196 1.169-1.757 1.496-3.229.939-4.225-.74-1.323-1.013-1.274-2.037.365M94 265c0 .55.477 1 1.059 1s.781-.45.441-1-.816-1-1.059-1-.441.45-.441 1m6 9c0 .55.45 1 1 1s1-.45 1-1-.45-1-1-1-1 .45-1 1m90.261 28.429c-3.59 5.993-3.928 7.103-3.164 10.391 4.64 19.971-5.791 37.931-26.597 45.791-7.688 2.904-26.84 2.579-35-.595-7.29-2.835-17.886-12.924-21.504-20.475-2.807-5.857-3.926-19.192-2.08-24.786 1.068-3.238.883-3.95-2.52-9.662-4.344-7.292-5.166-7.266-8.187.269-11.319 28.228 1.57 57.563 30.206 68.747 10.903 4.258 31.572 4.821 43.085 1.173 29.832-9.452 45.118-38.09 35.45-66.414-1.245-3.648-3.031-7.649-3.967-8.891l-1.704-2.258-4.018 6.71M138.5 308c-.371.601.903.994 3.191.985 2.828-.012 3.422-.265 2.309-.985-1.956-1.264-4.719-1.264-5.5 0m-12.75.728c-4.597.481-4.994 2.276-.5 2.261 4.994-.017 10.75-1.152 10.75-2.12 0-.86-2.982-.901-10.25-.141m-19.414 7.84c-1.009 2.627.358 11.594 2.728 17.901 4.094 10.893 17.642 21.875 24.175 19.597 4.243-1.479 5.806-1.346 5.123.434-.841 2.191 11.901 2.583 14.088.434.522-.514 2.835-.934 5.14-.934 10.49 0 23.624-15.189 25.067-28.988.722-6.912-.104-7.497-4.894-3.466-2.991 2.517-3.205 2.543-18.145 2.25-8.315-.163-21.394-.143-29.066.044l-13.948.34-4.274-4.59c-4.735-5.083-5.128-5.281-5.994-3.022m11.446 62.258c-5.806 2.06-7.543 3.728-8.414 8.085-.665 3.323-.626 3.37 2.19 2.664 17.037-4.276 50.642-4.238 62.855.071 5.157 1.819 6.015.726 3.469-4.419-3.111-6.288-8.034-7.5-26.882-6.618-8.712.407-14.807 1.12-15.269 1.785-.529.76-1.175.577-2.067-.585-1.925-2.507-10.15-3.016-15.882-.983m9.483 13.133c-32.304 3.721-55.357 14.972-78.815 38.469-28.617 28.664-40.445 57.533-40.449 98.723-.004 53.886 22.027 92.208 69.638 121.13 29.241 17.763 74.257 22.111 109.29 10.557 89.2-29.418 122.585-140.359 65.252-216.838-28.224-37.649-76.228-57.648-124.916-52.041m.42 15.09c-14.396 1.501-28.098 5.342-38.744 10.86C54.493 435.764 36.327 457.303 25.606 493 9.85 545.465 26.537 596.634 70 629.125c24.238 18.119 58.72 27.261 88.221 23.389 56.186-7.375 99.867-48.793 108.422-102.806 1.786-11.279 1.578-35.326-.316-36.518-.603-.38-1.346-1.59-1.652-2.69-.306-1.1-.325 2.275-.042 7.5 1.454 26.898-6.564 59.939-18.202 75.001-2.969 3.843-6.474 8.691-7.79 10.775-3.013 4.774-9.163 11.393-13.385 14.408-1.785 1.274-6.967 5.079-11.517 8.456-7.462 5.537-16.769 11.36-18.16 11.36-.295 0-.018-1.137.615-2.526 1.484-3.256-1.039-8.991-4.686-10.652-3.118-1.421-3.315-3.279-.258-2.431 14.648 4.064 28.641-.356 36.804-11.624 2.923-4.035 3.134-5.508 1.425-9.96-.367-.957.835-1.744 3.926-2.57 4.689-1.254 13.968-9.389 15.518-13.604 2.204-5.994 2.159-7.642-.278-10.079l-2.404-2.404 5.449-5.625c8.873-9.161 12.571-19.851 8.753-25.302-.856-1.223-2.356-2.223-3.333-2.223-2.918 0-2.921-.762-.022-6.509 6.491-12.867 6.246-26.371-.5-27.633-1.708-.32-1.887-1.171-1.687-8.018.397-13.554-3.403-20.755-9.489-17.982-3.383 1.542-3.411 1.529-3.418-1.608-.015-7.365-5.934-17.202-11.322-18.815-1.195-.357-3.972-2.349-6.172-4.426-6.949-6.559-12.025-7.744-16.865-3.936-4.944 3.889-2.091 12.414 7.367 22.009 8.183 8.302 11.353 9.456 4.827 1.757-5.403-6.373-10.213-15.635-9.638-18.555 1.163-5.903 11.352-1.357 15.641 6.979 2.209 4.291 2.567 4.577 3.746 2.991 3.344-4.495 7.262 3.441 8.146 16.496.454 6.718.295 8.25-.861 8.25-2.065 0-5.863-2.891-5.863-4.464 0-1.728-10.052-2.45-14.415-1.036-5.56 1.802-4.197 8.322 4.126 19.75 2.311 3.173 2.985 4.75 2.029 4.75-4.898 0-5.836 6.946-2.188 16.218 1.856 4.718 1.856 4.719-.372 7.09-2.959 3.15-4.18 7.769-4.18 15.813 0 7.379 2.345 11.783 2.685 5.043.925-18.333 5.371-20.904 12.387-7.164 5.118 10.023-.924 29.553-11.959 38.655-3.81 3.142-4.113 2.388-4.113-10.222 0-10.59-.131-11.381-1.75-10.525-.963.509-3.228 1.474-5.035 2.145-2.474.918-4.276 2.915-7.295 8.085-2.206 3.776-6.54 9.227-9.632 12.114a1126.638 1126.638 0 0 0-8.205 7.726c-2.246 2.154-3.334 2.435-8.338 2.157-8.704-.484-12.889 2.409-26.357 18.217-3.231 3.792-8.675 4.368-10.615 1.123-8.474-14.172-20.977-23.249-28.226-20.493-2.884 1.097-4.755-.273-7.615-5.575-2.193-4.066-9.632-9.107-11.17-7.569-1.925 1.925-2.262 1.379-2.262-3.661 0-6.079-3.995-12.687-8.232-13.618-2.551-.56-2.935-1.218-3.997-6.839-.905-4.787-1.866-6.84-4.17-8.909-2.563-2.3-2.913-3.194-2.426-6.195.771-4.754-.271-8.337-3.22-11.07l-2.464-2.284 2.605-5.69c3.054-6.672 2.72-11.818-.889-13.695-1.214-.631-2.36-1.278-2.548-1.437-.187-.158 1.95-3.315 4.75-7.013 4.036-5.332 5.091-7.508 5.091-10.504 0-5.442-3.81-8.328-9.808-7.429-4.117.617-4.285.548-3.266-1.356.591-1.104 1.074-2.576 1.074-3.272 0-2.089-1.975.434-4.875 6.228-3.37 6.732-4.721 7.119-6.162 1.767-.93-3.453-.846-5.519.44-10.815 1.558-6.412 2.142-7.247 8.784-12.546 1.378-1.1 3.297-3.23 4.263-4.732 1.767-2.748 7.34-6.768 9.383-6.768 4.205 0 3.583 7.266-1.319 15.407-2.862 4.753-3.102 5.593-1.596 5.593 5.044 0 11.54-15.066 9.068-21.033-2.552-6.162-9.308-5.135-18.141 2.759-3.49 3.119-6.221 6.065-6.07 6.547.151.482-.146.616-.659.299-2.45-1.514-6.38 6.097-8.548 16.556-.51 2.46-.83 2.597-4.969 2.13-4.208-.474-4.508-.335-6.167 2.872-1.742 3.367-2.47 13.188-1.432 19.328.447 2.647.156 3.057-2.769 3.9-5.956 1.717-5.833 14.296.245 25.166l3.532 6.315-3.106.682c-1.708.376-3.96 1.537-5.004 2.581-1.475 1.475-1.898 1.57-1.898.429 0-.808-.922-3.237-2.048-5.398-1.677-3.218-1.919-4.899-1.336-9.281.392-2.944.901-4.789 1.132-4.102 1.176 3.509 2.367.541 2.208-5.5-.098-3.712.061-7.425.355-8.25.541-1.524 3.152-10.031 6.137-20 2.799-9.343 13.462-29.584 18.839-35.758 41.769-47.965 110.08-56.958 164.455-21.649 18.214 11.827 37.692 37.648 44.436 58.907 1.744 5.5 3.431 10.225 3.747 10.5.316.275.62 1.063.675 1.75.271 3.392.492 3.917 1.65 3.916.688-.001 1.344-1.276 1.46-2.834.115-1.557-.249-2.832-.809-2.832-.561 0-.774-.396-.475-.88.299-.484-.467-2.846-1.702-5.25-1.235-2.403-2.255-4.82-2.266-5.37-.064-3.208-1.876-7.653-3.466-8.504-1.015-.543-2.756-3.421-3.868-6.395-2.044-5.463-6.58-13.512-10.817-19.195-1.269-1.702-2.307-3.589-2.307-4.193 0-2.112-11.42-13.41-20.423-20.206-25.864-19.522-56.876-27.608-91.892-23.958m2.632 26.997c-9.066 1.792-21.534 9.874-28.181 18.269-10.988 13.876-11.156 34.228-.339 41.057 12.017 7.586 23.194 3.975 29.484-9.526 2.659-5.706 3.744-7.029 6.52-7.945C144.54 473.677 152 477.669 152 483.5c0 3.197-2.309 5.939-21.474 25.5-33.038 33.721-36.509 38.975-36.52 55.282-.007 8.679 1.395 12.981 5.446 16.718l2.71 2.5h41.169c52.17 0 50.065.867 51.325-21.139 1.055-18.444-1.21-20.361-24.057-20.361-8.03 0-14.598-.337-14.598-.75.001-.413 4.536-5.25 10.078-10.75 17.843-17.707 24.944-29.28 27.118-44.195 4.898-33.605-26.258-59.498-62.88-52.259m.183 6.342c-17.665 4.301-30.868 19.68-30.83 35.912.022 9.365 6.223 15.277 15.079 14.377 5.466-.555 6.95-1.87 10.353-9.177 3.468-7.448 5.763-10.128 10.293-12.02 10.502-4.389 22.645 2.289 22.583 12.418-.044 7.148-3.324 11.659-23.243 31.966-33.027 33.672-35.267 36.934-34.588 50.383.237 4.686.987 8.308 2.059 9.945l1.686 2.573 35.368.737c41.127.857 45.142.555 47.265-3.55 1.867-3.611 2.08-21.947.275-23.752-.861-.861-7.476-1.2-23.441-1.2-14.103 0-22.473-.375-22.874-1.024-.348-.564 7.284-9.016 16.961-18.782 23.669-23.888 27.477-29.549 29.508-43.87 4.197-29.592-24.773-52.651-56.454-44.936m-92.957 45.564c-4.696 5.19.863 25.548 6.977 25.548 4.123 0 4.42-13.173.501-22.25-2.468-5.715-4.485-6.605-7.478-3.298m205.605-.202c-3.45 6.543-4.216 11.48-3.007 19.379 1.353 8.836 1.459 8.942 5.119 5.121 5.405-5.643 8.33-20.423 4.868-24.596-1.802-2.172-5.814-2.116-6.98.096M59.5 490.396c-5.454 3.306-8.471 7.718-10.124 14.803-2.253 9.658.346 9.534 10.769-.513 11.774-11.349 11.314-21.541-.645-14.29m159.509-1.423c-3.827 2.42 13.767 25.027 19.477 25.027 1.331 0 .248-8.989-1.563-12.982-4.145-9.139-13.045-15.123-17.914-12.045m.848 10.777c1.254 1.788 2.489 3.25 2.746 3.25.865 0-1.477-3.651-3.259-5.082-1.253-1.006-1.104-.474.513 1.832m30.011 12.5c-5.941 6.396-7.868 11.715-7.868 21.717 0 10.406.284 10.619 5.962 4.458 7.889-8.558 12.418-23.138 8.524-27.44-2.408-2.662-3.092-2.531-6.618 1.265m16.211-1.667c.048 1.165.285 1.402.604.605.289-.722.253-1.585-.079-1.917-.332-.332-.568.258-.525 1.312M31.2 511.2c-4.821 4.821 2.543 24.03 10.861 28.332 4.231 2.187 5.029 1.211 4.369-5.342-1.517-15.071-10.137-28.083-15.23-22.99m25.271 3.96A24.917 24.917 0 0 0 48 533.908c0 7.858 1.273 8.332 6.604 2.459 12.112-13.342 13.72-31.614 1.867-21.207m166.547-.682c-2.671 3.218 9.841 30.522 13.987 30.522 3.644 0 3.567-13.474-.127-22.061-3.492-8.118-10.562-12.434-13.86-8.461M58.973 538.25c-4.354 4.654-6.165 8.701-6.127 13.693.061 7.86 6.104 20.539 6.7 14.057.479-5.208 1.995-11.258 4.067-16.22 4.522-10.836 1.571-18.169-4.64-11.53m-28.951 7c.052 7.628 7.536 17.856 16.239 22.193 9.643 4.805 10.339 3.778 5.284-7.801-3.945-9.037-5.37-10.871-11.491-14.793-6.309-4.043-10.061-3.893-10.032.401m218.967-.407C240.078 550.594 233 562.008 233 570.625c0 6.057 14.682-2.679 20.005-11.904 7.78-13.482 5.827-20.232-4.016-13.878M26.027 551c.018 12.552 11.371 37.476 24.73 54.291 9.904 12.466 36.001 31.521 50.996 37.236 4.538 1.729 8.551 3.444 8.916 3.809 1.359 1.359 2.039.59 1.584-1.791-.394-2.065-1.205-2.554-5.111-3.081-15.622-2.107-19.616-8.674-10.414-17.123 4.866-4.467 5.144-5.614.649-2.668-7.002 4.587-26.976-.272-35.289-8.585-4.415-4.415-5.234-8.007-2.663-11.678 1.348-1.924 1.185-2.099-3-3.219-2.434-.651-4.425-1.662-4.425-2.246 0-.585-.495-.757-1.099-.384-1.737 1.074-11.697-10.15-13.068-14.725-1.411-4.71-.587-6.631 3.759-8.762l2.908-1.425-3-1.241c-4.275-1.769-8.917-6.96-12.436-13.908-1.671-3.3-3.038-5.325-3.037-4.5m38.477 2.336c-2.814 6.734-3.928 16.079-2.517 21.116 1.597 5.707 7.821 11.642 9.347 8.915 1.477-2.638 1.377-28.497-.119-31.117-1.929-3.376-5.058-2.87-6.711 1.086m11.409 17.269c-3.977 4.792-1.748 20.76 3.651 26.159 4.781 4.781 5.436 3.712 5.436-8.873 0-15.118-4.221-23.149-9.087-17.286m129.669 2.48c-1.428 1.697-3.092 5.057-3.699 7.466-.825 3.276-1.924 4.866-4.354 6.299-5.053 2.981-16.476 20.561-16.515 25.414-.038 4.829 10.09-.232 20.33-10.16C211.055 592.69 212 590.917 212 582.115c0-11.708-1.907-14.391-6.418-9.03m-161.785 1.62c-7.383 1.835 2.518 16.529 13.292 19.729 5.132 1.524 16.911 2.186 16.911.95 0-1.549-7.598-10.729-11.34-13.702-6.081-4.83-14.689-8.013-18.863-6.977m193.001 2.226C226.869 580.105 214 590.265 214 594.929c0 1.958 13.048 1.231 18-1.003 5.721-2.581 14-10.604 14-13.567 0-1.733-2.408-5.58-3.321-5.305-.099.029-2.745.874-5.881 1.877M89.607 587.582c-3.085 8.04.821 17.675 10.205 25.168 7.579 6.051 8.925 3.707 4.813-8.383-4.693-13.797-12.721-22.77-15.018-16.785M176 599c0 .55-1.498 1-3.329 1-6.754 0-16.366 8.697-20.763 18.787l-1.869 4.287-5.093-.676c-4.966-.658-5.168-.584-8.098 2.971-1.653 2.005-6.795 6.605-11.427 10.221-4.631 3.617-8.421 6.793-8.421 7.059 0 1.475 2.264 4.351 3.425 4.351.745 0 6.633-4.541 13.084-10.092l11.728-10.092 4.516 4.342a611.529 611.529 0 0 1 9.769 9.676c3.927 3.987 5.851 5.25 7.616 5 4.097-.579 3.596-4.29-1.031-7.642-2.211-1.601-6.53-5.206-9.6-8.011l-5.581-5.101 7.287-2.101c10.378-2.991 14.082-4.768 13.439-6.445-.297-.773.252-2.448 1.219-3.72 4.424-5.817 6.192-9.713 5.558-12.242-.62-2.469-2.429-3.64-2.429-1.572m-64.808.86c-2.594 1.645 1.616 11.99 6.883 16.912 1.703 1.592 5.307 3.46 8.01 4.153 2.703.693 4.915 1.668 4.915 2.167 0 1.213-.306 1.17-5.004-.71-10.707-4.285-30.85 3.202-28.504 10.594 2.325 7.325 21.018 3.831 31.008-5.796 4.159-4.008 4.452-4.18 7.122-4.18 2.518 0-.337-2.971-2.994-3.116-1.69-.092-1.768-.21-.378-.573 2.334-.61 2.236-1.167-1.12-6.365-6.393-9.904-15.515-15.891-19.938-13.086m-47.217 3.67c-4.628 5.576 11.764 15.188 26.525 15.553 5.245.129 12.49-1.465 11.389-2.506-3.111-2.941-17.252-12.508-19.8-13.396-5.052-1.761-16.546-1.54-18.114.349m145.019-.616c-4.42 1.381-9.411 4.232-12.494 7.137-1.65 1.555-4.268 3.481-5.818 4.28l-2.817 1.452 4.515 1.724c10.04 3.835 24.513.177 30.997-7.834 4.328-5.347 3.012-7.112-5.481-7.358-3.518-.101-7.524.168-8.902.599m-44.744 20.775c-1.787.921-3.25 1.957-3.25 2.303 0 1.51 6.847 7.469 10.5 9.137 5.454 2.491 15.48 2.518 18.529.049 7.321-5.929-16.212-16.416-25.779-11.489m-28.75 17.958-8 7.563 15.744-.355c8.659-.195 15.746-.525 15.75-.734.009-.57-14.417-14.108-14.994-14.069-.275.018-4.1 3.436-8.5 7.595M187 641c-1.375.44-4.412.845-6.75.9-3.55.084-4.25.429-4.25 2.1 0 2.551.362 2.524 8.078-.6 8.086-3.274 9.643-4.553 2.922-2.4" fill-rule="evenodd"/></svg>